<svg width="120" height="120" viewBox="0 0 120 120" fill="none" xmlns="http://www.w3.org/2000/svg">
<path fill-rule="evenodd" clip-rule="evenodd" d="M60 10C87.6142 10 110 32.3858 110 60C110 87.6142 87.6142 110 60 110C32.3858 110 10 87.6142 10 60C10 32.3858 32.3858 10 60 10Z" stroke="#EC222D" stroke-width="4" stroke-linecap="round" stroke-linejoin="round"/>
<path d="M49.2878 73C48.7063 73 48.1248 72.7858 47.6657 72.3269C46.7781 71.4395 46.7781 69.9709 47.6657 69.0836L69.0901 47.6655C69.9776 46.7782 71.4467 46.7782 72.3343 47.6655C73.2219 48.5528 73.2219 50.0215 72.3343 50.9088L50.9099 72.3269C50.4508 72.7858 49.8693 73 49.2878 73Z" fill="#EC222D"/>
<path d="M70.7122 73C70.1307 73 69.5492 72.7858 69.0901 72.3269L47.6657 50.9088C46.7781 50.0215 46.7781 48.5528 47.6657 47.6655C48.5533 46.7782 50.0224 46.7782 50.9099 47.6655L72.3343 69.0836C73.2219 69.9709 73.2219 71.4395 72.3343 72.3269C71.8752 72.7858 71.2937 73 70.7122 73Z" fill="#EC222D"/>
</svg>
