<svg width="16" height="16" viewBox="0 0 16 16" fill="none" xmlns="http://www.w3.org/2000/svg">
<path d="M14.6667 3.80666V10.1933C14.6667 12.0333 13.1733 13.5267 11.3333 13.5267H4.66667C4.36001 13.5267 4.06667 13.4867 3.78001 13.4067C3.36667 13.2933 3.23334 12.7667 3.54001 12.46L10.6267 5.37333C10.7733 5.22666 10.9933 5.19333 11.2 5.23333C11.4133 5.27333 11.6467 5.21333 11.8133 5.05333L13.5267 3.33333C14.1533 2.70666 14.6667 2.91333 14.6667 3.80666Z" fill="#F9A825"/>
<path opacity="0.4" d="M9.76004 4.90668L2.78004 11.8867C2.46004 12.2067 1.92671 12.1267 1.71337 11.7267C1.46671 11.2733 1.33337 10.7467 1.33337 10.1933V3.80668C1.33337 2.91335 1.84671 2.70668 2.47337 3.33335L4.19337 5.06001C4.45337 5.31335 4.88004 5.31335 5.14004 5.06001L7.52671 2.66668C7.78671 2.40668 8.21337 2.40668 8.47337 2.66668L9.76671 3.96001C10.02 4.22001 10.02 4.64668 9.76004 4.90668Z" fill="#F9A825"/>
</svg>
