<svg width="24" height="24" viewBox="0 0 24 24" fill="none" xmlns="http://www.w3.org/2000/svg">
<path fill-rule="evenodd" clip-rule="evenodd" d="M17.6378 7.10999V7.10999C17.2648 7.10999 16.9268 6.89499 16.7678 6.55899C16.4808 5.95099 16.1158 5.17399 15.8998 4.75099C15.5808 4.12199 15.0638 3.75599 14.3478 3.75099C14.3358 3.74999 9.66376 3.74999 9.65176 3.75099C8.93576 3.75599 8.41976 4.12199 8.09976 4.75099C7.88476 5.17399 7.51976 5.95099 7.23276 6.55899C7.07376 6.89499 6.73476 7.10999 6.36276 7.10999V7.10999C4.36676 7.10999 2.74976 8.72699 2.74976 10.722V16.658C2.74976 18.652 4.36676 20.27 6.36276 20.27H17.6378C19.6328 20.27 21.2498 18.652 21.2498 16.658V10.722C21.2498 8.72699 19.6328 7.10999 17.6378 7.10999Z" stroke="white" stroke-width="1.2" stroke-linecap="round" stroke-linejoin="round"/>
<g opacity="0.4" clip-path="url(#clip0_223_748)">
<path d="M15.99 10.5613L15.7003 11.6787C15.69 11.7185 15.672 11.7558 15.6473 11.7886C15.6226 11.8214 15.5917 11.849 15.5563 11.8698C15.5209 11.8906 15.4818 11.9042 15.4411 11.9099C15.4004 11.9156 15.3591 11.9131 15.3193 11.9028L14.1688 11.6045C14.1288 11.5944 14.0913 11.5765 14.0583 11.5518C14.0253 11.5271 13.9975 11.4962 13.9765 11.4607C13.9555 11.4253 13.9417 11.3861 13.9359 11.3453C13.9302 11.3045 13.9325 11.2629 13.9429 11.2231C13.9532 11.1832 13.9713 11.1458 13.9962 11.1129C14.0211 11.0801 14.0522 11.0524 14.0877 11.0317C14.1233 11.0109 14.1626 10.9973 14.2035 10.9918C14.2443 10.9863 14.2858 10.9889 14.3256 10.9995L14.7275 11.1037C13.8973 9.90849 12.3548 9.38203 10.9519 9.8486C10.4659 10.0084 10.0238 10.2791 9.6604 10.6391C9.29703 10.9992 9.02237 11.4389 8.85813 11.9233C8.83119 12.0017 8.77422 12.0662 8.69975 12.1026C8.62528 12.139 8.5394 12.1443 8.46102 12.1173C8.38263 12.0904 8.31816 12.0334 8.28178 11.9589C8.2454 11.8845 8.2401 11.7986 8.26703 11.7202C8.46154 11.156 8.78039 10.6427 9.2 10.2183C9.63473 9.77887 10.1676 9.44891 10.7547 9.25556C11.5748 8.98288 12.4618 8.98691 13.2795 9.26704C14.0971 9.54718 14.8002 10.0879 15.2808 10.8063L15.385 10.4045C15.4058 10.3243 15.4576 10.2556 15.5291 10.2136C15.6005 10.1716 15.6857 10.1596 15.7659 10.1804C15.8462 10.2012 15.9148 10.2531 15.9569 10.3245C15.9989 10.3959 16.0108 10.4811 15.99 10.5613ZM15.5391 13.8827C15.5003 13.8693 15.4592 13.8638 15.4182 13.8663C15.3773 13.8688 15.3372 13.8794 15.3003 13.8974C15.2635 13.9154 15.2305 13.9406 15.2033 13.9713C15.1762 14.0021 15.1553 14.0379 15.142 14.0767C14.9777 14.5612 14.7031 15.0008 14.3397 15.3609C13.9763 15.721 13.5342 15.9916 13.0482 16.1514C11.6453 16.618 10.1028 16.0915 9.27264 14.8963L9.67455 15.0005C9.71446 15.0114 9.75614 15.0143 9.79717 15.0089C9.83819 15.0036 9.87775 14.9901 9.91353 14.9694C9.94932 14.9486 9.98063 14.9209 10.0056 14.888C10.0307 14.855 10.0489 14.8174 10.0593 14.7774C10.0696 14.7373 10.072 14.6956 10.0661 14.6547C10.0602 14.6137 10.0463 14.5744 10.025 14.5388C10.0038 14.5033 9.97579 14.4724 9.94252 14.4478C9.90925 14.4232 9.87143 14.4054 9.83125 14.3956L8.68063 14.0972C8.6004 14.0764 8.5152 14.0883 8.44376 14.1304C8.37233 14.1724 8.32051 14.2411 8.29971 14.3213L8.01 15.4387C7.9997 15.4784 7.99733 15.5198 8.00301 15.5605C8.0087 15.6011 8.02234 15.6402 8.04314 15.6756C8.06395 15.711 8.09152 15.7419 8.12428 15.7666C8.15704 15.7913 8.19435 15.8094 8.23407 15.8197C8.2738 15.83 8.31516 15.8323 8.3558 15.8266C8.39645 15.821 8.43557 15.8073 8.47094 15.7865C8.50632 15.7657 8.53724 15.7381 8.56196 15.7054C8.58668 15.6726 8.6047 15.6353 8.615 15.5956L8.71917 15.1938C9.19999 15.912 9.90311 16.4525 10.7207 16.7326C11.5383 17.0127 12.4251 17.0169 13.2453 16.7445C13.8324 16.5511 14.3653 16.2211 14.8 15.7817C15.2196 15.3573 15.5385 14.844 15.733 14.2797C15.7599 14.2014 15.7546 14.1155 15.7182 14.041C15.6819 13.9666 15.6174 13.9096 15.5391 13.8827Z" fill="white"/>
</g>
<defs>
<clipPath id="clip0_223_748">
<rect width="8" height="8" fill="white" transform="translate(8 9)"/>
</clipPath>
</defs>
</svg>
