<svg width="16" height="16" viewBox="0 0 16 16" fill="none" xmlns="http://www.w3.org/2000/svg">
<path d="M12.8832 6.3125C12.8832 6.3125 12.5212 10.8025 12.3112 12.6938C12.2112 13.5972 11.6532 14.1265 10.7392 14.1432C8.99991 14.1745 7.25858 14.1765 5.51991 14.1398C4.64058 14.1218 4.09191 13.5858 3.99391 12.6985C3.78258 10.7905 3.42258 6.3125 3.42258 6.3125" stroke="#514D56" stroke-width="1.2" stroke-linecap="round" stroke-linejoin="round"/>
<path d="M13.8055 4.15951H2.50012" stroke="#514D56" stroke-width="1.2" stroke-linecap="round" stroke-linejoin="round"/>
<path d="M11.627 4.15998C11.1037 4.15998 10.653 3.78998 10.5504 3.27732L10.3884 2.46665C10.2884 2.09265 9.94971 1.83398 9.56371 1.83398H6.74171C6.35571 1.83398 6.01704 2.09265 5.91704 2.46665L5.75504 3.27732C5.65238 3.78998 5.20171 4.15998 4.67838 4.15998" stroke="#514D56" stroke-width="1.2" stroke-linecap="round" stroke-linejoin="round"/>
</svg>
