<svg width="16" height="16" viewBox="0 0 16 16" fill="none" xmlns="http://www.w3.org/2000/svg">
<path fill-rule="evenodd" clip-rule="evenodd" d="M1.3334 7.99967C1.3334 4.32034 4.32007 1.33301 8.00007 1.33301C11.6867 1.33301 14.6667 4.32034 14.6667 7.99967C14.6667 11.6803 11.6867 14.6663 8.00007 14.6663C4.32007 14.6663 1.3334 11.6803 1.3334 7.99967ZM7.4134 5.47301C7.4134 5.15367 7.68007 4.88634 8.00007 4.88634C8.32007 4.88634 8.58007 5.15367 8.58007 5.47301V8.41967C8.58007 8.74034 8.32007 8.99967 8.00007 8.99967C7.68007 8.99967 7.4134 8.74034 7.4134 8.41967V5.47301ZM8.00673 11.1203C7.68007 11.1203 7.42007 10.8537 7.42007 10.5337C7.42007 10.2137 7.68007 9.95367 8.00007 9.95367C8.32673 9.95367 8.58673 10.2137 8.58673 10.5337C8.58673 10.8537 8.32673 11.1203 8.00673 11.1203Z" fill="#F9A825"/>
</svg>
