<svg width="16" height="16" viewBox="0 0 16 16" fill="none" xmlns="http://www.w3.org/2000/svg">
<path d="M11.3333 8.93268V10.9327C11.3333 13.5993 10.2666 14.666 7.59992 14.666H5.06659C2.39992 14.666 1.33325 13.5993 1.33325 10.9327V8.39935C1.33325 5.73268 2.39992 4.66602 5.06659 4.66602H7.06659" stroke="#231F20" stroke-width="1.5" stroke-linecap="round" stroke-linejoin="round"/>
<path opacity="0.4" d="M11.3333 8.93268H9.19998C7.59998 8.93268 7.06665 8.39935 7.06665 6.79935V4.66602L11.3333 8.93268Z" stroke="#231F20" stroke-width="1.5" stroke-linecap="round" stroke-linejoin="round"/>
<path d="M4.6665 3.33301C4.6665 2.22634 5.55984 1.33301 6.6665 1.33301H10.6665" stroke="#231F20" stroke-width="1.5" stroke-linecap="round" stroke-linejoin="round"/>
<path d="M14.6665 5.33301V9.45967C14.6665 10.493 13.8265 11.333 12.7932 11.333" stroke="#231F20" stroke-width="1.5" stroke-linecap="round" stroke-linejoin="round"/>
<path opacity="0.4" d="M14.6665 5.33301H12.6665C11.1665 5.33301 10.6665 4.83301 10.6665 3.33301V1.33301L14.6665 5.33301Z" stroke="#231F20" stroke-width="1.5" stroke-linecap="round" stroke-linejoin="round"/>
</svg>
