<svg width="24" height="24" viewBox="0 0 24 24" fill="none" xmlns="http://www.w3.org/2000/svg">
<path d="M14.4619 10.9157L14.4619 21.1686C14.4619 21.4913 14.3983 21.8109 14.2748 22.109C14.1513 22.4071 13.9703 22.678 13.7421 22.9062C13.5139 23.1344 13.243 23.3154 12.9449 23.4389C12.6467 23.5624 12.3272 23.626 12.0045 23.626C11.6818 23.626 11.3622 23.5624 11.0641 23.4389C10.766 23.3154 10.4951 23.1344 10.2669 22.9062C10.0387 22.678 9.85767 22.4071 9.73417 22.109C9.61068 21.8109 9.54712 21.4913 9.54712 21.1686L9.54712 10.9157C9.54712 10.8163 9.58663 10.7209 9.65695 10.6506C9.72728 10.5802 9.82266 10.5407 9.92212 10.5407L14.0869 10.5407C14.1863 10.5407 14.2817 10.5802 14.352 10.6506C14.4223 10.7209 14.4619 10.8163 14.4619 10.9157ZM10.2971 21.1686C10.2971 21.6214 10.477 22.0557 10.7972 22.3759C11.1174 22.6961 11.5517 22.876 12.0045 22.876C12.4573 22.876 12.8916 22.6961 13.2118 22.3759C13.532 22.0557 13.7119 21.6214 13.7119 21.1686L13.7119 11.2907L10.2971 11.2907L10.2971 21.1686Z" fill="white"/>
<path d="M16.8242 4.70313C16.8242 4.73671 16.8223 4.77026 16.8185 4.80363L16.814 4.83175L15.8964 9.71988C15.8436 10.1546 15.6329 10.5547 15.3045 10.8443C14.976 11.1339 14.5527 11.2928 14.1148 11.2908L9.89452 11.2908C9.45217 11.2911 9.02525 11.1282 8.69563 10.8331C8.36601 10.5381 8.1569 10.1318 8.1084 9.69213L7.19527 4.83175C7.17638 4.70128 7.18579 4.56827 7.22288 4.44177C7.25997 4.31526 7.32385 4.19822 7.4102 4.09861C7.49655 3.99899 7.60333 3.91913 7.72329 3.86446C7.84324 3.80978 7.97357 3.78158 8.1054 3.78175L15.9047 3.78175C16.0255 3.7817 16.1452 3.80547 16.2569 3.8517C16.3685 3.89793 16.47 3.96571 16.5555 4.05118C16.6409 4.13664 16.7087 4.23811 16.755 4.34978C16.8012 4.46145 16.825 4.58114 16.8249 4.702L16.8242 4.70313ZM16.0742 4.71138C16.077 4.68905 16.0746 4.66636 16.0671 4.64512C16.0596 4.62389 16.0473 4.60471 16.031 4.58913C16.0151 4.57135 15.9955 4.55714 15.9737 4.54745C15.9518 4.53775 15.9282 4.53279 15.9043 4.53288L8.10465 4.53288C8.08075 4.53279 8.0571 4.53775 8.03526 4.54745C8.01341 4.55714 7.99387 4.57135 7.9779 4.58913C7.96176 4.60686 7.94962 4.62786 7.94231 4.6507C7.935 4.67354 7.93268 4.69769 7.93552 4.7215L8.84902 9.5815C8.87279 9.84264 8.99297 10.0856 9.18612 10.2629C9.37928 10.4403 9.63156 10.5393 9.89378 10.5408L14.1148 10.5408C14.3725 10.541 14.6211 10.446 14.8131 10.2741C15.005 10.1022 15.1266 9.8654 15.1547 9.60925L16.0742 4.71138Z" fill="white"/>
<path opacity="0.4" d="M13.0659 13.046L13.0659 15.0887C13.0659 15.3701 12.9541 15.64 12.755 15.8391C12.556 16.0381 12.2861 16.1499 12.0046 16.1499C11.7231 16.1499 11.4532 16.0381 11.2542 15.8391C11.0552 15.64 10.9434 15.3701 10.9434 15.0887L10.9434 13.046C10.9434 12.7646 11.0552 12.4946 11.2542 12.2956C11.4532 12.0966 11.7231 11.9848 12.0046 11.9848C12.2861 11.9848 12.556 12.0966 12.755 12.2956C12.9541 12.4946 13.0659 12.7646 13.0659 13.046ZM11.6934 15.0887C11.6934 15.1712 11.7262 15.2504 11.7845 15.3087C11.8429 15.3671 11.9221 15.3999 12.0046 15.3999C12.0872 15.3999 12.1663 15.3671 12.2247 15.3087C12.2831 15.2504 12.3159 15.1712 12.3159 15.0887L12.3159 13.046C12.3159 12.9635 12.2831 12.8843 12.2247 12.8259C12.1663 12.7676 12.0872 12.7348 12.0046 12.7348C11.9221 12.7348 11.8429 12.7676 11.7845 12.8259C11.7262 12.8843 11.6934 12.9635 11.6934 13.046L11.6934 15.0887Z" fill="white"/>
<path d="M16.0654 8.78576C16.0653 8.8089 16.0632 8.83199 16.059 8.85476L15.8963 9.71988C15.8434 10.1546 15.6328 10.5547 15.3043 10.8443C14.9759 11.1339 14.5525 11.2928 14.1146 11.2908L9.89438 11.2908C9.45202 11.2911 9.0251 11.1282 8.69549 10.8331C8.36587 10.5381 8.15676 10.1318 8.10826 9.69213L7.95001 8.85476C7.93987 8.8006 7.94179 8.74488 7.95563 8.69155C7.96947 8.63823 7.99489 8.5886 8.03008 8.54622C8.06527 8.50383 8.10937 8.46971 8.15925 8.4463C8.20912 8.42289 8.26354 8.41075 8.31863 8.41076L15.6904 8.41076C15.7898 8.41076 15.8852 8.45027 15.9555 8.52059C16.0259 8.59092 16.0654 8.6863 16.0654 8.78576ZM8.77051 9.16076L8.84963 9.58151C8.8734 9.84265 8.99358 10.0856 9.18673 10.2629C9.37988 10.4403 9.63216 10.5393 9.89438 10.5408L14.1146 10.5408C14.3723 10.541 14.621 10.446 14.8129 10.2741C15.0048 10.1022 15.1265 9.8654 15.1545 9.60926L15.2385 9.15926L8.77051 9.16076Z" fill="white"/>
<path d="M12.3796 0.751036L12.3796 2.99316C12.3796 3.09262 12.3401 3.188 12.2698 3.25833C12.1995 3.32866 12.1041 3.36816 12.0046 3.36816C11.9052 3.36816 11.8098 3.32866 11.7395 3.25833C11.6691 3.188 11.6296 3.09262 11.6296 2.99316L11.6296 0.751036C11.6296 0.65158 11.6691 0.556197 11.7395 0.485871C11.8098 0.415544 11.9052 0.376036 12.0046 0.376036C12.1041 0.376036 12.1995 0.415544 12.2698 0.485871C12.3401 0.556197 12.3796 0.65158 12.3796 0.751036Z" fill="white"/>
<path d="M9.37961 2.99278C9.37959 3.07319 9.35372 3.15147 9.30581 3.21606C9.25791 3.28065 9.19051 3.32813 9.11357 3.3515C9.03662 3.37486 8.9542 3.37287 8.87847 3.34583C8.80275 3.31878 8.73772 3.2681 8.69298 3.20128L7.19298 0.959527C7.16458 0.91863 7.1446 0.872484 7.13422 0.823783C7.12384 0.775083 7.12326 0.724802 7.13252 0.675876C7.14177 0.626949 7.16069 0.580355 7.18814 0.538815C7.2156 0.497275 7.25106 0.461621 7.29245 0.43393C7.33383 0.40624 7.38032 0.387069 7.42919 0.377537C7.47807 0.368005 7.52835 0.368302 7.57711 0.378411C7.62587 0.38852 7.67212 0.408239 7.71318 0.436417C7.75423 0.464594 7.78927 0.500666 7.81623 0.542528L9.31623 2.78465C9.35761 2.84617 9.37967 2.91864 9.37961 2.99278Z" fill="white"/>
<path d="M16.8797 0.75101C16.8796 0.825124 16.8575 0.897547 16.8163 0.959135L15.3163 3.20089C15.2896 3.24339 15.2547 3.28012 15.2136 3.3089C15.1725 3.33767 15.1261 3.35791 15.077 3.36841C15.0279 3.37891 14.9773 3.37945 14.928 3.37002C14.8787 3.36058 14.8318 3.34135 14.7901 3.31347C14.7484 3.28559 14.7127 3.24962 14.6852 3.20769C14.6576 3.16577 14.6387 3.11874 14.6297 3.0694C14.6206 3.02005 14.6216 2.96939 14.6325 2.92041C14.6433 2.87143 14.6639 2.82514 14.693 2.78426L16.193 0.542136C16.2378 0.475284 16.3028 0.424595 16.3786 0.397555C16.4544 0.370515 16.5368 0.368558 16.6138 0.391971C16.6908 0.415384 16.7582 0.462927 16.806 0.527579C16.8539 0.592231 16.8797 0.670563 16.8797 0.75101Z" fill="white"/>
</svg>
