<svg width="16" height="16" viewBox="0 0 16 16" fill="none" xmlns="http://www.w3.org/2000/svg">
<path opacity="0.4" d="M2.06176 6.26931H13.9444" stroke="#514D56" stroke-width="1.2" stroke-linecap="round" stroke-linejoin="round"/>
<path opacity="0.4" fill-rule="evenodd" clip-rule="evenodd" d="M4.43859 8.87246C4.43859 8.54109 4.70722 8.27246 5.03859 8.27246H5.04477C5.37614 8.27246 5.64477 8.54109 5.64477 8.87246C5.64477 9.20383 5.37614 9.47246 5.04477 9.47246H5.03859C4.70722 9.47246 4.43859 9.20383 4.43859 8.87246ZM8.00307 8.27246C7.6717 8.27246 7.40307 8.54109 7.40307 8.87246C7.40307 9.20383 7.6717 9.47246 8.00307 9.47246H8.00925C8.34062 9.47246 8.60925 9.20383 8.60925 8.87246C8.60925 8.54109 8.34062 8.27246 8.00925 8.27246H8.00307ZM10.9614 8.27246C10.63 8.27246 10.3614 8.54109 10.3614 8.87246C10.3614 9.20383 10.63 9.47246 10.9614 9.47246H10.9676C11.2989 9.47246 11.5676 9.20383 11.5676 8.87246C11.5676 8.54109 11.2989 8.27246 10.9676 8.27246H10.9614ZM10.9614 10.8634C10.63 10.8634 10.3614 11.1321 10.3614 11.4634C10.3614 11.7948 10.63 12.0634 10.9614 12.0634H10.9676C11.2989 12.0634 11.5676 11.7948 11.5676 11.4634C11.5676 11.1321 11.2989 10.8634 10.9676 10.8634H10.9614ZM7.40307 11.4634C7.40307 11.1321 7.6717 10.8634 8.00307 10.8634H8.00925C8.34062 10.8634 8.60925 11.1321 8.60925 11.4634C8.60925 11.7948 8.34062 12.0634 8.00925 12.0634H8.00307C7.6717 12.0634 7.40307 11.7948 7.40307 11.4634ZM5.03859 10.8634C4.70722 10.8634 4.43859 11.1321 4.43859 11.4634C4.43859 11.7948 4.70722 12.0634 5.03859 12.0634H5.04477C5.37614 12.0634 5.64477 11.7948 5.64477 11.4634C5.64477 11.1321 5.37614 10.8634 5.04477 10.8634H5.03859Z" fill="#514D56"/>
<path d="M10.6958 1.33301V3.52686" stroke="#514D56" stroke-width="1.2" stroke-linecap="round" stroke-linejoin="round"/>
<path d="M5.31034 1.33301V3.52686" stroke="#514D56" stroke-width="1.2" stroke-linecap="round" stroke-linejoin="round"/>
<path fill-rule="evenodd" clip-rule="evenodd" d="M10.8255 2.38574H5.18064C3.22285 2.38574 2 3.47636 2 5.48109V11.5142C2 13.5504 3.22285 14.6663 5.18064 14.6663H10.8193C12.7833 14.6663 14 13.5694 14 11.5646V5.48109C14.0062 3.47636 12.7895 2.38574 10.8255 2.38574Z" stroke="#514D56" stroke-width="1.2" stroke-linecap="round" stroke-linejoin="round"/>
</svg>
