<svg width="16" height="16" viewBox="0 0 16 16" fill="none" xmlns="http://www.w3.org/2000/svg">
<path d="M10.7061 13.6433C10.6427 13.5797 10.5594 13.5453 10.4707 13.5453H9.46234C9.41322 13.5453 9.36669 13.5555 9.32428 13.5754L10.7061 13.6433ZM10.7061 13.6433C10.7689 13.7059 10.8035 13.7894 10.8035 13.8781L10.7061 13.6433ZM9.2974 14.0422L9.29728 14.0421C9.2534 13.9983 9.22931 13.9403 9.22931 13.8781C9.22931 13.7878 9.28226 13.7048 9.36607 13.6662L9.36677 13.6659C9.39531 13.6525 9.42725 13.6453 9.46234 13.6453H10.4707C10.5328 13.6453 10.5907 13.6691 10.6353 13.7139L10.6356 13.7141C10.6794 13.7579 10.7035 13.8159 10.7035 13.8781L10.7035 13.879C10.7037 13.8952 10.7019 13.9117 10.6988 13.9267C10.6763 14.033 10.5801 14.1111 10.4707 14.1111H9.46234C9.40042 14.1111 9.34247 14.0872 9.2974 14.0422ZM15.2707 8.62219C15.2707 8.03336 14.9291 7.52395 14.4349 7.27889C14.3668 5.76607 13.7468 4.35303 12.6692 3.27544C11.5246 2.1306 10.0028 1.5001 8.38536 1.5001C5.13865 1.5001 2.48233 4.06786 2.33608 7.27886C1.84163 7.52392 1.50001 8.03337 1.50001 8.62262V10.194C1.50001 11.0209 2.17252 11.6937 2.99962 11.6937C3.55428 11.6937 4.00521 11.2427 4.00521 10.6881V8.12839C4.00521 7.64018 3.65494 7.23742 3.19451 7.14641C3.40462 4.46624 5.65197 2.34927 8.38536 2.34927C9.7766 2.34927 11.0844 2.89137 12.069 3.87604C12.9515 4.75854 13.4766 5.90207 13.5752 7.14674C13.1153 7.23815 12.7657 7.64066 12.7657 8.12839V10.6879C12.7657 11.1822 13.1246 11.589 13.5936 11.673V12.2322C13.5936 12.9054 13.0457 13.4531 12.3726 13.4531H11.4629C11.4105 13.3285 11.3357 13.2124 11.2359 13.1131C11.0321 12.9085 10.76 12.7957 10.4709 12.7957H9.46255C9.30354 12.7957 9.15026 12.8295 9.00963 12.8949C8.62712 13.0708 8.38036 13.4564 8.38036 13.8777C8.38036 14.1668 8.49321 14.439 8.69753 14.6424C8.90171 14.847 9.17379 14.9599 9.46255 14.9599H10.4709C10.9081 14.9599 11.2949 14.6925 11.463 14.3023H12.3726C13.5143 14.3023 14.4428 13.3737 14.4428 12.2322V11.533C14.9328 11.2864 15.2707 10.7795 15.2707 10.1936V8.62219ZM3.15583 8.12839V10.6879C3.15583 10.774 3.08564 10.8443 2.9994 10.8443C2.64089 10.8443 2.34896 10.5523 2.34896 10.1938V8.6224C2.34896 8.2637 2.64087 7.97196 2.9994 7.97196C3.08564 7.97196 3.15583 8.04226 3.15583 8.12839ZM14.4215 10.1938C14.4215 10.5523 14.1296 10.8443 13.7711 10.8443C13.685 10.8443 13.6147 10.7741 13.6147 10.6879V8.12839C13.6147 8.04226 13.6849 7.97196 13.7711 7.97196C14.1296 7.97196 14.4215 8.26389 14.4215 8.6224V10.1938Z" fill="#A7A5A6" stroke="#A7A5A6" stroke-width="0.2"/>
<path opacity="0.4" d="M5.50001 8.99218C5.50001 9.63664 6.00332 10.1655 6.63761 10.2063V10.6985C6.63761 10.9639 6.79613 11.2002 7.04137 11.2998L7.04172 11.2999C7.12031 11.3315 7.20252 11.3474 7.28437 11.3474C7.45394 11.3474 7.61965 11.2802 7.74137 11.1547L8.69234 10.2089H10.1297C10.8007 10.2089 11.3464 9.66302 11.3464 8.99218V6.7168C11.3464 6.39257 11.2195 6.08675 10.9896 5.85688C10.7597 5.62701 10.4541 5.5001 10.1297 5.5001H6.7167C6.04568 5.5001 5.50001 6.04577 5.50001 6.7168V8.99218ZM8.28633 9.58744L8.28627 9.5875L7.36486 10.5039V9.84534C7.36486 9.64468 7.20225 9.4818 7.00133 9.4818H6.71688C6.44692 9.4818 6.22726 9.262 6.22726 8.99218V6.7168C6.22726 6.44682 6.4469 6.22717 6.71688 6.22717H10.1299C10.2602 6.22717 10.3826 6.27797 10.4757 6.37094C10.5688 6.46401 10.6195 6.58654 10.6195 6.7168V8.99218C10.6195 9.26214 10.3997 9.4818 10.1299 9.4818H8.54267C8.44649 9.4818 8.35441 9.51985 8.28633 9.58744Z" fill="#231F20" stroke="#231F20" stroke-width="0.2"/>
<path d="M7.1429 7.50757C6.92855 7.50757 6.75409 7.68221 6.75409 7.89638C6.75409 8.11054 6.92873 8.28518 7.1429 8.28518C7.35742 8.28518 7.53205 8.11054 7.53205 7.89638C7.53205 7.68221 7.35759 7.50757 7.1429 7.50757Z" fill="#A7A5A6"/>
<path d="M8.42299 7.50757C8.20864 7.50757 8.03418 7.68221 8.03418 7.89638C8.03418 8.11054 8.20882 8.28518 8.42299 8.28518C8.63768 8.28518 8.81215 8.11054 8.81215 7.89638C8.81215 7.68221 8.63768 7.50757 8.42299 7.50757Z" fill="#A7A5A6"/>
<path d="M9.70308 7.50757C9.48873 7.50757 9.31427 7.68221 9.31427 7.89638C9.31427 8.11054 9.48891 8.28518 9.70308 8.28518C9.9176 8.28518 10.0922 8.11054 10.0922 7.89638C10.0922 7.68221 9.9176 7.50757 9.70308 7.50757Z" fill="#A7A5A6"/>
</svg>
