<svg width="72" height="72" viewBox="0 0 72 72" fill="none" xmlns="http://www.w3.org/2000/svg">
<path fill-rule="evenodd" clip-rule="evenodd" d="M8.96984 14.6205C9.91882 13.0462 15.1506 7.3313 18.8787 7.50382C19.9941 7.59933 20.98 8.27095 21.7811 9.05348H21.7842C23.6205 10.8527 28.8892 17.6428 29.185 19.0723C29.9152 22.5783 25.7342 24.5993 27.0128 28.1331C30.2727 36.1093 35.8895 41.7257 43.8696 44.9821C47.4006 46.2637 49.4218 42.0861 52.9281 42.8132C54.3577 43.1121 61.1516 48.3772 62.9479 50.2164V50.2164C63.7274 51.0144 64.4052 52.0033 64.4977 53.1186C64.6363 57.0466 58.5665 62.3488 57.3834 63.0265C54.5919 65.026 50.95 64.989 46.5101 62.9249C34.121 57.7706 14.3217 38.346 9.07151 25.4897C7.06263 21.0749 6.92706 17.4087 8.96984 14.6205Z" stroke="#039BE5" stroke-width="3" stroke-linecap="round" stroke-linejoin="round"/>
<path opacity="0.4" d="M43.6962 8.25C54.8022 9.483 63.5712 18.243 64.8192 29.346" stroke="#039BE5" stroke-width="3" stroke-linecap="round" stroke-linejoin="round"/>
<path opacity="0.4" d="M43.6962 18.8789C49.0062 19.9139 53.1552 24.0629 54.1902 29.3729" stroke="#039BE5" stroke-width="3" stroke-linecap="round" stroke-linejoin="round"/>
</svg>
