<svg width="24" height="24" viewBox="0 0 24 24" fill="none" xmlns="http://www.w3.org/2000/svg">
<g opacity="0.5">
<path fill-rule="evenodd" clip-rule="evenodd" d="M16.6857 2H7.31429C4.04762 2 2 4.31208 2 7.58516V16.4148C2 19.6879 4.0381 22 7.31429 22H16.6857C19.9619 22 22 19.6879 22 16.4148V7.58516C22 4.31208 19.9619 2 16.6857 2Z" stroke="#231F20" stroke-width="1.5" stroke-linecap="round" stroke-linejoin="round"/>
<path opacity="0.4" d="M16.5602 11.0172C16.3253 10.9943 16.0888 10.9943 15.8539 11.0172C15.0953 11.1062 14.3927 11.461 13.8709 12.0188C13.3491 12.5766 13.0418 13.3012 13.0036 14.0641C12.966 14.8803 13.2261 15.6824 13.7357 16.3211L15.7733 18.9846C15.8243 19.0513 15.89 19.1054 15.9652 19.1426C16.0405 19.1798 16.1233 19.1992 16.2073 19.1992C16.2913 19.1992 16.3741 19.1798 16.4494 19.1426C16.5247 19.1054 16.5903 19.0513 16.6413 18.9846L18.6789 16.3211H18.6795C19.1886 15.6821 19.4486 14.8802 19.4113 14.0641C19.373 13.3011 19.0656 12.5764 18.5437 12.0186C18.0217 11.4608 17.3189 11.106 16.5602 11.0172V11.0172ZM17.8104 15.657L16.2073 17.7528L14.6042 15.657C14.2562 15.2293 14.0751 14.6899 14.0944 14.1388C14.1168 13.6339 14.3166 13.1531 14.6587 12.7811C15.0008 12.4091 15.4632 12.1698 15.9644 12.1053C16.0451 12.097 16.1262 12.0928 16.2073 12.0929C16.2883 12.0928 16.3692 12.0968 16.4497 12.1049C16.9511 12.1694 17.4136 12.4088 17.7557 12.7808C18.0979 13.1529 18.2978 13.6338 18.3202 14.1388C18.3396 14.6899 18.1584 15.2293 17.8104 15.657V15.657Z" fill="#231F20"/>
<path d="M16.2074 15.3721C16.8112 15.3721 17.3006 14.8826 17.3006 14.2788C17.3006 13.675 16.8112 13.1855 16.2074 13.1855C15.6036 13.1855 15.1141 13.675 15.1141 14.2788C15.1141 14.8826 15.6036 15.3721 16.2074 15.3721Z" fill="#231F20"/>
<line x1="2.14709" y1="5.26456" x2="22.1471" y2="9.26456" stroke="#231F20" stroke-width="1.5"/>
<line x1="10.7354" y1="7.14709" x2="7.73544" y2="22.1471" stroke="#231F20" stroke-width="1.5"/>
</g>
</svg>
