<svg width="24" height="24" viewBox="0 0 24 24" fill="none" xmlns="http://www.w3.org/2000/svg">
<path fill-rule="evenodd" clip-rule="evenodd" d="M6.28033 5.21991C5.98744 4.92702 5.51256 4.92702 5.21967 5.21991C4.92678 5.51281 4.92678 5.98768 5.21967 6.28057L11.1261 12.187L5.22036 18.0928C4.92747 18.3857 4.92747 18.8606 5.22036 19.1535C5.51326 19.4464 5.98813 19.4464 6.28102 19.1535L12.1868 13.2477L18.0926 19.1535C18.3855 19.4464 18.8604 19.4464 19.1532 19.1535C19.4461 18.8606 19.4461 18.3857 19.1532 18.0928L13.2475 12.187L19.1539 6.28057C19.4468 5.98768 19.4468 5.51281 19.1539 5.21991C18.861 4.92702 18.3862 4.92702 18.0933 5.21991L12.1868 11.1264L6.28033 5.21991Z" fill="#231F20"/>
</svg>
