<svg width="16" height="16" viewBox="0 0 16 16" fill="none" xmlns="http://www.w3.org/2000/svg">
<path d="M13.6066 4.63996V6.53329L4.93331 12.8933L3.17998 11.58C2.74664 11.2533 2.39331 10.5533 2.39331 10.0133V4.63996C2.39331 3.89329 2.96664 3.06663 3.66664 2.80663L7.31331 1.43996C7.69331 1.29996 8.30664 1.29996 8.68664 1.43996L12.3333 2.80663C13.0333 3.06663 13.6066 3.89329 13.6066 4.63996Z" fill="#34A853"/>
<path opacity="0.4" d="M13.6066 7.44629V10.013C13.6066 10.553 13.2533 11.253 12.82 11.5796L9.1733 14.3063C8.8533 14.5463 8.42663 14.6663 7.99996 14.6663C7.5733 14.6663 7.14663 14.5463 6.82663 14.3063L5.54663 13.353L13.6066 7.44629Z" fill="#34A853"/>
</svg>
