<svg width="64" height="64" viewBox="0 0 64 64" fill="none" xmlns="http://www.w3.org/2000/svg">
<path fill-rule="evenodd" clip-rule="evenodd" d="M32 2C48.5685 2 62 15.4315 62 32C62 48.5685 48.5685 62 32 62C15.4315 62 2 48.5685 2 32C2 15.4315 15.4315 2 32 2Z" stroke="#EC222D" stroke-width="4" stroke-linecap="round" stroke-linejoin="round"/>
<path d="M25.5726 39.8C25.2237 39.8 24.8748 39.6714 24.5994 39.3961C24.0668 38.8637 24.0668 37.9825 24.5994 37.4501L37.454 24.5992C37.9865 24.0669 38.868 24.0669 39.4005 24.5992C39.9331 25.1316 39.9331 26.0128 39.4005 26.5452L26.5459 39.3961C26.2705 39.6714 25.9216 39.8 25.5726 39.8Z" fill="#EC222D"/>
<path d="M38.4273 39.8C38.0784 39.8 37.7294 39.6714 37.454 39.3961L24.5994 26.5452C24.0668 26.0128 24.0668 25.1316 24.5994 24.5992C25.1319 24.0669 26.0134 24.0669 26.5459 24.5992L39.4005 37.4501C39.9331 37.9825 39.9331 38.8637 39.4005 39.3961C39.1251 39.6714 38.7762 39.8 38.4273 39.8Z" fill="#EC222D"/>
</svg>
