<svg width="72" height="72" viewBox="0 0 72 72" fill="none" xmlns="http://www.w3.org/2000/svg">
<path opacity="0.4" d="M33.7507 48.8088C33.7507 47.5668 34.7587 46.5408 36.0007 46.5408C37.2427 46.5408 38.2507 47.5338 38.2507 48.7758V48.8088C38.2507 50.0508 37.2427 51.0588 36.0007 51.0588C34.7587 51.0588 33.7507 50.0508 33.7507 48.8088Z" fill="#F9A825"/>
<path d="M14.387 61.2537H57.833C61.274 61.0737 63.92 58.1427 63.743 54.7017C63.704 54.0057 63.554 53.3187 63.29 52.6767L41.459 14.4687C39.791 11.4537 35.996 10.3617 32.981 12.0327C31.955 12.5967 31.109 13.4427 30.542 14.4687L8.71103 52.6767C7.41503 55.8687 8.95103 59.5047 12.14 60.8037C12.788 61.0647 13.472 61.2147 14.168 61.2537" stroke="#F9A825" stroke-width="3" stroke-linecap="round" stroke-linejoin="round"/>
<path opacity="0.4" d="M35.9697 40.1882V30.8882" stroke="#F9A825" stroke-width="3" stroke-linecap="round" stroke-linejoin="round"/>
</svg>
