<svg width="16" height="16" viewBox="0 0 16 16" fill="none" xmlns="http://www.w3.org/2000/svg">
<path fill-rule="evenodd" clip-rule="evenodd" d="M10.8896 1.83301H5.11027C3.09627 1.83301 1.8336 3.25901 1.8336 5.27701V10.7223C1.8336 12.7403 3.09027 14.1663 5.11027 14.1663H10.8889C12.9096 14.1663 14.1669 12.7403 14.1669 10.7223V5.27701C14.1669 3.25901 12.9096 1.83301 10.8896 1.83301Z" stroke="#514D56" stroke-opacity="0.4" stroke-width="1.2" stroke-linecap="round" stroke-linejoin="round"/>
<path fill-rule="evenodd" clip-rule="evenodd" d="M7.12821 7.99932C7.12821 8.68065 6.57554 9.23398 5.89354 9.23398C5.2122 9.23398 4.65954 8.68065 4.65954 7.99932C4.65954 7.31798 5.2122 6.76465 5.89354 6.76465C6.57554 6.76465 7.12821 7.31798 7.12821 7.99932Z" stroke="#514D56" stroke-width="1.2" stroke-linecap="round" stroke-linejoin="round"/>
<path d="M7.1282 8H11.3402V9.23467" stroke="#514D56" stroke-width="1.2" stroke-linecap="round" stroke-linejoin="round"/>
<path d="M9.4544 9.23369V7.99902" stroke="#514D56" stroke-width="1.2" stroke-linecap="round" stroke-linejoin="round"/>
</svg>
