<svg width="16" height="16" viewBox="0 0 16 16" fill="none" xmlns="http://www.w3.org/2000/svg">
<path fill-rule="evenodd" clip-rule="evenodd" d="M1.99355 3.24868C2.20443 2.89951 3.36633 1.6295 4.19547 1.66784C4.44333 1.68838 4.66243 1.83832 4.84044 2.01222C5.24919 2.41136 6.41931 3.921 6.48572 4.23868C6.64731 5.0178 5.71888 5.46693 6.00302 6.25221C6.72741 8.02475 7.97558 9.27285 9.74889 9.99652C10.5335 10.2806 10.9827 9.35227 11.7618 9.51453C12.0789 9.58094 13.5893 10.751 13.9884 11.1597C14.1616 11.3371 14.3123 11.5568 14.3328 11.8047C14.3636 12.6776 13.0148 13.8559 12.7519 14.0065C12.1316 14.4501 11.3223 14.4426 10.3357 13.9839C7.58257 12.8385 3.18284 8.5218 2.01615 5.66479C1.56974 4.68369 1.53893 3.86897 1.99355 3.24868Z" stroke="#514D56" stroke-width="1.2" stroke-linecap="round" stroke-linejoin="round"/>
<path opacity="0.4" d="M2.92193 2.53027L3.90126 3.98294" stroke="#514D56" stroke-width="1.2" stroke-linecap="round" stroke-linejoin="round"/>
<path opacity="0.4" d="M11.9095 12.0449L13.3682 13.1849" stroke="#514D56" stroke-width="1.2" stroke-linecap="round" stroke-linejoin="round"/>
</svg>
