<svg width="16" height="16" viewBox="0 0 16 16" fill="none" xmlns="http://www.w3.org/2000/svg">
<path d="M7.16667 1.63289C7.62667 1.23956 8.38 1.23956 8.84667 1.63289L9.9 2.53956C10.1 2.71289 10.4733 2.85289 10.74 2.85289H11.8733C12.58 2.85289 13.16 3.43289 13.16 4.13956V5.27289C13.16 5.53289 13.3 5.91289 13.4733 6.11289L14.38 7.16622C14.7733 7.62622 14.7733 8.37956 14.38 8.84622L13.4733 9.89956C13.3 10.0996 13.16 10.4729 13.16 10.7396V11.8729C13.16 12.5796 12.58 13.1596 11.8733 13.1596H10.74C10.48 13.1596 10.1 13.2996 9.9 13.4729L8.84667 14.3796C8.38667 14.7729 7.63334 14.7729 7.16667 14.3796L6.11334 13.4729C5.91334 13.2996 5.54 13.1596 5.27334 13.1596H4.12C3.41334 13.1596 2.83334 12.5796 2.83334 11.8729V10.7329C2.83334 10.4729 2.69334 10.0996 2.52667 9.89956L1.62667 8.83956C1.24 8.37956 1.24 7.63289 1.62667 7.17289L2.52667 6.11289C2.69334 5.91289 2.83334 5.53956 2.83334 5.27956V4.13289C2.83334 3.42622 3.41334 2.84622 4.12 2.84622H5.27334C5.53334 2.84622 5.91334 2.70622 6.11334 2.53289L7.16667 1.63289Z" fill="#03A9F4"/>
<path d="M7.19333 10.1129C7.06 10.1129 6.93333 10.0595 6.84 9.9662L5.22667 8.35286C5.03333 8.15953 5.03333 7.83953 5.22667 7.6462C5.42 7.45286 5.74 7.45286 5.93333 7.6462L7.19333 8.9062L10.06 6.03953C10.2533 5.8462 10.5733 5.8462 10.7667 6.03953C10.96 6.23286 10.96 6.55286 10.7667 6.7462L7.54666 9.9662C7.45333 10.0595 7.32666 10.1129 7.19333 10.1129Z" fill="white"/>
</svg>
