<svg width="16" height="16" viewBox="0 0 16 16" fill="none" xmlns="http://www.w3.org/2000/svg">
<path d="M7.99998 13.6663H4.66665C2.66665 13.6663 1.33331 12.6663 1.33331 10.333V5.66634C1.33331 3.33301 2.66665 2.33301 4.66665 2.33301H11.3333C13.3333 2.33301 14.6666 3.33301 14.6666 5.66634V7.66634" stroke="#514D56" stroke-width="1.2" stroke-miterlimit="10" stroke-linecap="round" stroke-linejoin="round"/>
<path opacity="0.4" d="M11.3334 6L9.24668 7.66667C8.56002 8.21333 7.43335 8.21333 6.74668 7.66667L4.66669 6" stroke="#514D56" stroke-width="1.2" stroke-miterlimit="10" stroke-linecap="round" stroke-linejoin="round"/>
<g opacity="0.4">
<path d="M12.8066 9.84685L10.4467 12.2069C10.3533 12.3002 10.2666 12.4735 10.2466 12.6002L10.12 13.5002C10.0733 13.8269 10.3 14.0535 10.6267 14.0069L11.5267 13.8802C11.6533 13.8602 11.8333 13.7735 11.92 13.6802L14.28 11.3202C14.6867 10.9135 14.88 10.4402 14.28 9.8402C13.6867 9.24686 13.2133 9.44018 12.8066 9.84685Z" stroke="#514D56" stroke-width="1.2" stroke-miterlimit="10" stroke-linecap="round" stroke-linejoin="round"/>
<path d="M12.4667 10.1865C12.6667 10.9065 13.2267 11.4665 13.9467 11.6665" stroke="#514D56" stroke-width="1.2" stroke-miterlimit="10" stroke-linecap="round" stroke-linejoin="round"/>
</g>
</svg>
