<svg width="16" height="16" viewBox="0 0 16 16" fill="none" xmlns="http://www.w3.org/2000/svg">
<path opacity="0.4" d="M2.06176 6.2698H13.9444" stroke="#231F20" stroke-width="1.2" stroke-linecap="round" stroke-linejoin="round"/>
<path opacity="0.4" fill-rule="evenodd" clip-rule="evenodd" d="M4.43859 8.87344C4.43859 8.54207 4.70722 8.27344 5.03859 8.27344H5.04477C5.37614 8.27344 5.64477 8.54207 5.64477 8.87344C5.64477 9.20481 5.37614 9.47344 5.04477 9.47344H5.03859C4.70722 9.47344 4.43859 9.20481 4.43859 8.87344ZM8.00307 8.27344C7.6717 8.27344 7.40307 8.54207 7.40307 8.87344C7.40307 9.20481 7.6717 9.47344 8.00307 9.47344H8.00925C8.34062 9.47344 8.60925 9.20481 8.60925 8.87344C8.60925 8.54207 8.34062 8.27344 8.00925 8.27344H8.00307ZM10.9614 8.27344C10.63 8.27344 10.3614 8.54207 10.3614 8.87344C10.3614 9.20481 10.63 9.47344 10.9614 9.47344H10.9676C11.2989 9.47344 11.5676 9.20481 11.5676 8.87344C11.5676 8.54207 11.2989 8.27344 10.9676 8.27344H10.9614ZM10.9614 10.8644C10.63 10.8644 10.3614 11.133 10.3614 11.4644C10.3614 11.7958 10.63 12.0644 10.9614 12.0644H10.9676C11.2989 12.0644 11.5676 11.7958 11.5676 11.4644C11.5676 11.133 11.2989 10.8644 10.9676 10.8644H10.9614ZM7.40307 11.4644C7.40307 11.133 7.6717 10.8644 8.00307 10.8644H8.00925C8.34062 10.8644 8.60925 11.133 8.60925 11.4644C8.60925 11.7958 8.34062 12.0644 8.00925 12.0644H8.00307C7.6717 12.0644 7.40307 11.7958 7.40307 11.4644ZM5.03859 10.8644C4.70722 10.8644 4.43859 11.133 4.43859 11.4644C4.43859 11.7958 4.70722 12.0644 5.03859 12.0644H5.04477C5.37614 12.0644 5.64477 11.7958 5.64477 11.4644C5.64477 11.133 5.37614 10.8644 5.04477 10.8644H5.03859Z" fill="#231F20"/>
<path d="M10.6958 1.3335V3.52735" stroke="#231F20" stroke-width="1.2" stroke-linecap="round" stroke-linejoin="round"/>
<path d="M5.31034 1.3335V3.52735" stroke="#231F20" stroke-width="1.2" stroke-linecap="round" stroke-linejoin="round"/>
<path fill-rule="evenodd" clip-rule="evenodd" d="M10.8255 2.38623H5.18064C3.22285 2.38623 2 3.47685 2 5.48158V11.5147C2 13.5509 3.22285 14.6668 5.18064 14.6668H10.8193C12.7833 14.6668 14 13.5698 14 11.5651V5.48158C14.0062 3.47685 12.7895 2.38623 10.8255 2.38623Z" stroke="#231F20" stroke-width="1.2" stroke-linecap="round" stroke-linejoin="round"/>
</svg>
