<svg width="16" height="16" viewBox="0 0 16 16" fill="none" xmlns="http://www.w3.org/2000/svg">
<g opacity="0.4">
<path d="M5.78125 9.55307C5.78125 10.4131 6.44125 11.1064 7.26125 11.1064H8.93458C9.64792 11.1064 10.2279 10.4997 10.2279 9.75307C10.2279 8.93973 9.87458 8.65307 9.34792 8.4664L6.66125 7.53307C6.13458 7.3464 5.78125 7.05973 5.78125 6.2464C5.78125 5.49973 6.36125 4.89307 7.07458 4.89307H8.74792C9.56792 4.89307 10.2279 5.5864 10.2279 6.4464" stroke="#231F20" stroke-width="1.2" stroke-linecap="round" stroke-linejoin="round"/>
<path d="M8 4V12" stroke="#231F20" stroke-width="1.2" stroke-linecap="round" stroke-linejoin="round"/>
</g>
<path d="M8 14.6668C11.6819 14.6668 14.6667 11.6821 14.6667 8.00016C14.6667 4.31826 11.6819 1.3335 8 1.3335C4.3181 1.3335 1.33333 4.31826 1.33333 8.00016C1.33333 11.6821 4.3181 14.6668 8 14.6668Z" stroke="#231F20" stroke-width="1.2" stroke-linecap="round" stroke-linejoin="round"/>
</svg>
