<svg width="16" height="16" viewBox="0 0 16 16" fill="none" xmlns="http://www.w3.org/2000/svg">
<path d="M14.4933 7.37968C14.46 7.03968 14.1733 6.78634 13.8333 6.78634H8.8C8.43333 6.78634 8.13333 7.08634 8.13333 7.453V8.59302C8.13333 8.95968 8.43333 9.25968 8.8 9.25968H11.8067C11.7333 9.87302 11.3333 10.7997 10.4467 11.4197C9.88 11.813 9.12667 12.0863 8.13333 12.0863C8.08667 12.0863 8.04667 12.0863 8 12.0797C6.3 12.0263 4.86 10.8863 4.34 9.31968C4.2 8.89968 4.12 8.45967 4.12 7.99967C4.12 7.53967 4.2 7.093 4.33334 6.67967C4.37334 6.55967 4.42 6.43968 4.47334 6.31968C5.08667 4.93968 6.42667 3.96634 8 3.91968C8.04 3.91301 8.08667 3.913 8.13333 3.913C9.08667 3.913 9.8 4.22633 10.3 4.573C10.56 4.753 10.9067 4.713 11.1333 4.493L12.06 3.58634C12.3533 3.29968 12.3267 2.813 11.9933 2.573C10.9333 1.793 9.64 1.33301 8.13333 1.33301C8.08667 1.33301 8.04667 1.33301 8 1.33968C5.44667 1.38635 3.25333 2.86635 2.18 5.00635C1.72667 5.91301 1.46667 6.92634 1.46667 7.99967C1.46667 9.07301 1.72667 10.0863 2.18 10.993H2.18667C3.26 13.133 5.45334 14.613 8 14.6597C8.04667 14.6663 8.08667 14.6663 8.13333 14.6663C9.93333 14.6663 11.4467 14.073 12.5467 13.053C13.8067 11.8863 14.5333 10.1797 14.5333 8.14634C14.5333 7.85968 14.52 7.61301 14.4933 7.37968Z" fill="#DB4437"/>
</svg>
