<svg width="14" height="14" viewBox="0 0 14 14" fill="none" xmlns="http://www.w3.org/2000/svg">
<path fill-rule="evenodd" clip-rule="evenodd" d="M7 1.16675C10.2217 1.16675 12.8333 3.77843 12.8333 7.00008C12.8333 10.2217 10.2217 12.8334 7 12.8334C3.77834 12.8334 1.16667 10.2217 1.16667 7.00008C1.16667 3.77843 3.77834 1.16675 7 1.16675Z" stroke="#EC222D" stroke-linecap="round" stroke-linejoin="round"/>
<path opacity="0.4" fill-rule="evenodd" clip-rule="evenodd" d="M5.85355 5.14669C5.65829 4.95143 5.34171 4.95143 5.14645 5.14669C4.95118 5.34195 4.95118 5.65854 5.14645 5.8538L6.09972 6.80707L5.14659 7.7602C4.95133 7.95546 4.95133 8.27204 5.14659 8.46731C5.34186 8.66257 5.65844 8.66257 5.8537 8.46731L6.80683 7.51418L7.75996 8.46731C7.95522 8.66257 8.2718 8.66257 8.46706 8.46731C8.66232 8.27204 8.66232 7.95546 8.46706 7.7602L7.51393 6.80707L8.46721 5.8538C8.66247 5.65854 8.66247 5.34195 8.46721 5.14669C8.27195 4.95143 7.95536 4.95143 7.7601 5.14669L6.80683 6.09997L5.85355 5.14669Z" fill="#EC222D"/>
</svg>
