<svg width="24" height="24" viewBox="0 0 24 24" fill="none" xmlns="http://www.w3.org/2000/svg">
<path d="M16.7524 21.3341C16.5949 21.3341 16.4341 21.3141 16.2747 21.2724L3.38781 17.8214C2.39368 17.5472 1.80117 16.5189 2.06118 15.5255L3.47784 10.093C3.56451 9.75957 3.9054 9.55708 4.24034 9.64634C4.57375 9.73302 4.77456 10.0747 4.68712 10.4088L3.27031 15.8423C3.18288 16.1772 3.38201 16.523 3.71542 16.6147L16.5949 20.0641C16.9257 20.1515 17.2674 19.9548 17.354 19.6257L17.7939 17.8506C17.8774 17.5156 18.2157 17.3122 18.5506 17.394C18.8857 17.4773 19.0899 17.8156 19.0074 18.1506L18.5658 19.934C18.3431 20.7782 17.5832 21.3341 16.7524 21.3341Z" fill="white"/>
<path d="M20.125 16.3337H7.20805C6.17394 16.3337 5.33301 15.4928 5.33301 14.4587V4.87504C5.33301 3.84093 6.17394 3 7.20805 3H20.125C21.1592 3 22.0001 3.84093 22.0001 4.87504V14.4587C22.0001 15.4928 21.1592 16.3337 20.125 16.3337ZM7.20805 4.25003C6.86304 4.25003 6.58304 4.53003 6.58304 4.87504V14.4587C6.58304 14.8037 6.86304 15.0837 7.20805 15.0837H20.125C20.4701 15.0837 20.7501 14.8037 20.7501 14.4587V4.87504C20.7501 4.53003 20.4701 4.25003 20.125 4.25003H7.20805Z" fill="white"/>
<path opacity="0.4" d="M5.97456 15.4836C5.81465 15.4836 5.65458 15.4227 5.53296 15.3003C5.28882 15.0562 5.28882 14.6602 5.53296 14.4161L9.29967 10.6493C9.86975 10.0793 10.7972 10.0793 11.3664 10.6493L12.3739 11.6569L15.4689 7.94178C15.7456 7.61004 16.1515 7.41839 16.5824 7.41595C17.0457 7.39016 17.4207 7.60089 17.6998 7.9285L21.8483 12.7685C22.0732 13.0302 22.0424 13.4253 21.7807 13.6502C21.5183 13.8753 21.1241 13.8445 20.899 13.5828L16.749 8.74105C16.6939 8.67513 16.6265 8.67848 16.589 8.66674C16.5532 8.66674 16.484 8.67757 16.429 8.74257L12.8956 12.9844C12.783 13.1193 12.619 13.2011 12.444 13.2086C12.2656 13.2185 12.0973 13.1502 11.9738 13.0261L10.4823 11.5344C10.3764 11.4285 10.2889 11.4285 10.183 11.5344L6.41631 15.3003C6.29455 15.4227 6.13463 15.4836 5.97456 15.4836Z" fill="white"/>
</svg>
