<svg width="16" height="16" viewBox="0 0 16 16" fill="none" xmlns="http://www.w3.org/2000/svg">
<path fill-rule="evenodd" clip-rule="evenodd" d="M12.5767 3.41601C12.868 3.51801 13.0627 3.79267 13.0627 4.10134V8.61667C13.0627 9.87867 12.604 11.0833 11.794 12.0167C11.3867 12.4867 10.8713 12.8527 10.324 13.1487L7.952 14.43L5.576 13.148C5.028 12.852 4.512 12.4867 4.104 12.016C3.29334 11.0827 2.83334 9.87734 2.83334 8.61401V4.10134C2.83334 3.79267 3.028 3.51801 3.31934 3.41601L7.70734 1.87401C7.86334 1.81934 8.03334 1.81934 8.18867 1.87401L12.5767 3.41601Z" stroke="#34A853" stroke-width="1.2" stroke-linecap="round" stroke-linejoin="round"/>
<path opacity="0.4" d="M6.215 7.94507L7.47634 9.20707L10.075 6.6084" stroke="#34A853" stroke-width="1.2" stroke-linecap="round" stroke-linejoin="round"/>
</svg>
