<svg width="16" height="16" viewBox="0 0 16 16" fill="none" xmlns="http://www.w3.org/2000/svg">
<path d="M14.6667 10.793C14.6667 13.2197 13.22 14.6663 10.7933 14.6663H10C9.63334 14.6663 9.33334 14.3663 9.33334 13.9997V10.153C9.33334 9.97302 9.48 9.81968 9.66 9.81968L10.8333 9.79968C10.9267 9.79302 11.0067 9.72635 11.0267 9.63302L11.26 8.35968C11.28 8.23968 11.1867 8.12634 11.06 8.12634L9.64 8.14634C9.45333 8.14634 9.30668 7.99968 9.30001 7.81968L9.27334 6.18634C9.27334 6.07967 9.36 5.98635 9.47333 5.98635L11.0733 5.95968C11.1867 5.95968 11.2733 5.87302 11.2733 5.75968L11.2467 4.15967C11.2467 4.04633 11.16 3.95968 11.0467 3.95968L9.24667 3.98635C8.14 4.00635 7.26001 4.91301 7.28001 6.01967L7.31334 7.85301C7.32 8.03967 7.17334 8.18635 6.98668 8.19301L6.18667 8.20634C6.07334 8.20634 5.98668 8.293 5.98668 8.40633L6.00668 9.67301C6.00668 9.78635 6.09333 9.87301 6.20667 9.87301L7.00668 9.85968C7.19334 9.85968 7.34 10.0063 7.34666 10.1863L7.40666 13.9863C7.41333 14.3597 7.11333 14.6663 6.73999 14.6663H5.20667C2.78 14.6663 1.33334 13.2197 1.33334 10.7863V5.20634C1.33334 2.77967 2.78 1.33301 5.20667 1.33301H10.7933C13.22 1.33301 14.6667 2.77967 14.6667 5.20634V10.793Z" fill="#4267B2"/>
</svg>
