<svg width="15" height="15" viewBox="0 0 15 15" fill="none" xmlns="http://www.w3.org/2000/svg">
<path d="M9.70612 12.6428C9.64271 12.5792 9.55941 12.5448 9.47069 12.5448H8.46231C8.41318 12.5448 8.36666 12.555 8.32425 12.5749L9.70612 12.6428ZM9.70612 12.6428C9.76887 12.7054 9.80349 12.7889 9.80349 12.8776L9.70612 12.6428ZM8.29737 13.0417L8.29724 13.0416C8.25337 12.9978 8.22928 12.9398 8.22928 12.8776C8.22928 12.7873 8.28223 12.7043 8.36604 12.6657L8.36674 12.6654C8.39528 12.652 8.42722 12.6448 8.46231 12.6448H9.47069C9.53279 12.6448 9.59062 12.6686 9.63529 12.7134L9.63553 12.7137C9.67941 12.7574 9.70349 12.8154 9.70349 12.8776L9.7035 12.8785C9.70364 12.8947 9.70186 12.9112 9.69872 12.9262C9.67628 13.0326 9.58004 13.1106 9.47069 13.1106H8.46231C8.40039 13.1106 8.34244 13.0868 8.29737 13.0417ZM14.2707 7.6217C14.2707 7.03287 13.9291 6.52346 13.4349 6.2784C13.3668 4.76558 12.7468 3.35254 11.6692 2.27495C10.5245 1.13012 9.00277 0.499609 7.38533 0.499609C4.13862 0.499609 1.4823 3.06737 1.33605 6.27837C0.8416 6.52343 0.499976 7.03288 0.499976 7.62213V9.19356C0.499976 10.0204 1.17249 10.6932 1.99959 10.6932C2.55425 10.6932 3.00518 10.2422 3.00518 9.68758V7.1279C3.00518 6.63969 2.65491 6.23693 2.19448 6.14592C2.40459 3.46575 4.65194 1.34878 7.38533 1.34878C8.77657 1.34878 10.0843 1.89088 11.069 2.87556C11.9515 3.75805 12.4766 4.90158 12.5752 6.14626C12.1153 6.23767 11.7657 6.64017 11.7657 7.1279V9.68736C11.7657 10.1817 12.1245 10.5885 12.5936 10.6725V11.2317C12.5936 11.9049 12.0457 12.4526 11.3725 12.4526H10.4628C10.4104 12.328 10.3356 12.2119 10.2359 12.1126C10.0321 11.908 9.76001 11.7952 9.4709 11.7952H8.46252C8.30351 11.7952 8.15023 11.829 8.0096 11.8945C7.62709 12.0703 7.38033 12.4559 7.38033 12.8772C7.38033 13.1663 7.49318 13.4385 7.6975 13.6419C7.90168 13.8465 8.17376 13.9594 8.46252 13.9594H9.4709C9.90811 13.9594 10.2949 13.692 10.463 13.3018H11.3725C12.5143 13.3018 13.4428 12.3733 13.4428 11.2317V10.5325C13.9328 10.2859 14.2707 9.77897 14.2707 9.19313V7.6217ZM2.1558 7.1279V9.68736C2.1558 9.77349 2.08561 9.84379 1.99937 9.84379C1.64086 9.84379 1.34893 9.55186 1.34893 9.19335V7.62192C1.34893 7.26321 1.64084 6.97147 1.99937 6.97147C2.08561 6.97147 2.1558 7.04177 2.1558 7.1279ZM13.4215 9.19335C13.4215 9.55186 13.1296 9.84379 12.7711 9.84379C12.6849 9.84379 12.6146 9.7736 12.6146 9.68736V7.1279C12.6146 7.04177 12.6848 6.97147 12.7711 6.97147C13.1296 6.97147 13.4215 7.26341 13.4215 7.62192V9.19335Z" fill="#514D56" stroke="#514D56" stroke-width="0.2"/>
<path opacity="0.4" d="M4.49998 7.99169C4.49998 8.63615 5.00329 9.16498 5.63758 9.20585V9.69801C5.63758 9.96338 5.7961 10.1997 6.04134 10.2993L6.04169 10.2994C6.12028 10.331 6.20249 10.3469 6.28434 10.3469C6.45391 10.3469 6.61962 10.2797 6.74134 10.1542L7.69231 9.20839H9.12967C9.80071 9.20839 10.3464 8.66254 10.3464 7.99169V5.71631C10.3464 5.39208 10.2195 5.08626 9.98959 4.85639C9.75972 4.62652 9.45408 4.49961 9.12967 4.49961H5.71667C5.04565 4.49961 4.49998 5.04528 4.49998 5.71631V7.99169ZM7.2863 8.58695L7.28624 8.58701L6.36483 9.50339V8.84485C6.36483 8.6442 6.20222 8.48132 6.0013 8.48132H5.71685C5.44689 8.48132 5.22723 8.26151 5.22723 7.99169V5.71631C5.22723 5.44633 5.44687 5.22669 5.71685 5.22669H9.12984C9.26016 5.22669 9.38255 5.27748 9.4757 5.37045C9.56877 5.46352 9.61947 5.58606 9.61947 5.71631V7.99169C9.61947 8.26165 9.39966 8.48132 9.12984 8.48132H7.54264C7.44646 8.48132 7.35438 8.51936 7.2863 8.58695Z" fill="#514D56" stroke="#514D56" stroke-width="0.2"/>
<path d="M6.1429 6.50684C5.92855 6.50684 5.75409 6.68147 5.75409 6.89564C5.75409 7.10981 5.92873 7.28445 6.1429 7.28445C6.35742 7.28445 6.53205 7.10981 6.53205 6.89564C6.53205 6.68147 6.35759 6.50684 6.1429 6.50684Z" fill="#514D56"/>
<path d="M7.42299 6.50684C7.20864 6.50684 7.03418 6.68147 7.03418 6.89564C7.03418 7.10981 7.20882 7.28445 7.42299 7.28445C7.63768 7.28445 7.81215 7.10981 7.81215 6.89564C7.81215 6.68147 7.63768 6.50684 7.42299 6.50684Z" fill="#514D56"/>
<path d="M8.70302 6.50684C8.48867 6.50684 8.31421 6.68147 8.31421 6.89564C8.31421 7.10981 8.48885 7.28445 8.70302 7.28445C8.91754 7.28445 9.09218 7.10981 9.09218 6.89564C9.09218 6.68147 8.91754 6.50684 8.70302 6.50684Z" fill="#514D56"/>
</svg>
