<svg width="32" height="33" viewBox="0 0 32 33" fill="none" xmlns="http://www.w3.org/2000/svg">
<rect y="0.5" width="32" height="32" rx="4" fill="#34A853" fill-opacity="0.1"/>
<path opacity="0.34" d="M21.6667 15.3335C22.6667 15.3335 22.6667 15.6668 22.6667 16.3335V17.6668C22.6667 18.3335 22.6667 18.6668 21.6667 18.6668" stroke="#34A853" stroke-width="1.2" stroke-linecap="round" stroke-linejoin="round"/>
<path opacity="0.34" d="M12.2534 15.6665C12.4734 16.5398 12.4734 17.4598 12.2534 18.3332" stroke="#34A853" stroke-width="1.2" stroke-linecap="round" stroke-linejoin="round"/>
<path opacity="0.34" d="M14.5867 15.6665C14.8067 16.5398 14.8067 17.4598 14.5867 18.3332" stroke="#34A853" stroke-width="1.2" stroke-linecap="round" stroke-linejoin="round"/>
<path opacity="0.34" d="M16.92 15.6665C17.14 16.5398 17.14 17.4598 16.92 18.3332" stroke="#34A853" stroke-width="1.2" stroke-linecap="round" stroke-linejoin="round"/>
<path d="M16.6666 21.6668H12.6666C9.99998 21.6668 9.33331 21.0002 9.33331 18.3335V15.6668C9.33331 13.0002 9.99998 12.3335 12.6666 12.3335H16.6666C19.3333 12.3335 20 13.0002 20 15.6668V18.3335C20 21.0002 19.3333 21.6668 16.6666 21.6668Z" stroke="#34A853" stroke-width="1.2" stroke-linecap="round" stroke-linejoin="round"/>
</svg>
