<svg width="16" height="16" viewBox="0 0 16 16" fill="none" xmlns="http://www.w3.org/2000/svg">
<path d="M10.7933 1.33398H5.20668C2.78001 1.33398 1.33334 2.78065 1.33334 5.20732V10.7873C1.33334 13.2207 2.78001 14.6673 5.20668 14.6673H10.7867C13.2133 14.6673 14.66 13.2207 14.66 10.794V5.20732C14.6667 2.78065 13.22 1.33398 10.7933 1.33398Z" fill="#FFCB05"/>
<path d="M5.88 6.50029C5.31333 6.50029 4.74667 6.28695 4.31333 5.85362C4.12 5.66029 4.12 5.34029 4.31333 5.14695C4.50667 4.95362 4.82667 4.95362 5.02 5.14695C5.49334 5.62029 6.26667 5.62029 6.74 5.14695C6.93333 4.95362 7.25333 4.95362 7.44667 5.14695C7.64 5.34029 7.64 5.66029 7.44667 5.85362C7.01334 6.28029 6.44667 6.50029 5.88 6.50029Z" fill="white"/>
<path d="M10.12 6.50029C9.55333 6.50029 8.98666 6.28695 8.55333 5.85362C8.35999 5.66029 8.35999 5.34029 8.55333 5.14695C8.74666 4.95362 9.06666 4.95362 9.25999 5.14695C9.73333 5.62029 10.5067 5.62029 10.98 5.14695C11.1733 4.95362 11.4933 4.95362 11.6867 5.14695C11.88 5.34029 11.88 5.66029 11.6867 5.85362C11.2533 6.28029 10.6867 6.50029 10.12 6.50029Z" fill="white"/>
<path d="M10.4 8.41406H5.59999C5.13333 8.41406 4.75333 8.79406 4.75333 9.2674C4.75333 11.0607 6.21333 12.5207 8.00666 12.5207C9.79999 12.5207 11.26 11.0607 11.26 9.2674C11.2533 8.80073 10.8667 8.41406 10.4 8.41406Z" fill="white"/>
</svg>
