<svg width="72" height="72" viewBox="0 0 72 72" fill="none" xmlns="http://www.w3.org/2000/svg">
<rect x="0.25" y="0.25" width="71.5" height="71.5" rx="9.75" fill="white" stroke="#DADADA" stroke-width="0.5"/>
<path opacity="0.4" d="M44.872 45.0151V32.5024H31.5074C31.1133 34.1209 30.2353 35.5807 28.9904 36.6874C27.7455 37.7942 26.1929 38.4952 24.5394 38.697V45.0151H44.872Z" fill="#EC222D"/>
<path d="M54.2564 35.6303V32.5021C54.2562 31.6727 53.9265 30.8773 53.3398 30.2908C52.7532 29.7044 51.9577 29.375 51.1283 29.375H31.6518C31.7094 29.7701 31.7384 30.1688 31.7387 30.5681C31.7387 30.6923 31.7355 30.8158 31.7293 30.9386H51.1283C51.543 30.9386 51.9407 31.1033 52.2339 31.3965C52.5271 31.6897 52.6918 32.0874 52.6918 32.5021V37.1928V45.0127C52.6918 45.4274 52.5271 45.8251 52.2339 46.1183C51.9407 46.4115 51.543 46.5762 51.1283 46.5762H24.5394C24.1241 46.5762 23.7258 46.4117 23.4316 46.1187C23.1374 45.8256 22.9712 45.4279 22.9696 45.0127V38.7333C22.4411 38.6969 21.9175 38.6093 21.406 38.4717V45.0116C21.406 45.8413 21.7356 46.6369 22.3222 47.2236C22.9089 47.8102 23.7045 48.1398 24.5342 48.1398H51.1283C51.9579 48.1398 52.7536 47.8102 53.3402 47.2236C53.9269 46.6369 54.2564 45.8413 54.2564 45.0116V41.8866C54.6711 41.8866 55.0688 41.7219 55.362 41.4287C55.6553 41.1354 55.82 40.7377 55.82 40.3231V37.1928C55.8197 36.7783 55.6549 36.3809 55.3617 36.0879C55.0685 35.7949 54.6709 35.6303 54.2564 35.6303Z" fill="#EC222D"/>
<path d="M23.834 37.6681C27.6084 37.6681 30.6681 34.6084 30.6681 30.834C30.6681 27.0597 27.6084 24 23.834 24C20.0597 24 17 27.0597 17 30.834C17 34.6084 20.0597 37.6681 23.834 37.6681Z" fill="#EC222D"/>
<path d="M24.6629 30.834L26.7759 28.7158C26.8303 28.6614 26.8735 28.5969 26.9029 28.5259C26.9323 28.4549 26.9475 28.3787 26.9475 28.3019C26.9475 28.225 26.9323 28.1489 26.9029 28.0778C26.8735 28.0068 26.8303 27.9423 26.7759 27.888C26.666 27.7783 26.5172 27.7168 26.362 27.7168C26.2068 27.7168 26.058 27.7783 25.9481 27.888L23.8351 30.002L21.721 27.888C21.6388 27.8061 21.534 27.7505 21.4201 27.7282C21.3062 27.7059 21.1883 27.718 21.0812 27.7628C20.9742 27.8077 20.8828 27.8833 20.8188 27.9801C20.7548 28.0769 20.7209 28.1905 20.7216 28.3066C20.7218 28.3827 20.7372 28.4581 20.7666 28.5283C20.7961 28.5985 20.8391 28.6622 20.8932 28.7158L23.0062 30.8298L20.8932 32.947C20.7834 33.0568 20.7218 33.2057 20.7218 33.3609C20.7218 33.5162 20.7834 33.6651 20.8932 33.7748C21.003 33.8846 21.1519 33.9463 21.3071 33.9463C21.4624 33.9463 21.6113 33.8846 21.721 33.7748L23.8351 31.6618L25.9512 33.7748C26.0056 33.8292 26.0701 33.8723 26.1411 33.9017C26.2121 33.9312 26.2883 33.9463 26.3651 33.9463C26.442 33.9463 26.5181 33.9312 26.5891 33.9017C26.6602 33.8723 26.7247 33.8292 26.779 33.7748C26.8334 33.7205 26.8765 33.656 26.9059 33.5849C26.9354 33.5139 26.9505 33.4378 26.9505 33.3609C26.9505 33.2841 26.9354 33.2079 26.9059 33.1369C26.8765 33.0659 26.8334 33.0014 26.779 32.947L24.6629 30.834Z" fill="white"/>
</svg>
