<svg width="12" height="15" viewBox="0 0 12 15" fill="none" xmlns="http://www.w3.org/2000/svg">
<ellipse opacity="0.4" cx="5.71935" cy="4.51836" rx="3.18535" ry="3.18535" stroke="#514D56" stroke-width="1.2" stroke-linecap="round" stroke-linejoin="round"/>
<path fill-rule="evenodd" clip-rule="evenodd" d="M0.666698 12.1337C0.665842 11.9098 0.715922 11.6886 0.813151 11.4869C1.11826 10.8767 1.97867 10.5532 2.69263 10.4068C3.20754 10.2969 3.72956 10.2235 4.2548 10.1871C5.22725 10.1017 6.20531 10.1017 7.17776 10.1871C7.70296 10.2239 8.22494 10.2973 8.73992 10.4068C9.45388 10.5532 10.3143 10.8462 10.6194 11.4869C10.8149 11.8981 10.8149 12.3755 10.6194 12.7867C10.3143 13.4274 9.45388 13.7203 8.73992 13.8606C8.22562 13.9751 7.70342 14.0506 7.17776 14.0864C6.38627 14.1535 5.59108 14.1658 4.7979 14.123C4.61483 14.123 4.43787 14.123 4.2548 14.0864C3.73111 14.051 3.2109 13.9755 2.69873 13.8606C1.97867 13.7203 1.12436 13.4274 0.813151 12.7867C0.716419 12.5826 0.666388 12.3595 0.666698 12.1337Z" stroke="#514D56" stroke-width="1.2" stroke-linecap="round" stroke-linejoin="round"/>
</svg>
