<svg width="16" height="16" viewBox="0 0 16 16" fill="none" xmlns="http://www.w3.org/2000/svg">
<path d="M5.33332 14.6667H10.6667C13.3467 14.6667 13.8267 13.5933 13.9667 12.2867L14.4667 6.95333C14.6467 5.32667 14.18 4 11.3333 4H4.66665C1.81999 4 1.35332 5.32667 1.53332 6.95333L2.03332 12.2867C2.17332 13.5933 2.65332 14.6667 5.33332 14.6667Z" stroke="#514D56" stroke-width="1.2" stroke-miterlimit="10" stroke-linecap="round" stroke-linejoin="round"/>
<path opacity="0.4" d="M5.33331 3.99967V3.46634C5.33331 2.28634 5.33331 1.33301 7.46665 1.33301H8.53331C10.6666 1.33301 10.6666 2.28634 10.6666 3.46634V3.99967" stroke="#514D56" stroke-width="1.2" stroke-miterlimit="10" stroke-linecap="round" stroke-linejoin="round"/>
<g opacity="0.4">
<path d="M9.33335 8.66667V9.33333C9.33335 9.34 9.33335 9.34 9.33335 9.34667C9.33335 10.0733 9.32669 10.6667 8.00002 10.6667C6.68002 10.6667 6.66669 10.08 6.66669 9.35333V8.66667C6.66669 8 6.66669 8 7.33335 8H8.66669C9.33335 8 9.33335 8 9.33335 8.66667Z" stroke="#514D56" stroke-width="1.2" stroke-miterlimit="10" stroke-linecap="round" stroke-linejoin="round"/>
<path d="M14.4333 7.33301C12.8933 8.45301 11.1333 9.11967 9.33331 9.34634" stroke="#514D56" stroke-width="1.2" stroke-miterlimit="10" stroke-linecap="round" stroke-linejoin="round"/>
<path d="M1.74609 7.5127C3.24609 8.53936 4.93943 9.15936 6.66609 9.35269" stroke="#514D56" stroke-width="1.2" stroke-miterlimit="10" stroke-linecap="round" stroke-linejoin="round"/>
</g>
</svg>
