<svg width="72" height="72" viewBox="0 0 72 72" fill="none" xmlns="http://www.w3.org/2000/svg">
<rect x="0.25" y="0.25" width="71.5" height="71.5" rx="9.75" fill="white" stroke="#DADADA" stroke-width="0.5"/>
<path d="M30.6712 30.8367C30.6714 29.4846 30.2707 28.1629 29.5196 27.0386C28.7686 25.9143 27.7011 25.038 26.452 24.5205C25.2029 24.003 23.8284 23.8676 22.5023 24.1313C21.1762 24.395 19.9581 25.0461 19.0021 26.0021C18.0461 26.9581 17.395 28.1762 17.1313 29.5023C16.8676 30.8284 17.003 32.2029 17.5205 33.452C18.038 34.7011 18.9143 35.7686 20.0386 36.5196C21.1629 37.2707 22.4846 37.6714 23.8367 37.6712C24.7342 37.6712 25.6229 37.4944 26.4521 37.151C27.2813 36.8075 28.0348 36.3041 28.6694 35.6694C29.3041 35.0348 29.8075 34.2813 30.151 33.4521C30.4944 32.6229 30.6712 31.7342 30.6712 30.8367V30.8367ZM27.4172 29.162L23.172 33.4072C23.0531 33.5258 22.892 33.5925 22.7241 33.5925C22.5561 33.5925 22.395 33.5258 22.2761 33.4072L20.2551 31.3861C20.1963 31.3273 20.1497 31.2575 20.1179 31.1807C20.0862 31.1038 20.0698 31.0215 20.0699 30.9383C20.0699 30.8552 20.0863 30.7729 20.1182 30.6961C20.1501 30.6193 20.1968 30.5495 20.2556 30.4907C20.3144 30.432 20.3842 30.3854 20.4611 30.3536C20.5379 30.3218 20.6202 30.3055 20.7034 30.3056C20.7865 30.3056 20.8689 30.322 20.9457 30.3539C21.0225 30.3858 21.0922 30.4324 21.151 30.4913L22.7209 32.0612L26.5192 28.263C26.578 28.2042 26.6477 28.1576 26.7245 28.1258C26.8013 28.094 26.8835 28.0776 26.9666 28.0776C27.0497 28.0776 27.132 28.094 27.2088 28.1258C27.2856 28.1576 27.3553 28.2042 27.4141 28.263C27.4728 28.3217 27.5194 28.3915 27.5512 28.4683C27.583 28.545 27.5994 28.6273 27.5994 28.7104C27.5994 28.7935 27.583 28.8758 27.5512 28.9526C27.5194 29.0293 27.4728 29.0991 27.4141 29.1578L27.4172 29.162Z" fill="#34A853"/>
<path opacity="0.4" d="M44.8752 45.0185V32.5049H31.5096C31.1155 34.1234 30.2374 35.5834 28.9924 36.6902C27.7474 37.797 26.1946 38.4981 24.5411 38.6999V45.0185H44.8752Z" fill="#34A853"/>
<path d="M54.2603 35.6332V32.5048C54.2601 31.6753 53.9303 30.8798 53.3437 30.2934C52.757 29.7069 51.9615 29.3774 51.1319 29.3774H31.654C31.7116 29.7726 31.7406 30.1713 31.7408 30.5706C31.7408 30.6948 31.7377 30.8183 31.7314 30.9411H51.1319C51.5467 30.9411 51.9444 31.1059 52.2376 31.3991C52.5309 31.6924 52.6956 32.0901 52.6956 32.5048V37.1958V45.0163C52.6956 45.4311 52.5309 45.8288 52.2376 46.122C51.9444 46.4153 51.5467 46.58 51.1319 46.58H24.541C24.1257 46.58 23.7273 46.4155 23.4331 46.1224C23.1388 45.8293 22.9727 45.4316 22.971 45.0163V38.7365C22.4426 38.7001 21.9189 38.6124 21.4073 38.4748V45.0153C21.4073 45.845 21.7369 46.6407 22.3236 47.2274C22.9103 47.8141 23.7061 48.1437 24.5358 48.1437H51.1319C51.9616 48.1437 52.7574 47.8141 53.3441 47.2274C53.9307 46.6407 54.2603 45.845 54.2603 45.0153V41.89C54.6751 41.89 55.0728 41.7253 55.366 41.432C55.6593 41.1388 55.824 40.7411 55.824 40.3263V37.1958C55.8237 36.7813 55.6589 36.3839 55.3657 36.0908C55.0724 35.7978 54.6749 35.6332 54.2603 35.6332V35.6332Z" fill="#34A853"/>
</svg>
