<svg width="251" height="260" viewBox="0 0 251 260" fill="none" xmlns="http://www.w3.org/2000/svg">
<path d="M179.599 196.336L113.052 196.289C109.209 196.286 105.525 194.753 102.808 192.028C100.092 189.302 98.5658 185.608 98.5658 181.755V14.5219C98.5673 12.6108 98.9448 10.7188 99.6767 8.95422C100.409 7.18959 101.48 5.58698 102.831 4.23812C104.181 2.88926 105.784 1.82063 107.547 1.09341C109.31 0.366188 111.199 -0.00535175 113.105 5.82411e-05L179.652 0.0411964C183.495 0.044312 187.18 1.5769 189.896 4.30214C192.613 7.02738 194.139 10.7223 194.139 14.5748L194.103 181.802C194.104 183.711 193.729 185.602 193.001 187.366C192.272 189.13 191.204 190.733 189.857 192.083C188.51 193.432 186.91 194.503 185.15 195.233C183.39 195.962 181.504 196.337 179.599 196.336Z" fill="#455A64"/>
<path d="M179.582 5.95903H166.684C166.263 5.96819 165.849 6.06029 165.464 6.23007C165.079 6.39984 164.731 6.64397 164.441 6.94851C164.15 7.25304 163.922 7.61201 163.77 8.0049C163.617 8.3978 163.544 8.81693 163.553 9.23834V11.5891C163.562 12.0105 163.489 12.4296 163.337 12.8225C163.184 13.2154 162.956 13.5744 162.666 13.8789C162.375 14.1835 162.027 14.4276 161.642 14.5974C161.257 14.7672 160.843 14.8593 160.422 14.8684H135.272C134.422 14.8484 133.615 14.4911 133.028 13.8752C132.441 13.2592 132.122 12.4349 132.141 11.5832V9.23246C132.16 8.38082 131.841 7.55648 131.254 6.94051C130.667 6.32454 129.86 5.96731 129.01 5.94727H113.181C111.848 5.94573 110.527 6.20772 109.294 6.71826C108.062 7.22881 106.941 7.9779 105.998 8.92269C105.054 9.86749 104.306 10.9895 103.795 12.2245C103.284 13.4595 103.021 14.7833 103.021 16.1202L102.992 179.351C102.992 182.049 104.06 184.636 105.962 186.545C107.864 188.453 110.443 189.527 113.134 189.53L179.546 189.565C180.88 189.567 182.201 189.305 183.434 188.794C184.666 188.284 185.786 187.535 186.73 186.59C187.673 185.645 188.422 184.523 188.933 183.288C189.444 182.053 189.706 180.729 189.706 179.392V16.1613C189.713 13.4628 188.65 10.8722 186.751 8.95901C184.852 7.04588 182.274 5.96681 179.582 5.95903Z" fill="#FAFAFA"/>
<path d="M168.044 11.2544H167.305V12.2887H168.044V11.2544Z" fill="#263238"/>
<path d="M169.246 10.7959H168.507V12.2945H169.246V10.7959Z" fill="#263238"/>
<path d="M170.442 10.4492H169.703V12.2946H170.442V10.4492Z" fill="#263238"/>
<path d="M171.644 9.7793H170.905V12.2946H171.644V9.7793Z" fill="#263238"/>
<path d="M182.531 12.3416H178.831C178.761 12.3416 178.693 12.3139 178.643 12.2645C178.592 12.2151 178.563 12.1478 178.562 12.0771V10.2318C178.562 10.1616 178.589 10.0944 178.639 10.0448C178.688 9.99518 178.755 9.96732 178.825 9.96732H182.531C182.546 9.96142 182.562 9.96142 182.577 9.96732C182.582 9.98458 182.582 10.0029 182.577 10.0202V10.6079H182.976C182.995 10.6079 183.013 10.6153 183.026 10.6286C183.039 10.6418 183.046 10.6597 183.046 10.6784V11.5658C183.045 11.5835 183.037 11.6 183.024 11.6119C183.011 11.6239 182.994 11.6305 182.976 11.6305H182.577V12.2182C182.594 12.2244 182.607 12.2369 182.614 12.2529C182.621 12.2688 182.622 12.287 182.616 12.3034C182.609 12.3198 182.597 12.333 182.581 12.3401C182.565 12.3473 182.547 12.3478 182.531 12.3416ZM182.46 10.1025H178.825C178.808 10.1025 178.792 10.1058 178.776 10.1123C178.76 10.1188 178.746 10.1283 178.734 10.1404C178.722 10.1524 178.713 10.1666 178.706 10.1823C178.7 10.198 178.696 10.2148 178.696 10.2318V12.0771C178.696 12.0946 178.7 12.1119 178.707 12.128C178.714 12.1441 178.724 12.1586 178.736 12.1707C178.749 12.1828 178.764 12.1922 178.78 12.1983C178.796 12.2045 178.814 12.2072 178.831 12.2064H182.46V11.6187C182.46 11.6 182.468 11.5821 182.481 11.5689C182.494 11.5556 182.512 11.5482 182.531 11.5482H182.923V10.7783H182.531C182.522 10.7791 182.513 10.7781 182.504 10.7752C182.496 10.7723 182.488 10.7677 182.481 10.7616C182.474 10.7555 182.469 10.7481 182.466 10.7399C182.462 10.7316 182.46 10.7227 182.46 10.7137V10.1025Z" fill="#263238"/>
<path d="M179.001 11.9068V10.4082H182.161V11.084V11.231V11.9068H179.001Z" fill="#263238"/>
<path d="M175.196 12.2005C175.195 12.1293 175.166 12.0614 175.116 12.011C175.066 11.9606 174.998 11.9317 174.927 11.9302C174.855 11.9302 174.787 11.9587 174.736 12.0094C174.685 12.0601 174.657 12.1288 174.657 12.2005C174.656 12.2362 174.663 12.2717 174.676 12.3049C174.689 12.3381 174.709 12.3682 174.734 12.3935C174.759 12.4187 174.79 12.4386 174.823 12.4519C174.856 12.4652 174.891 12.4717 174.927 12.4709C174.998 12.4709 175.067 12.4424 175.117 12.3917C175.168 12.341 175.196 12.2722 175.196 12.2005Z" fill="#263238"/>
<path d="M173.977 11.5481L174.323 11.8949C174.399 11.816 174.49 11.7532 174.591 11.7103C174.691 11.6675 174.8 11.6454 174.909 11.6454C175.019 11.6454 175.127 11.6675 175.228 11.7103C175.328 11.7532 175.419 11.816 175.495 11.8949L175.841 11.5481C175.718 11.4249 175.572 11.3276 175.411 11.262C175.25 11.1963 175.077 11.1638 174.903 11.1661C174.556 11.1664 174.224 11.3037 173.977 11.5481Z" fill="#263238"/>
<path d="M174.903 10.3903C174.356 10.3837 173.829 10.5951 173.438 10.978L173.778 11.3247C174.076 11.0279 174.48 10.8614 174.9 10.8614C175.321 10.8614 175.725 11.0279 176.023 11.3247L176.369 10.978C175.977 10.5962 175.45 10.385 174.903 10.3903Z" fill="#263238"/>
<path d="M172.851 10.4373L173.197 10.784C173.644 10.3369 174.249 10.0857 174.88 10.0857C175.511 10.0857 176.116 10.3369 176.562 10.784L176.908 10.4373C176.37 9.89897 175.64 9.59668 174.88 9.59668C174.119 9.59668 173.39 9.89897 172.851 10.4373Z" fill="#263238"/>
<path d="M150.796 26.27H146.329C146.021 26.27 145.772 26.52 145.772 26.8283V29.8667C145.772 30.175 146.021 30.425 146.329 30.425H150.796C151.104 30.425 151.353 30.175 151.353 29.8667V26.8283C151.353 26.52 151.104 26.27 150.796 26.27Z" fill="#263238"/>
<path d="M147.003 26.5403H146.417V25.8586C146.401 25.567 146.446 25.2754 146.546 25.0016C146.647 24.7277 146.803 24.4772 147.003 24.2655C147.204 24.0537 147.445 23.8851 147.712 23.7699C147.98 23.6546 148.268 23.5952 148.559 23.5952C148.851 23.5952 149.139 23.6546 149.406 23.7699C149.674 23.8851 149.915 24.0537 150.116 24.2655C150.316 24.4772 150.472 24.7277 150.572 25.0016C150.673 25.2754 150.717 25.567 150.702 25.8586V26.3052H150.116V25.8586C150.129 25.6456 150.098 25.4322 150.026 25.2316C149.954 25.0309 149.841 24.8472 149.695 24.6918C149.55 24.5363 149.374 24.4125 149.178 24.3278C148.983 24.2432 148.772 24.1995 148.559 24.1995C148.347 24.1995 148.136 24.2432 147.941 24.3278C147.745 24.4125 147.569 24.5363 147.423 24.6918C147.278 24.8472 147.165 25.0309 147.093 25.2316C147.02 25.4322 146.99 25.6456 147.003 25.8586V26.5403Z" fill="#263238"/>
<path d="M103.672 129.227C103.729 123.944 105.179 118.769 107.875 114.228C110.57 109.687 114.415 105.94 119.021 103.369C125.469 99.8429 132.985 98.9262 140.155 97.2747C147.325 95.6233 154.759 92.8964 159.191 87.0137C165.183 79.0622 164.04 67.7609 168.366 58.8045C170.378 54.7607 173.43 51.3285 177.207 48.8624C180.985 46.3963 185.35 44.9857 189.853 44.7764V181.42C189.853 183.623 188.98 185.735 187.427 187.292C185.873 188.849 183.766 189.724 181.569 189.724H111.968C110.879 189.725 109.801 189.511 108.795 189.094C107.789 188.677 106.875 188.066 106.104 187.295C105.334 186.523 104.723 185.608 104.305 184.6C103.888 183.592 103.673 182.512 103.672 181.42V129.227Z" fill="#EBEBEB"/>
<path d="M118.329 58.0583C118.329 52.9924 120.979 49.9717 124.655 49.9717C128.331 49.9717 130.998 52.9924 130.998 58.0583C130.998 63.1242 128.325 66.1508 124.655 66.1508C120.985 66.1508 118.329 63.1242 118.329 58.0583ZM129.321 58.0583C129.321 53.8093 127.416 51.4703 124.631 51.4703C121.846 51.4703 119.941 53.8211 119.941 58.0583C119.941 62.2955 121.846 64.6522 124.631 64.6522C127.416 64.6522 129.333 62.2955 129.333 58.0583H129.321Z" fill="#263238"/>
<path d="M144.793 57.9232C144.793 63.33 141.861 66.1509 137.541 66.1509C136.231 66.2068 134.931 65.9084 133.777 65.287L134.433 63.9705C135.368 64.5118 136.439 64.771 137.517 64.7169C140.941 64.7169 143.14 62.5131 143.14 58.1935C143.14 57.8351 143.14 57.3767 143.069 56.9006C142.278 58.6637 140.419 59.6275 138.221 59.6275C135.067 59.6275 132.868 57.7645 132.868 54.8555C132.868 51.9464 135.213 49.9718 138.285 49.9718C142.5 49.9541 144.793 52.8926 144.793 57.9232ZM142.547 54.7673C142.547 53.0042 141.099 51.3587 138.356 51.3587C136.063 51.3587 134.48 52.6986 134.48 54.8085C134.48 56.9183 136.022 58.2406 138.467 58.2406C140.912 58.2406 142.547 56.742 142.547 54.7673Z" fill="#263238"/>
<path d="M147.173 55.1955C147.166 55.0342 147.192 54.8732 147.249 54.7224C147.307 54.5716 147.394 54.4344 147.507 54.3191C147.62 54.2039 147.755 54.1132 147.904 54.0526C148.054 53.9921 148.214 53.963 148.375 53.9672C148.536 53.9664 148.695 53.9977 148.844 54.0592C148.992 54.1207 149.127 54.2113 149.241 54.3256C149.354 54.4398 149.444 54.5756 149.505 54.7249C149.565 54.8743 149.596 55.0342 149.594 55.1955C149.597 55.5233 149.471 55.8391 149.242 56.0737C149.014 56.3083 148.702 56.4426 148.375 56.4472C148.214 56.445 148.055 56.4107 147.907 56.3464C147.759 56.2821 147.625 56.189 147.513 56.0726C147.402 55.9562 147.314 55.8188 147.256 55.6682C147.197 55.5177 147.169 55.357 147.173 55.1955ZM147.173 64.8747C147.166 64.7135 147.192 64.5524 147.249 64.4017C147.307 64.2509 147.394 64.1136 147.507 63.9984C147.62 63.8831 147.755 63.7924 147.904 63.7319C148.054 63.6713 148.214 63.6423 148.375 63.6465C148.536 63.6457 148.695 63.6769 148.844 63.7385C148.992 63.8 149.127 63.8905 149.241 64.0048C149.354 64.1191 149.444 64.2549 149.505 64.4042C149.565 64.5536 149.596 64.7135 149.594 64.8747C149.597 65.2026 149.471 65.5184 149.242 65.753C149.014 65.9875 148.702 66.1219 148.375 66.1265C148.214 66.1242 148.055 66.0899 147.907 66.0256C147.759 65.9613 147.625 65.8683 147.513 65.7519C147.402 65.6355 147.314 65.498 147.256 65.3475C147.197 65.1969 147.169 65.0362 147.173 64.8747Z" fill="#263238"/>
<path d="M162.791 64.5582V66.0157H151.652V64.8403L158.248 58.3757C160.042 56.6126 160.382 55.5371 160.382 54.444C160.382 52.6046 159.086 51.4703 156.665 51.4703C155.857 51.4195 155.048 51.5516 154.298 51.8568C153.548 52.162 152.876 52.6325 152.332 53.2334L151.16 52.2284C152.385 50.7769 154.355 49.96 156.782 49.96C160.001 49.96 162.058 51.5937 162.058 54.2501C162.058 55.7781 161.583 57.1415 159.449 59.2278L154.056 64.517L162.791 64.5582Z" fill="#263238"/>
<path d="M164.737 58.0583C164.737 52.9924 167.387 49.9717 171.063 49.9717C174.739 49.9717 177.407 52.9924 177.407 58.0583C177.407 63.1242 174.733 66.1508 171.063 66.1508C167.393 66.1508 164.737 63.1242 164.737 58.0583ZM175.73 58.0583C175.73 53.8093 173.825 51.4703 171.04 51.4703C168.255 51.4703 166.35 53.8211 166.35 58.0583C166.35 62.2955 168.296 64.6463 171.093 64.6463C173.889 64.6463 175.73 62.2955 175.73 58.0583Z" fill="#263238"/>
<path d="M130.472 37.8597C131.801 31.6592 127.864 25.5523 121.679 24.2196C115.493 22.8869 109.401 26.8331 108.072 33.0337C106.743 39.2342 110.679 45.3411 116.865 46.6738C123.05 48.0064 129.142 44.0603 130.472 37.8597Z" fill="#E0E0E0"/>
<path d="M202.194 76H91.3546C89.1075 76 87.2859 77.826 87.2859 80.0786V110.157C87.2859 112.409 89.1075 114.235 91.3546 114.235H202.194C204.441 114.235 206.262 112.409 206.262 110.157V80.0786C206.262 77.826 204.441 76 202.194 76Z" fill="white"/>
<path d="M202.164 114.235C202.428 114.218 202.69 114.186 202.95 114.141C203.712 113.986 204.413 113.613 204.967 113.066C205.379 112.673 205.699 112.193 205.905 111.661C206.144 111.016 206.242 110.326 206.192 109.64C206.192 108.141 206.192 106.407 206.192 104.462C206.192 100.56 206.192 95.7937 206.192 90.2635C206.192 87.4955 206.192 84.5336 206.192 81.3953C206.243 80.6089 206.196 79.8192 206.051 79.0445C205.844 78.2559 205.398 77.5506 204.776 77.0247C204.154 76.4989 203.385 76.1781 202.575 76.1061C201.748 76.0708 200.875 76.1061 200.007 76.1061L91.3605 76.1531C90.7207 76.1536 90.0907 76.311 89.5255 76.6115C88.9624 76.9112 88.4797 77.3426 88.1185 77.8692C87.7637 78.3966 87.5387 79.0008 87.4619 79.6322C87.4091 80.2552 87.4619 80.9369 87.4619 81.5834V89.4055C87.4619 94.585 87.4619 99.6783 87.4619 104.685V108.429C87.4619 109.052 87.4619 109.675 87.4619 110.286C87.4861 110.881 87.6423 111.463 87.9191 111.99C88.1966 112.51 88.5864 112.962 89.06 113.312C89.5337 113.661 90.0793 113.901 90.657 114.012C91.2409 114.077 91.8287 114.099 92.4158 114.077H108.362L157.192 114.112L190.111 114.159L199.063 114.188H201.408H202.2C202.2 114.188 201.936 114.188 201.408 114.188H199.063H190.111L157.192 114.235L108.362 114.271H92.4392C91.8267 114.297 91.213 114.273 90.6042 114.2C89.6581 114.03 88.7987 113.54 88.1693 112.812C87.5398 112.084 87.1784 111.161 87.1453 110.198C87.1453 109.569 87.1453 108.958 87.1453 108.335V81.4776C87.1453 80.8135 87.1453 80.1847 87.1746 79.4912C87.2509 78.8069 87.4934 78.1518 87.8807 77.5832C88.2681 77.0146 88.7885 76.5498 89.3965 76.2295C90.0049 75.9056 90.6833 75.7361 91.3722 75.7358L199.989 75.7829C200.863 75.7829 201.713 75.7829 202.575 75.7829C203.425 75.8608 204.232 76.1984 204.885 76.7501C205.538 77.3018 206.006 78.0411 206.227 78.8682C206.332 79.2649 206.379 79.6746 206.368 80.0848V81.2601C206.368 84.3984 206.368 87.3604 206.368 90.1284C206.368 95.6585 206.368 100.425 206.368 104.327C206.368 106.272 206.368 108.006 206.368 109.505C206.417 110.202 206.313 110.902 206.063 111.556C205.805 112.188 205.394 112.745 204.866 113.178C204.339 113.611 203.713 113.906 203.044 114.036C202.85 114.071 202.654 114.092 202.458 114.1L202.164 114.235Z" fill="#263238"/>
<path d="M197.691 83.8461C197.652 83.8465 197.614 83.8318 197.586 83.805C197.559 83.7765 197.543 83.7386 197.543 83.6992C197.543 83.6598 197.559 83.6219 197.586 83.5934L200.517 80.7784C200.545 80.7511 200.583 80.7358 200.623 80.7358C200.662 80.7358 200.7 80.7511 200.728 80.7784C200.755 80.8058 200.77 80.8428 200.77 80.8812C200.77 80.9197 200.755 80.9566 200.728 80.9841L197.797 83.7991C197.784 83.814 197.767 83.8259 197.749 83.834C197.731 83.8421 197.711 83.8462 197.691 83.8461Z" fill="#263238"/>
<path d="M200.611 83.8578C200.592 83.8586 200.574 83.8553 200.557 83.8482C200.539 83.8411 200.524 83.8304 200.511 83.8167L197.609 80.9782C197.595 80.965 197.584 80.949 197.576 80.9313C197.569 80.9137 197.565 80.8946 197.565 80.8753C197.565 80.856 197.569 80.837 197.576 80.8193C197.584 80.8016 197.595 80.7857 197.609 80.7725C197.637 80.7456 197.673 80.7305 197.712 80.7305C197.75 80.7305 197.787 80.7456 197.814 80.7725L200.746 83.6169C200.773 83.6444 200.788 83.6813 200.788 83.7197C200.788 83.7582 200.773 83.7951 200.746 83.8226C200.728 83.8397 200.707 83.8519 200.683 83.8581C200.659 83.8643 200.635 83.8642 200.611 83.8578Z" fill="#263238"/>
<path d="M112.923 102.546L111.751 100.847C111.03 99.8247 110.643 98.603 110.643 97.3507V93.5307C110.643 92.042 110.11 90.6026 109.142 89.4737C108.174 88.3448 106.835 87.6011 105.366 87.3776V85.5557C105.366 85.3328 105.278 85.1191 105.121 84.9615C104.964 84.8039 104.75 84.7153 104.528 84.7153C104.418 84.7153 104.309 84.7371 104.208 84.7794C104.107 84.8217 104.015 84.8837 103.937 84.9618C103.86 85.04 103.799 85.1326 103.757 85.2346C103.716 85.3365 103.695 85.4456 103.696 85.5557V87.3188C102.184 87.4986 100.791 88.2277 99.7793 89.3682C98.768 90.5087 98.209 91.9813 98.2081 93.5072V97.4623C98.2069 98.8223 97.7507 100.143 96.9124 101.212L95.8865 102.522L112.923 102.546Z" fill="#FFCB08"/>
<path d="M103.502 105.32C103.966 105.508 104.473 105.563 104.966 105.478C105.459 105.393 105.919 105.171 106.293 104.838C106.614 104.542 106.855 104.171 106.996 103.757L102.031 103.722C102.152 104.076 102.345 104.401 102.599 104.676C102.852 104.951 103.16 105.171 103.502 105.32Z" fill="#FFCB08"/>
<path d="M179.886 88.9179C179.886 89.0002 166.561 89.0707 150.122 89.0707C133.683 89.0707 120.357 89.0002 120.357 88.9179C120.357 88.8357 133.683 88.7651 150.122 88.7651C166.561 88.7651 179.886 88.8357 179.886 88.9179Z" fill="#263238"/>
<path d="M193.886 96.1406C193.886 96.2229 177.418 96.2934 157.11 96.2934C136.802 96.2934 120.328 96.2229 120.328 96.1406C120.328 96.0583 136.79 95.9878 157.11 95.9878C177.43 95.9878 193.886 96.0524 193.886 96.1406Z" fill="#E0E0E0"/>
<path d="M193.886 100.495C193.886 100.577 177.418 100.648 157.11 100.648C136.802 100.648 120.328 100.577 120.328 100.495C120.328 100.413 136.79 100.342 157.11 100.342C177.43 100.342 193.886 100.378 193.886 100.495Z" fill="#E0E0E0"/>
<path d="M183.158 120.207H109.552C107.305 120.207 105.484 122.033 105.484 124.285V142.398C105.484 144.65 107.305 146.476 109.552 146.476H183.158C185.405 146.476 187.227 144.65 187.227 142.398V124.285C187.227 122.033 185.405 120.207 183.158 120.207Z" fill="#FAFAFA"/>
<path d="M183.158 146.476C183.158 146.476 183.34 146.476 183.691 146.418C184.213 146.349 184.716 146.175 185.169 145.906C185.772 145.553 186.273 145.049 186.624 144.443C186.974 143.837 187.162 143.151 187.168 142.451V140.576C187.168 137.92 187.168 134.699 187.139 130.92C187.139 129.04 187.139 127.024 187.139 124.89C187.166 124.358 187.123 123.824 187.01 123.304C186.877 122.775 186.635 122.281 186.3 121.852C185.957 121.405 185.521 121.037 185.024 120.774C184.526 120.51 183.978 120.357 183.416 120.324L109.547 120.359C108.678 120.358 107.834 120.646 107.146 121.178C106.459 121.71 105.967 122.456 105.748 123.298C105.645 123.719 105.603 124.152 105.624 124.585V125.919C105.624 126.806 105.624 127.682 105.624 128.569V141.499C105.624 141.922 105.624 142.351 105.624 142.75C105.668 143.154 105.769 143.55 105.923 143.926C106.243 144.665 106.779 145.289 107.461 145.715C108.142 146.141 108.937 146.349 109.74 146.312H119.337L152.537 146.341L174.927 146.394L181.012 146.423H182.595H183.134C183.134 146.423 182.947 146.423 182.595 146.423H181.012H174.927L152.537 146.47L119.337 146.506H109.763C108.901 146.546 108.047 146.322 107.314 145.864C106.581 145.407 106.004 144.737 105.66 143.943C105.497 143.541 105.39 143.118 105.343 142.686C105.308 142.239 105.343 141.828 105.343 141.405V124.591C105.321 124.132 105.367 123.673 105.478 123.227C105.711 122.315 106.242 121.507 106.985 120.931C107.729 120.355 108.642 120.044 109.582 120.048L183.451 120.101C184.332 120.157 185.172 120.493 185.851 121.059C186.529 121.625 187.011 122.393 187.227 123.251C187.344 123.787 187.388 124.337 187.355 124.885C187.355 127.018 187.355 129.034 187.355 130.914C187.355 134.675 187.355 137.914 187.355 140.57C187.355 141.228 187.355 141.857 187.355 142.445C187.348 143.002 187.227 143.553 186.998 144.061C186.638 144.857 186.037 145.519 185.28 145.953C184.819 146.218 184.308 146.386 183.779 146.447C183.573 146.474 183.365 146.484 183.158 146.476Z" fill="#263238"/>
<path d="M181.34 125.642C181.321 125.642 181.301 125.638 181.283 125.63C181.265 125.622 181.248 125.61 181.235 125.595C181.221 125.582 181.21 125.566 181.202 125.548C181.194 125.531 181.19 125.512 181.19 125.492C181.19 125.473 181.194 125.454 181.202 125.436C181.21 125.419 181.221 125.403 181.235 125.39L183.246 123.456C183.259 123.442 183.276 123.431 183.294 123.423C183.312 123.415 183.332 123.411 183.351 123.411C183.371 123.411 183.39 123.415 183.409 123.423C183.427 123.431 183.443 123.442 183.457 123.456C183.484 123.484 183.499 123.52 183.499 123.559C183.499 123.597 183.484 123.634 183.457 123.662L181.44 125.595C181.428 125.61 181.412 125.621 181.395 125.629C181.378 125.638 181.359 125.642 181.34 125.642Z" fill="#263238"/>
<path d="M183.345 125.648C183.306 125.649 183.268 125.634 183.24 125.607L181.246 123.656C181.225 123.628 181.215 123.593 181.218 123.557C181.22 123.522 181.235 123.489 181.26 123.464C181.285 123.439 181.318 123.424 181.353 123.421C181.389 123.419 181.423 123.429 181.452 123.45L183.445 125.401C183.472 125.429 183.487 125.466 183.487 125.504C183.487 125.543 183.472 125.58 183.445 125.607C183.418 125.633 183.382 125.647 183.345 125.648Z" fill="#263238"/>
<path d="M123.095 138.442L122.274 137.267C121.781 136.563 121.515 135.724 121.512 134.863V132.23C121.511 131.209 121.146 130.222 120.483 129.447C119.82 128.672 118.902 128.161 117.895 128.005V126.753C117.895 126.597 117.833 126.448 117.723 126.338C117.613 126.227 117.464 126.166 117.309 126.166C117.153 126.166 117.004 126.227 116.894 126.338C116.784 126.448 116.722 126.597 116.722 126.753V127.987C115.684 128.11 114.726 128.61 114.031 129.393C113.337 130.177 112.953 131.188 112.953 132.236V134.952C112.953 135.885 112.642 136.791 112.067 137.526L111.358 138.431L123.095 138.442Z" fill="#455A64"/>
<path d="M116.623 140.352C116.941 140.48 117.289 140.517 117.628 140.459C117.966 140.401 118.282 140.25 118.54 140.023C118.761 139.82 118.926 139.563 119.02 139.277H115.608C115.696 139.516 115.831 139.734 116.005 139.919C116.18 140.104 116.39 140.251 116.623 140.352Z" fill="#455A64"/>
<path d="M169.087 129.081C169.087 129.163 159.93 129.233 148.633 129.233C137.335 129.233 128.184 129.163 128.184 129.081C128.184 128.998 137.341 128.928 148.633 128.928C159.924 128.928 169.087 128.992 169.087 129.081Z" fill="#263238"/>
<path d="M178.714 134.04C178.714 134.129 167.399 134.193 153.446 134.193C139.493 134.193 128.172 134.129 128.172 134.04C128.172 133.952 139.481 133.888 153.446 133.888C167.411 133.888 178.714 133.958 178.714 134.04Z" fill="#E0E0E0"/>
<path d="M178.714 137.014C178.714 137.096 167.399 137.167 153.446 137.167C139.493 137.167 128.172 137.096 128.172 137.014C128.172 136.932 139.481 136.861 153.446 136.861C167.411 136.861 178.714 136.932 178.714 137.014Z" fill="#E0E0E0"/>
<path d="M182.847 150.561H109.857C107.61 150.561 105.789 152.387 105.789 154.639V172.552C105.789 174.804 107.61 176.63 109.857 176.63H182.847C185.094 176.63 186.916 174.804 186.916 172.552V154.639C186.916 152.387 185.094 150.561 182.847 150.561Z" fill="#FAFAFA"/>
<path d="M182.847 176.636C182.847 176.636 183.029 176.636 183.375 176.583C183.892 176.513 184.391 176.339 184.84 176.072C185.578 175.647 186.163 174.999 186.511 174.221C186.728 173.728 186.845 173.196 186.857 172.658V170.801C186.857 168.168 186.857 164.953 186.857 161.221C186.857 159.352 186.857 157.354 186.857 155.239C186.888 154.71 186.844 154.18 186.728 153.664C186.598 153.14 186.361 152.65 186.03 152.224C185.691 151.778 185.261 151.41 184.769 151.145C184.276 150.879 183.733 150.722 183.175 150.684L109.892 150.713C109.027 150.719 108.187 151.01 107.503 151.541C106.819 152.072 106.327 152.813 106.105 153.652C105.998 154.068 105.953 154.498 105.97 154.927V158.876C105.97 162.375 105.97 165.815 105.97 169.196V171.717C105.97 172.135 105.97 172.564 105.97 172.957C106.01 173.361 106.109 173.757 106.263 174.133C106.578 174.867 107.107 175.489 107.781 175.916C108.455 176.343 109.242 176.555 110.039 176.525H119.56L152.502 176.554L174.716 176.607L180.754 176.636H182.325H182.859C182.859 176.636 182.677 176.636 182.325 176.636H180.754L174.716 176.666L152.502 176.713L119.56 176.748H110.027C109.173 176.776 108.33 176.547 107.607 176.089C106.885 175.631 106.317 174.966 105.976 174.18C105.813 173.779 105.706 173.358 105.659 172.928C105.659 172.493 105.659 172.082 105.659 171.659C105.659 170.824 105.659 169.984 105.659 169.137V154.904C105.641 154.448 105.691 153.993 105.806 153.552C106.05 152.648 106.584 151.85 107.326 151.282C108.068 150.714 108.976 150.406 109.91 150.408L183.193 150.472C183.78 150.514 184.352 150.681 184.869 150.961C185.387 151.242 185.839 151.63 186.195 152.1C186.537 152.552 186.786 153.067 186.927 153.617C187.039 154.149 187.083 154.695 187.056 155.239C187.056 157.354 187.056 159.352 187.056 161.221C187.056 164.953 187.056 168.168 187.027 170.801C187.027 171.453 187.027 172.076 187.027 172.658C187.007 173.367 186.804 174.059 186.439 174.667C186.073 175.274 185.557 175.777 184.94 176.125C184.48 176.389 183.971 176.555 183.445 176.613C183.247 176.637 183.047 176.645 182.847 176.636Z" fill="#263238"/>
<path d="M181.059 155.962C181.039 155.961 181.02 155.957 181.001 155.949C180.983 155.941 180.967 155.929 180.953 155.915C180.939 155.901 180.928 155.885 180.921 155.868C180.913 155.85 180.909 155.831 180.909 155.812C180.909 155.792 180.913 155.773 180.921 155.756C180.928 155.738 180.939 155.722 180.953 155.709L182.953 153.787C182.981 153.76 183.019 153.745 183.058 153.745C183.098 153.745 183.135 153.76 183.164 153.787C183.191 153.815 183.206 153.852 183.206 153.89C183.206 153.928 183.191 153.965 183.164 153.993L181.165 155.915C181.152 155.93 181.135 155.942 181.117 155.95C181.099 155.958 181.079 155.962 181.059 155.962Z" fill="#263238"/>
<path d="M183.064 155.967C183.025 155.968 182.987 155.953 182.959 155.926L180.983 153.975C180.955 153.948 180.939 153.91 180.938 153.871C180.938 153.832 180.953 153.794 180.98 153.766C181.007 153.738 181.044 153.722 181.083 153.722C181.122 153.721 181.16 153.736 181.188 153.763L183.164 155.703C183.191 155.73 183.206 155.767 183.206 155.806C183.206 155.844 183.191 155.881 183.164 155.909C183.139 155.94 183.104 155.962 183.064 155.967Z" fill="#263238"/>
<path d="M123.271 168.667L122.433 167.492C121.939 166.795 121.675 165.961 121.676 165.106V162.508C121.676 161.493 121.313 160.512 120.654 159.741C119.995 158.971 119.083 158.462 118.082 158.306V157.066C118.082 156.91 118.021 156.761 117.911 156.651C117.801 156.54 117.652 156.479 117.496 156.479C117.341 156.479 117.192 156.54 117.082 156.651C116.972 156.761 116.91 156.91 116.91 157.066V158.289C115.88 158.412 114.932 158.91 114.243 159.688C113.555 160.465 113.175 161.469 113.175 162.508V165.206C113.175 166.132 112.866 167.032 112.296 167.762L111.645 168.667H123.271Z" fill="#E0E0E0"/>
<path d="M116.845 170.559C117.162 170.686 117.508 170.722 117.844 170.664C118.181 170.606 118.494 170.456 118.751 170.23C118.969 170.028 119.132 169.773 119.226 169.49H115.843C115.928 169.727 116.061 169.945 116.234 170.129C116.406 170.313 116.614 170.459 116.845 170.559Z" fill="#E0E0E0"/>
<path d="M168.912 159.37C168.912 159.458 159.824 159.523 148.615 159.523C137.406 159.523 128.319 159.458 128.319 159.37C128.319 159.282 137.406 159.217 148.615 159.217C159.824 159.217 168.912 159.264 168.912 159.37Z" fill="#263238"/>
<path d="M178.479 164.295C178.479 164.383 167.247 164.448 153.399 164.448C139.551 164.448 128.319 164.383 128.319 164.295C128.319 164.207 139.546 164.142 153.399 164.142C167.252 164.142 178.479 164.213 178.479 164.295Z" fill="#E0E0E0"/>
<path d="M178.479 167.245C178.479 167.327 167.247 167.398 153.399 167.398C139.551 167.398 128.319 167.327 128.319 167.245C128.319 167.163 139.546 167.092 153.399 167.092C167.252 167.092 178.479 167.163 178.479 167.245Z" fill="#E0E0E0"/>
<path d="M53.6169 82.9172L54.2559 75.3243C50.5723 72.8699 47.9377 69.1231 46.8701 64.8203C45.8025 60.5176 46.379 55.9701 48.4863 52.0718C50.5937 48.1735 54.0795 45.2064 58.2584 43.7537C62.4374 42.301 67.0073 42.4678 71.0698 44.2213C75.1323 45.9748 78.3936 49.1882 80.2126 53.2298C82.0315 57.2714 82.2766 61.8489 80.8996 66.0624C79.5226 70.2759 76.6232 73.8208 72.7713 76.0001C68.9193 78.1794 64.3935 78.8355 60.0834 77.8396L53.6169 82.9172Z" fill="white"/>
<path d="M53.617 82.9174L60.1304 77.8868L60.1949 77.8339L60.1187 77.7986L60.0776 77.8985C61.4615 78.2201 62.8782 78.3779 64.2987 78.3687C65.99 78.348 67.6698 78.0868 69.2878 77.5929C70.1846 77.3219 71.0556 76.9718 71.8908 76.5468C72.3129 76.3176 72.7585 76.1002 73.1865 75.8593L74.4528 75.0247C78.1177 72.3527 80.6325 68.3843 81.488 63.9233C81.9964 61.4441 81.9644 58.8841 81.3942 56.4185C80.7527 53.8372 79.5517 51.4294 77.8766 49.3662C76.1433 47.1942 73.9185 45.4677 71.3866 44.3297L70.3959 43.9124C70.0676 43.7655 69.7158 43.6832 69.3816 43.5715C69.0475 43.4599 68.7074 43.3365 68.3615 43.2718L67.3238 43.0485C66.9805 42.969 66.6317 42.9159 66.2803 42.8898L65.2367 42.7664H64.1932C63.8476 42.7458 63.5011 42.7458 63.1555 42.7664C60.4524 42.9201 57.818 43.6792 55.4461 44.9879C53.1984 46.2179 51.2487 47.9295 49.7359 50.0009C47.0281 53.7295 45.8471 58.3559 46.4353 62.9301C46.7205 64.8597 47.2977 66.7345 48.1471 68.4896C48.8976 70.0061 49.8632 71.4057 51.014 72.6446C51.9714 73.6759 53.048 74.5894 54.2208 75.3656V75.3186C53.8456 80.1729 53.6346 82.5472 53.6346 82.9174C53.6698 82.5472 53.8867 80.1788 54.3264 75.3303V75.3009C53.1677 74.52 52.1034 73.6068 51.1547 72.5799C50.0205 71.341 49.0689 69.9458 48.3289 68.4367C47.4956 66.6946 46.9303 64.836 46.6522 62.9242C46.0804 58.3951 47.257 53.8182 49.9411 50.1302C51.4423 48.0871 53.3713 46.3982 55.5927 45.1818C57.9385 43.8917 60.5427 43.1447 63.2141 42.9956C63.5558 42.975 63.8984 42.975 64.2401 42.9956H65.2719L66.3037 43.119C66.6492 43.146 66.9922 43.1991 67.3297 43.2777L68.3557 43.4951C68.7016 43.5598 69.024 43.695 69.364 43.789C69.7041 43.883 70.0441 43.9829 70.3666 44.1298L71.3398 44.5412C73.8409 45.6649 76.0394 47.3691 77.7535 49.5131C79.4012 51.5599 80.5782 53.9457 81.2007 56.5007C81.779 58.9236 81.8329 61.4425 81.359 63.888C80.5006 68.3087 77.9984 72.2371 74.359 74.8778L73.1103 75.7065C72.6823 75.9533 72.2426 76.1649 71.8263 76.3941C70.9981 76.8164 70.135 77.1664 69.2468 77.4401C67.6453 77.9374 65.981 78.2026 64.3046 78.2276C62.893 78.2457 61.4842 78.0977 60.1069 77.7869L60.0718 77.8868V77.7927C55.962 81.0603 53.9218 82.6765 53.617 82.9174Z" fill="#263238"/>
<path d="M61.5549 51.5291L62.1001 61.8489C62.1234 62.256 62.2941 62.6406 62.5801 62.9306C62.8661 63.2206 63.2478 63.396 63.6537 63.4239C64.0778 63.4511 64.4961 63.3146 64.8231 63.0426C65.1501 62.7705 65.361 62.3834 65.4125 61.9606L66.6612 51.6055C66.6828 51.4207 66.665 51.2334 66.6091 51.0561C66.5532 50.8787 66.4604 50.7152 66.3369 50.5764C66.2133 50.4375 66.0619 50.3265 65.8924 50.2507C65.723 50.1748 65.5394 50.1358 65.3538 50.1362H62.8446C62.667 50.1374 62.4916 50.175 62.329 50.2468C62.1665 50.3185 62.0203 50.4228 61.8995 50.5533C61.7787 50.6837 61.6858 50.8376 61.6265 51.0054C61.5672 51.1732 61.5429 51.3514 61.5549 51.5291Z" fill="#FFCB08"/>
<path d="M66.3446 68.6128C66.1882 69.085 65.8955 69.5001 65.5037 69.8056C65.1119 70.111 64.6385 70.2931 64.1435 70.3288C63.6484 70.3645 63.1539 70.2523 62.7225 70.0062C62.2911 69.7602 61.9421 69.3914 61.7198 68.9465C61.4975 68.5017 61.4118 68.0007 61.4736 67.507C61.5354 67.0134 61.7418 66.5491 62.0668 66.1731C62.3918 65.797 62.8207 65.526 63.2994 65.3943C63.778 65.2627 64.2849 65.2763 64.7558 65.4334C65.387 65.6441 65.9089 66.0973 66.2068 66.6935C66.5047 67.2897 66.5543 67.98 66.3446 68.6128Z" fill="#FFCB08"/>
<path d="M57.1521 126.8C56.3255 126.212 55.3054 125.966 54.385 125.531C53.4645 125.096 52.5734 124.355 52.4855 123.321C52.3624 121.817 54.0156 120.682 54.1153 119.207C54.2501 117.086 51.3892 115.928 50.9729 113.848C50.627 112.12 52.0868 110.492 52.0282 108.729C51.9696 106.966 50.4453 105.655 49.7535 104.027C48.1354 100.278 51.1136 95.441 48.8565 92.0383C48.172 91.1825 47.4062 90.3952 46.5701 89.6876C45.7962 88.9118 45.122 87.9245 45.2158 86.802L40.983 84.8744C39.5642 82.6999 36.3456 82.6176 33.9478 83.5462C31.55 84.4747 29.4043 86.1379 26.9126 86.7609C25.6932 87.0606 25.8691 85.2505 24.6379 85.5032C23.014 85.8323 21.0265 87.7306 20.5341 89.3056C20.0416 90.9922 19.6957 92.8611 19.0977 94.5184C18.4353 96.3461 16.483 97.6214 16.2954 99.5608C16.0843 101.817 18.4118 103.675 18.4177 105.931C18.4177 108.37 15.7326 110.556 16.5885 112.843C17.081 114.147 18.5818 114.847 19.1095 116.139C19.8306 117.903 18.3942 119.889 18.5232 121.811C18.6522 123.732 20.2468 125.143 21.7535 126.295C27.4907 130.784 33.91 134.32 40.7661 136.767C43.7384 137.79 46.8691 138.572 49.9997 138.29C53.1304 138.007 56.2786 136.526 57.9201 133.811C59.2627 131.608 59.251 128.311 57.1521 126.8Z" fill="#263238"/>
<path d="M45.0457 85.7384C44.6609 84.1954 43.873 82.783 42.7632 81.6463C41.6534 80.5096 40.2617 79.6897 38.7311 79.2708C37.2004 78.8519 35.5862 78.8492 34.0541 79.2628C32.5221 79.6765 31.1276 80.4917 30.0139 81.6246C29.1111 82.5413 28.3958 83.6638 27.3288 84.3808C26.1211 85.1977 25.9453 84.9685 24.5968 85.4916C23.2484 86.0146 20.7685 89.7934 20.8096 91.2509L20.1354 97.6332C20.1881 99.126 22.1052 99.984 23.5123 99.4786C24.9193 98.9732 25.8573 97.6685 26.6077 96.3756C27.3582 95.0827 28.0441 93.684 29.2752 92.8553C31.2978 91.4272 34.0416 91.9209 36.4628 92.4145C38.8841 92.9082 41.6923 93.2667 43.5859 91.6682C45.2158 90.2636 45.5675 87.8129 45.0457 85.7384Z" fill="#263238"/>
<path d="M46.3823 94.8476C46.1067 90.6926 43.3513 85.6032 39.224 86.0322L26.3262 89.3292C25.7221 89.3952 25.1647 89.6861 24.7641 90.1442C24.3636 90.6023 24.149 91.1944 24.1629 91.8034L25.6109 122.951H25.5171C25.5171 122.951 30.7935 134.088 39.2826 131.402C40.9711 130.867 39.435 126.665 39.7751 124.761H39.8572C39.8572 124.538 39.8572 124.326 39.8572 124.109C40.024 122.688 40.0417 121.254 39.9099 119.83C39.9099 117.315 39.9099 116.304 39.9099 116.304C39.9099 116.304 45.1863 115.411 46.2826 108.488C46.863 105.109 46.6813 99.461 46.3823 94.8476Z" fill="#FFBE9D"/>
<path d="M45.3153 100.184C45.3185 100.416 45.2307 100.64 45.0706 100.809C44.9106 100.977 44.6911 101.075 44.4594 101.083C44.3468 101.092 44.2335 101.078 44.1263 101.042C44.019 101.007 43.92 100.95 43.8348 100.876C43.7497 100.801 43.6802 100.71 43.6304 100.609C43.5806 100.507 43.5515 100.397 43.5448 100.284C43.5431 100.052 43.6315 99.8281 43.7912 99.6603C43.951 99.4925 44.1696 99.3935 44.4008 99.3844C44.5136 99.3748 44.6271 99.388 44.7347 99.4233C44.8423 99.4586 44.9417 99.5152 45.027 99.5897C45.1124 99.6643 45.1818 99.7553 45.2314 99.8573C45.2809 99.9594 45.3095 100.07 45.3153 100.184Z" fill="#263238"/>
<path d="M45.163 97.786C45.0574 97.9035 44.3832 97.4099 43.4042 97.4099C42.4251 97.4099 41.7568 97.8977 41.6454 97.7801C41.534 97.6626 41.704 97.5156 42.0089 97.2982C42.4215 97.0097 42.9128 96.8557 43.4159 96.8574C43.9107 96.8569 44.3929 97.0132 44.7936 97.3041C45.1161 97.5568 45.2216 97.7331 45.163 97.786Z" fill="#263238"/>
<path d="M36.3045 100.495C36.3077 100.726 36.2205 100.949 36.0615 101.116C35.9026 101.283 35.6846 101.381 35.4545 101.388C35.3417 101.398 35.2281 101.385 35.1205 101.35C35.0129 101.314 34.9135 101.258 34.8282 101.183C34.7429 101.109 34.6734 101.018 34.6238 100.916C34.5743 100.813 34.5458 100.703 34.5399 100.589C34.5367 100.358 34.6239 100.136 34.7829 99.9685C34.9418 99.8014 35.1598 99.7036 35.39 99.6959C35.5027 99.6863 35.6163 99.6995 35.7239 99.7348C35.8315 99.7701 35.9309 99.8267 36.0162 99.9012C36.1015 99.9758 36.171 100.067 36.2206 100.169C36.2701 100.271 36.2986 100.382 36.3045 100.495Z" fill="#263238"/>
<path d="M35.7943 97.9857C35.6888 98.1032 35.0146 97.6037 34.0355 97.6096C33.0565 97.6155 32.3881 98.0974 32.2767 97.9798C32.1653 97.8623 32.3354 97.7154 32.6402 97.492C33.0543 97.2073 33.5451 97.0556 34.0473 97.0572C34.5413 97.0549 35.0235 97.2092 35.425 97.4979C35.7474 97.7271 35.8471 97.9328 35.7943 97.9857Z" fill="#263238"/>
<path d="M39.271 105.067C39.7723 104.905 40.2926 104.808 40.8187 104.779C41.0591 104.779 41.2936 104.709 41.3346 104.538C41.3515 104.287 41.2944 104.035 41.1705 103.816C40.936 103.228 40.6956 102.611 40.4435 101.958C39.441 99.3197 38.6847 97.1452 38.8195 97.1041C38.9544 97.063 39.8279 99.1728 40.8304 101.806C41.0708 102.458 41.3053 103.081 41.5222 103.674C41.6764 103.969 41.7221 104.308 41.6512 104.632C41.616 104.718 41.5618 104.795 41.4928 104.857C41.4238 104.919 41.3416 104.965 41.2525 104.991C41.1182 105.025 40.9806 105.045 40.8422 105.05C40.3211 105.12 39.7934 105.126 39.271 105.067Z" fill="#263238"/>
<path d="M39.9569 116.363C36.7045 116.42 33.5001 115.572 30.6998 113.913C30.6998 113.913 32.9511 118.661 39.8631 118.026L39.9569 116.363Z" fill="#EB996E"/>
<path d="M38.8724 107.371C38.6912 107.142 38.4545 106.962 38.1846 106.85C37.9147 106.738 37.6207 106.697 37.3305 106.731C37.1204 106.751 36.9164 106.813 36.731 106.914C36.5456 107.015 36.3825 107.152 36.2518 107.319C36.1235 107.478 36.0474 107.672 36.0337 107.876C36.0201 108.081 36.0696 108.284 36.1755 108.459C36.3312 108.628 36.5331 108.748 36.7562 108.803C36.9792 108.859 37.2136 108.847 37.4302 108.77C37.879 108.61 38.2915 108.363 38.6437 108.041C38.751 107.963 38.8426 107.866 38.9134 107.753C38.9489 107.702 38.968 107.64 38.968 107.577C38.968 107.514 38.9489 107.453 38.9134 107.401" fill="#EB996E"/>
<path d="M36.4685 105.732C36.621 105.732 36.6268 106.76 37.5121 107.495C38.3973 108.229 39.4995 108.112 39.5112 108.259C39.523 108.406 39.265 108.458 38.8019 108.47C38.1934 108.477 37.6021 108.269 37.131 107.882C36.6816 107.514 36.3918 106.985 36.322 106.407C36.2809 105.984 36.3982 105.726 36.4685 105.732Z" fill="#263238"/>
<path d="M36.2517 96.311C36.1579 96.5754 35.2023 96.452 34.0884 96.5872C32.9745 96.7223 32.0658 97.0338 31.9133 96.8046C31.8489 96.6929 32.0071 96.4461 32.3706 96.2169C32.8513 95.8947 33.4023 95.6932 33.977 95.6292C34.5496 95.5617 35.13 95.6302 35.6713 95.829C36.0524 95.9877 36.2517 96.1875 36.2517 96.311Z" fill="#263238"/>
<path d="M44.8053 95.0242C44.6412 95.2416 43.9846 95.0242 43.1931 95.0242C42.4017 95.0242 41.7392 95.177 41.5809 94.9478C41.5164 94.8361 41.6219 94.6187 41.9092 94.413C42.302 94.1664 42.759 94.0421 43.2223 94.0557C43.6855 94.0693 44.1344 94.2202 44.5122 94.4894C44.7878 94.6951 44.8816 94.9184 44.8053 95.0242Z" fill="#263238"/>
<path d="M38.9955 84.2811L38.4092 83.5288C34.4196 83.9886 30.5107 84.989 26.7895 86.5025C25.3004 87.0902 23.7995 87.8307 22.7794 89.0766C21.3841 90.7868 21.1613 93.1493 21.0206 95.3531C20.4344 103.757 19.9126 112.396 22.5508 120.406C23.1839 119.384 24.4268 118.925 25.6052 118.696C26.7836 118.467 28.0206 118.391 29.1228 117.844C29.702 117.529 30.2095 117.097 30.6132 116.575C31.0169 116.053 31.3079 115.452 31.4678 114.812C31.7807 113.516 31.6292 112.151 31.0399 110.956C30.4009 109.622 29.2811 108.335 29.539 106.884C29.797 105.432 31.5675 104.498 31.9779 103.005C32.6873 100.425 29.0466 98.1094 29.8029 95.5353C29.9689 95.0716 30.2277 94.6468 30.5634 94.2871C30.8991 93.9273 31.3046 93.6401 31.7551 93.4431C32.6345 93.0024 33.6019 92.7555 34.493 92.3383C35.9731 91.6152 37.1976 90.4561 38.0023 89.0161C38.807 87.5761 39.1535 85.924 38.9955 84.2811Z" fill="#263238"/>
<path d="M73.8664 137.067L65.7877 149.667C66.1001 150.127 66.5252 150.498 67.0222 150.745C67.5192 150.992 68.0713 151.106 68.6252 151.077C70.5716 150.995 73.245 146.129 73.5616 145.148C73.8782 144.166 73.4502 143.214 73.7375 142.556C74.0247 141.898 73.9133 140.099 73.9133 140.099C73.8723 140.205 75.6604 137.807 73.8664 137.067Z" fill="#FFBE9D"/>
<path d="M63.5541 149.662L67.7634 132.977C67.8277 132.731 67.9402 132.501 68.0942 132.299C68.2482 132.097 68.4406 131.928 68.6604 131.802L74.7752 128.305C74.9556 128.204 75.1669 128.172 75.369 128.216C75.5712 128.261 75.7499 128.378 75.8715 128.546C75.9433 128.646 75.9926 128.76 76.0159 128.881C76.0392 129.002 76.0359 129.126 76.0063 129.245L71.5507 146.805L63.5541 149.662Z" fill="#263238"/>
<path d="M61.4316 162.591L71.2047 144.496L67.5229 139.718L53.7692 150.179L57.3747 160.122L61.4316 162.591Z" fill="#FFCB08"/>
<path d="M71.322 148.422C71.4071 148.179 71.4699 147.929 71.5096 147.675C71.5744 146.971 71.5048 146.261 71.3044 145.583V145.542V145.501C71.3901 145.364 71.4454 145.21 71.4666 145.05C71.4879 144.89 71.4745 144.727 71.4275 144.572C71.2928 144.224 71.0531 143.926 70.7416 143.72L70.6361 143.65L70.7064 143.538L71.8145 141.881C71.917 141.748 72.0035 141.604 72.0724 141.452C72.1168 141.307 72.1042 141.152 72.0372 141.017C71.8792 140.705 71.6453 140.438 71.3572 140.241L71.2165 140.141L71.3279 140.012C71.6269 139.671 71.961 139.33 72.2952 138.983C72.8671 138.393 73.4054 137.771 73.9074 137.12C74.1343 136.821 74.3307 136.501 74.4937 136.162C74.5701 136.011 74.6197 135.848 74.6403 135.68C74.6403 135.528 74.5816 135.445 74.4937 135.428H74.4585C74.2703 135.408 74.0803 135.439 73.9074 135.516C73.7077 135.59 73.512 135.674 73.3212 135.769C72.9635 135.963 72.6294 136.162 72.3245 136.356C71.7383 136.756 71.1813 137.132 70.7533 137.444L69.7508 138.172C69.6393 138.271 69.5151 138.354 69.3815 138.419C69.4727 138.302 69.5792 138.197 69.6981 138.108C69.915 137.914 70.2374 137.643 70.6537 137.308C71.0699 136.973 71.5858 136.585 72.1955 136.168C72.5063 135.957 72.8346 135.745 73.2039 135.539C73.3931 135.435 73.5889 135.342 73.7902 135.263C74.0173 135.152 74.2744 135.116 74.523 135.163H74.4878C74.6136 135.181 74.7274 135.247 74.8042 135.349C74.8811 135.45 74.9149 135.578 74.8982 135.704C74.8792 135.908 74.8236 136.107 74.7341 136.292C74.563 136.651 74.3547 136.992 74.1126 137.308C73.6091 137.974 73.0648 138.608 72.4828 139.207C72.1486 139.553 71.8145 139.894 71.5155 140.229V140C71.8526 140.232 72.1234 140.548 72.3011 140.917C72.3915 141.119 72.4041 141.347 72.3362 141.557C72.2597 141.732 72.1612 141.896 72.0431 142.045C71.6445 142.633 71.2634 143.185 70.9058 143.702V143.514C71.2587 143.758 71.5256 144.108 71.6679 144.513C71.722 144.699 71.7359 144.894 71.7086 145.086C71.6813 145.278 71.6134 145.461 71.5096 145.624V145.542C71.697 146.247 71.735 146.984 71.621 147.705C71.5865 147.898 71.5254 148.086 71.4393 148.263C71.3689 148.369 71.3337 148.427 71.322 148.422Z" fill="#EB996E"/>
<path d="M75.8714 128.54C75.7186 128.678 75.5493 128.797 75.3672 128.893C75.0331 129.104 74.5465 129.404 73.9368 129.768L71.7969 131.055L70.5306 131.79C70.0698 132.013 69.6401 132.296 69.2525 132.63C68.916 133 68.6922 133.459 68.6076 133.953C68.4786 134.446 68.3555 134.916 68.2383 135.375L67.5992 137.779C67.4116 138.46 67.2533 139.013 67.1361 139.389C67.0933 139.593 67.0244 139.79 66.9309 139.976C66.9346 139.777 66.9662 139.579 67.0247 139.389C67.1009 139.001 67.2299 138.443 67.3882 137.755C67.5465 137.067 67.7517 136.227 67.9745 135.334C68.0839 134.875 68.2012 134.399 68.3262 133.906C68.4212 133.358 68.6692 132.848 69.0415 132.436C69.453 132.088 69.9059 131.792 70.3899 131.555L71.6679 130.838L73.8371 129.663C74.4585 129.322 74.9627 129.075 75.3145 128.875C75.4834 128.737 75.6709 128.625 75.8714 128.54Z" fill="#455A64"/>
<path d="M71.8203 134.24C71.6679 134.605 71.6503 134.946 71.7793 134.999C71.9082 135.051 72.1369 134.805 72.2893 134.44C72.4417 134.076 72.4593 133.741 72.3303 133.682C72.2014 133.623 71.9727 133.882 71.8203 134.24Z" fill="white"/>
<path d="M41.3815 124.126C43.4832 124.885 45.4151 126.052 47.0668 127.559C48.7186 129.067 50.0578 130.886 51.0079 132.912L64.1285 160.898L75.4317 165.494L65.4652 168.368L56.6126 161.85L41.3815 124.126Z" fill="#FFCB08"/>
<path d="M65.4771 168.368L60.7166 172.047L36.9612 147.552L23.3833 122.963L24.9545 118.391L35.4545 122.775L39.2124 128.346L40.0508 121.294L40.725 122.24L41.8213 125.22C41.8213 125.22 52.1278 133.818 54.3556 140.629C56.1848 146.335 55.6278 158.089 56.771 161.263L65.4771 168.368Z" fill="#FAFAFA"/>
<path d="M20.8388 122.645C20.6805 123.121 10.6847 127.147 10.2099 130.656C9.735 134.164 17.3916 161.292 17.3916 161.292L29.5331 172.047H60.7165L50.8262 153.482C48.6944 149.478 45.9971 145.805 42.8179 142.574C39.8866 139.6 36.369 135.921 34.5281 133.729C32.5524 131.349 24.1747 120.212 24.1747 120.212L20.8388 122.645Z" fill="#FFCB08"/>
<path d="M27.0942 123.756C27.7002 123.975 28.2883 124.24 28.853 124.55C29.9259 125.079 31.3974 125.819 33.0155 126.66L34.8564 127.623L34.6453 127.764C34.5749 126.668 34.6399 125.566 34.8388 124.485C34.8943 124.057 35.0108 123.64 35.1847 123.245C35.1512 123.671 35.0964 124.094 35.0205 124.515C34.8833 125.584 34.8538 126.665 34.9326 127.741V128L34.7039 127.882L32.8865 126.942C31.2684 126.101 29.8145 125.326 28.7827 124.75C28.1954 124.462 27.631 124.13 27.0942 123.756Z" fill="#263238"/>
<path d="M51.1312 148.498C50.9444 148.247 50.7778 147.982 50.6328 147.705L49.3607 145.489C48.2937 143.614 46.8045 141.034 45.1278 138.208C43.4511 135.381 41.8858 132.848 40.7543 131.014L39.4118 128.84C39.2371 128.581 39.0842 128.307 38.9545 128.023C39.1735 128.254 39.3698 128.506 39.5407 128.775C39.8866 129.269 40.3732 129.992 40.9654 130.897C42.1379 132.701 43.7325 135.222 45.421 138.055C47.1094 140.887 48.5575 143.485 49.5776 145.383C50.0935 146.335 50.498 147.105 50.7501 147.646C50.9001 147.919 51.0275 148.204 51.1312 148.498Z" fill="#263238"/>
<g opacity="0.3">
<path opacity="0.3" d="M46.3296 167.41C48.1412 167.715 49.9996 167.998 51.8053 167.68C53.611 167.363 55.3757 166.193 55.9443 164.442C56.034 163.871 56.2659 163.331 56.6185 162.873C57.3162 162.226 58.4301 162.626 59.374 162.538C59.8994 162.457 60.3991 162.256 60.8344 161.951C61.2696 161.645 61.6285 161.242 61.8832 160.775C62.3867 159.839 62.7407 158.829 62.9326 157.784C63.0849 157.279 63.1484 156.752 63.1202 156.226C63.102 155.964 63.0183 155.711 62.8769 155.491C62.7355 155.27 62.541 155.088 62.3112 154.963C61.5959 154.639 60.7869 155.11 60.1537 155.55C55.0122 159.264 50.3221 163.578 45.632 167.868" fill="black"/>
</g>
<path d="M57.9786 146.7C57.9786 146.7 59.7667 142.586 60.7165 141.998C61.6662 141.411 66.4091 138.654 66.4091 138.654L65.8228 140.917L70.4602 137.691C71.0465 137.309 74.3354 134.294 74.9217 135.469C75.3496 136.315 72.647 138.549 72.2835 139.048C71.3806 140.288 71.6972 140.176 71.6972 140.176C71.6972 140.176 72.6763 140.764 72.1838 141.646C71.7814 142.322 71.3389 142.974 70.8588 143.597C70.8588 143.597 72.1486 144.055 71.3982 145.736C71.6148 146.434 71.659 147.174 71.5272 147.893C71.3161 149.15 69.0531 151.531 69.0531 151.531L57.7382 156.914L53.1888 149.18L57.9786 146.7Z" fill="#FFBE9D"/>
<path d="M31.7082 138.965L38.9427 154.445L55.0122 147.464C55.0122 147.464 61.6663 151.354 60.7459 155.609L46.2651 167.492C44.9117 168.607 43.3466 169.434 41.6646 169.924C39.9826 170.414 38.2189 170.556 36.4804 170.342C34.6151 170.113 32.8219 169.48 31.2253 168.487C29.6287 167.493 28.2671 166.163 27.235 164.589L16.776 148.651L10.9134 139.065C9.97423 137.573 9.49649 135.835 9.5403 134.071C9.58412 132.307 10.1475 130.595 11.1596 129.151C11.7123 128.372 12.4138 127.711 13.2233 127.206C15.8439 125.613 23.606 124.92 31.7082 138.965Z" fill="#FFCB08"/>
<path d="M67.2827 139.871C66.5605 140.495 65.7744 141.04 64.9377 141.499C64.1497 142.042 63.3091 142.505 62.4285 142.88C63.1564 142.263 63.9417 141.718 64.7735 141.252C65.5634 140.711 66.4038 140.249 67.2827 139.871Z" fill="#EB996E"/>
<path d="M71.8028 139.718C71.176 140.544 70.4712 141.308 69.6981 141.998C68.9932 142.757 68.2222 143.451 67.394 144.073C68.0243 143.249 68.7288 142.486 69.4987 141.792C70.2033 141.033 70.9744 140.339 71.8028 139.718Z" fill="#EB996E"/>
<path d="M71.199 143.209C70.9504 143.722 70.6174 144.188 70.2141 144.59C69.6278 145.301 69.0415 145.842 69.0063 145.765C69.2575 145.251 69.5923 144.782 69.9971 144.379C70.3302 143.925 70.7364 143.529 71.199 143.209Z" fill="#EB996E"/>
<path d="M71.4275 145.559C71.492 145.612 71.2399 145.988 70.9233 146.447C70.6067 146.905 70.337 147.269 70.2608 147.228C70.1846 147.187 70.3605 146.752 70.6888 146.282C71.0171 145.812 71.3513 145.506 71.4275 145.559Z" fill="#EB996E"/>
<path d="M43.8027 169.044C43.8027 169.044 43.8027 169.014 43.8731 168.973L44.1017 168.779L45.0104 168.045L48.4811 165.294L60.8747 155.574L60.822 155.674C60.8283 154.868 60.6749 154.069 60.3705 153.323C60.0231 152.542 59.5757 151.809 59.0397 151.143C57.8681 149.756 56.4826 148.565 54.9359 147.617H55.0707L46.7633 151.237L39.0012 154.563L38.8722 154.616L38.8077 154.493C36.6796 150.291 34.7039 146.341 32.7223 142.909C31.7315 141.187 30.7525 139.595 29.8262 138.108C28.8999 136.621 28.0674 135.246 27.1939 134.059C25.9083 132.146 24.1987 130.557 22.1989 129.416C21.853 129.21 21.5305 129.051 21.2491 128.916C20.9677 128.781 20.7391 128.669 20.5398 128.587L20.1059 128.393C20.0546 128.375 20.0055 128.352 19.9594 128.323C21.6987 128.92 23.307 129.848 24.6964 131.056C25.6927 131.928 26.5839 132.914 27.3521 133.994C28.2315 135.169 29.1109 136.556 30.0196 138.037C30.9284 139.518 31.9485 141.105 32.951 142.827C34.9677 146.259 36.9434 150.208 39.0833 154.404L38.8898 154.334L46.6226 150.961L54.93 147.346L55.0004 147.317L55.0648 147.358C56.6401 148.329 58.0495 149.547 59.2391 150.966C59.787 151.656 60.2459 152.412 60.605 153.217C60.9187 154.01 61.076 154.856 61.0682 155.709V155.768L61.0154 155.809L48.5632 165.418L45.0456 168.109L44.1134 168.815L43.8672 168.991L43.8027 169.044Z" fill="#263238"/>
<path d="M37.9696 159.311C37.8816 159.276 38.3272 158.171 38.5558 156.743C38.7845 155.315 38.7904 154.122 38.8842 154.116C39.0833 154.998 39.0833 155.914 38.8842 156.796C38.7728 157.693 38.4601 158.553 37.9696 159.311Z" fill="#263238"/>
<path d="M126.22 204.781L134.621 215.33C134.621 215.33 148.14 210.317 149.864 212.115L130.054 229.199L116.294 213.332L126.22 204.781Z" fill="#FFCB08"/>
<g opacity="0.6">
<path opacity="0.6" d="M127.756 219.749C127.615 219.971 127.561 220.237 127.604 220.497C127.647 220.756 127.785 220.99 127.99 221.154C128.206 221.304 128.472 221.365 128.731 221.324C128.991 221.284 129.225 221.145 129.386 220.937C129.534 220.7 129.589 220.416 129.542 220.141C129.494 219.865 129.347 219.617 129.128 219.444C128.885 219.312 128.602 219.28 128.336 219.353C128.071 219.427 127.844 219.6 127.703 219.838" fill="white"/>
</g>
<g opacity="0.6">
<path opacity="0.6" d="M130.054 229.199L128.729 227.542L148.228 211.78C148.228 211.78 149.442 211.404 149.876 212.115L130.054 229.199Z" fill="white"/>
</g>
<path d="M134.856 214.954C134.938 215.054 134.492 215.542 134.269 216.235C134.047 216.929 134.158 217.587 134.035 217.622C133.912 217.657 133.578 216.976 133.847 216.106C134.117 215.236 134.803 214.848 134.856 214.954Z" fill="#263238"/>
<path d="M137.675 214.025C137.775 214.102 137.499 214.613 137.523 215.324C137.546 216.035 137.822 216.529 137.722 216.611C137.623 216.693 137.089 216.194 137.077 215.33C137.066 214.466 137.593 213.919 137.675 214.025Z" fill="#263238"/>
<path d="M140.994 215.506C140.923 215.601 140.372 215.23 140.161 214.49C139.95 213.749 140.231 213.144 140.337 213.185C140.443 213.226 140.413 213.773 140.589 214.36C140.765 214.948 141.082 215.412 140.994 215.506Z" fill="#263238"/>
<path d="M132.675 212.744C132.71 212.868 132.153 213.121 131.637 213.626C131.121 214.131 130.845 214.672 130.722 214.637C130.599 214.602 130.722 213.896 131.309 213.309C131.895 212.721 132.657 212.644 132.675 212.744Z" fill="#263238"/>
<g opacity="0.3">
<path opacity="0.3" d="M127.885 206.873L129.38 208.754L119.566 217.052L118.147 215.418L127.885 206.873Z" fill="black"/>
</g>
<path d="M130.939 210.67C130.98 210.705 130.646 211.093 129.943 211.516C129.533 211.765 129.094 211.962 128.635 212.103C128.362 212.183 128.084 212.246 127.803 212.292C127.638 212.317 127.47 212.317 127.304 212.292C127.183 212.272 127.071 212.216 126.984 212.129C126.896 212.043 126.838 211.931 126.818 211.81C126.808 211.7 126.824 211.59 126.864 211.487C126.905 211.385 126.97 211.294 127.052 211.222C127.175 211.109 127.316 211.017 127.469 210.952C128.158 210.601 128.923 210.427 129.696 210.446C130.144 210.414 130.59 210.52 130.974 210.752C130.974 210.822 130.47 210.711 129.702 210.752C129.255 210.786 128.814 210.875 128.389 211.016C128.14 211.102 127.899 211.208 127.668 211.334C127.41 211.457 127.228 211.61 127.258 211.751C127.258 211.804 127.258 211.816 127.375 211.839C127.497 211.856 127.622 211.856 127.744 211.839C128.006 211.804 128.267 211.755 128.524 211.692C128.961 211.578 129.387 211.424 129.796 211.234C130.162 211.017 130.545 210.828 130.939 210.67Z" fill="#263238"/>
<path d="M130.933 210.917C130.933 210.958 130.423 210.776 129.849 210.176C129.315 209.611 128.948 208.91 128.788 208.149C128.729 207.972 128.717 207.782 128.753 207.599C128.789 207.415 128.871 207.244 128.993 207.103C129.081 207.027 129.191 206.979 129.307 206.965C129.422 206.951 129.54 206.973 129.644 207.026C129.795 207.098 129.935 207.191 130.06 207.303C130.359 207.561 130.603 207.877 130.779 208.231C130.956 208.585 131.06 208.971 131.086 209.365C131.144 210.212 130.84 210.676 130.799 210.652C130.826 210.236 130.826 209.817 130.799 209.401C130.728 208.968 130.562 208.556 130.312 208.196C130.171 207.985 129.999 207.797 129.802 207.638C129.591 207.455 129.368 207.35 129.304 207.438C129.248 207.532 129.214 207.637 129.203 207.745C129.192 207.854 129.204 207.963 129.239 208.067C129.285 208.322 129.358 208.573 129.456 208.813C129.617 209.234 129.839 209.63 130.113 209.988C130.558 210.582 130.974 210.852 130.933 210.917Z" fill="#263238"/>
<path d="M117.092 237.304L116.57 251.103C116.57 251.103 130.388 256.269 130.541 258.831L103.807 258.778L103.743 237.239L117.092 237.304Z" fill="#FFCB08"/>
<g opacity="0.6">
<path opacity="0.6" d="M108.304 249.927C108.047 250.005 107.827 250.176 107.688 250.405C107.548 250.635 107.498 250.909 107.547 251.173C107.618 251.433 107.784 251.657 108.013 251.799C108.241 251.94 108.515 251.99 108.778 251.937C109.048 251.849 109.277 251.666 109.423 251.422C109.568 251.178 109.621 250.889 109.57 250.609C109.471 250.346 109.274 250.131 109.02 250.009C108.767 249.888 108.477 249.869 108.21 249.957" fill="white"/>
</g>
<g opacity="0.6">
<path opacity="0.6" d="M103.807 258.778L103.889 256.604L129.468 257.467C129.468 257.467 130.64 257.99 130.523 258.831L103.807 258.778Z" fill="white"/>
</g>
<path d="M117.004 250.944C117.004 251.073 116.347 251.132 115.702 251.532C115.057 251.932 114.717 252.496 114.594 252.443C114.471 252.39 114.67 251.638 115.462 251.144C116.253 250.65 117.033 250.85 117.004 250.944Z" fill="#263238"/>
<path d="M119.806 252.119C119.806 252.243 119.267 252.466 118.821 253.019C118.376 253.571 118.235 254.159 118.118 254.153C118 254.147 117.907 253.406 118.475 252.731C119.044 252.055 119.8 252.014 119.806 252.119Z" fill="#263238"/>
<path d="M121.389 255.504C121.272 255.504 121.09 254.876 121.43 254.159C121.77 253.442 122.374 253.16 122.433 253.271C122.491 253.383 122.104 253.759 121.846 254.353C121.588 254.946 121.518 255.493 121.389 255.504Z" fill="#263238"/>
<path d="M116.775 247.811C116.716 247.929 116.118 247.747 115.38 247.811C114.641 247.876 114.067 248.093 114.002 247.982C113.938 247.87 114.489 247.394 115.356 247.359C116.224 247.323 116.84 247.705 116.775 247.811Z" fill="#263238"/>
<g opacity="0.3">
<path opacity="0.3" d="M116.986 240.037L116.898 242.493L103.76 242.352L103.748 240.131L116.986 240.037Z" fill="black"/>
</g>
<path d="M116.828 245.02C116.391 245.144 115.928 245.144 115.491 245.02C114.721 244.879 113.985 244.592 113.322 244.174C113.17 244.092 113.034 243.984 112.918 243.856C112.835 243.762 112.785 243.644 112.775 243.519C112.764 243.395 112.794 243.27 112.859 243.163C112.927 243.071 113.015 242.996 113.117 242.943C113.218 242.891 113.331 242.864 113.445 242.863C113.614 242.863 113.782 242.886 113.943 242.934C114.715 243.122 115.426 243.502 116.013 244.039C116.629 244.626 116.84 245.102 116.793 245.126C116.746 245.149 116.435 244.762 115.808 244.286C115.446 244.013 115.052 243.786 114.635 243.61C114.387 243.507 114.13 243.426 113.867 243.369C113.586 243.292 113.345 243.292 113.281 243.416C113.217 243.539 113.252 243.486 113.31 243.569C113.399 243.659 113.499 243.736 113.609 243.798C113.834 243.949 114.069 244.085 114.313 244.203C114.728 244.411 115.162 244.578 115.608 244.703C116.021 244.783 116.429 244.889 116.828 245.02Z" fill="#263238"/>
<path d="M116.658 245.208C116.403 244.827 116.28 244.373 116.306 243.915C116.274 243.119 116.456 242.33 116.834 241.629C116.907 241.452 117.024 241.297 117.174 241.179C117.324 241.061 117.501 240.983 117.69 240.953C117.814 240.951 117.935 240.985 118.04 241.052C118.144 241.119 118.226 241.216 118.276 241.329C118.344 241.487 118.391 241.653 118.417 241.823C118.475 242.224 118.453 242.633 118.352 243.025C118.252 243.417 118.074 243.786 117.83 244.109C117.303 244.803 116.758 244.961 116.746 244.914C116.734 244.867 117.162 244.597 117.561 243.933C117.794 243.548 117.94 243.117 117.989 242.669C118.024 242.412 118.024 242.151 117.989 241.894C117.948 241.611 117.842 241.382 117.737 241.412C117.631 241.441 117.373 241.623 117.262 241.847C117.131 242.079 117.021 242.323 116.933 242.575C116.781 243.007 116.692 243.458 116.67 243.915C116.57 244.703 116.728 245.19 116.658 245.208Z" fill="#263238"/>
<path d="M103.537 172.046L129.99 207.284L117.614 217.939L104.88 201.243L103.537 172.046Z" fill="#263238"/>
<path d="M47.5256 173.734C47.5256 173.734 90.0884 160.734 93.9871 160.899C97.8857 161.063 105.284 175.174 105.284 175.174L93.3363 174.739C90.2701 182.279 84.6068 190.019 78.2283 197.858L53.7987 196.718L47.5256 173.734Z" fill="#263238"/>
<path d="M82.3146 163.46C82.3146 163.543 77.9645 164.918 72.5475 166.534C67.1304 168.15 62.7158 169.39 62.6924 169.308C62.6689 169.226 67.0366 167.85 72.4595 166.24C77.8825 164.63 82.2912 163.378 82.3146 163.46Z" fill="#263238"/>
<path d="M92.2048 174.509H104.153C107.061 174.511 109.897 175.416 112.27 177.1C114.644 178.784 116.439 181.164 117.408 183.912C118.34 186.562 118.75 189.368 118.616 192.175L117.684 240.953H101.603L101.309 225.379L99.2751 195.777L85.3513 196.365L77.4602 195.871L92.2048 174.509Z" fill="#263238"/>
<path d="M92.5624 174.268C92.509 174.616 92.4326 174.959 92.3337 175.297C92.1038 176.228 91.822 177.147 91.4895 178.047C91.0034 179.383 90.4154 180.68 89.7307 181.926C88.8777 183.454 87.8971 184.907 86.7994 186.269C84.7737 188.691 82.6046 190.989 80.3036 193.151L78.2399 195.143C77.9975 195.397 77.7347 195.631 77.4543 195.842C77.6692 195.564 77.9023 195.301 78.152 195.055C78.6151 194.561 79.3245 193.879 80.1512 192.998C82.402 190.8 84.5407 188.489 86.559 186.075C88.5281 183.624 90.1208 180.893 91.2843 177.971C91.7064 176.842 92.0289 175.914 92.2165 175.267C92.3047 174.925 92.4204 174.591 92.5624 174.268Z" fill="#455A64"/>
<path d="M107.19 174.838C106.463 174.84 105.737 174.805 105.015 174.732C103.678 174.656 101.825 174.603 99.7851 174.644C97.7449 174.685 95.8923 174.809 94.5498 174.897C93.8298 174.98 93.1053 175.017 92.3806 175.008C92.57 174.942 92.767 174.901 92.9669 174.885C93.3362 174.826 93.8756 174.756 94.5439 174.679C95.8806 174.538 97.7332 174.38 99.8203 174.338C101.581 174.297 103.343 174.358 105.097 174.521C105.765 174.579 106.304 174.656 106.68 174.715C106.854 174.737 107.025 174.778 107.19 174.838Z" fill="#455A64"/>
<path d="M101.532 232.021C101.505 231.887 101.489 231.751 101.485 231.615C101.485 231.315 101.45 230.933 101.421 230.44C101.374 229.388 101.31 227.93 101.233 226.15C101.075 222.529 100.858 217.528 100.512 212.01C100.166 206.491 99.7559 201.496 99.4569 197.905C99.3104 196.142 99.1931 194.673 99.111 193.627C99.0759 193.145 99.0524 192.757 99.029 192.451C99.0122 192.315 99.0122 192.177 99.029 192.04C99.0593 192.174 99.0808 192.309 99.0934 192.446L99.2341 193.621C99.3455 194.661 99.4921 196.113 99.6797 197.888C100.031 201.496 100.471 206.491 100.823 211.992C101.175 217.493 101.351 222.524 101.456 226.15C101.491 227.913 101.526 229.388 101.55 230.44C101.55 230.922 101.55 231.31 101.55 231.615C101.559 231.751 101.553 231.887 101.532 232.021Z" fill="#263238"/>
<path d="M118.639 190.318C118.727 190.318 118.669 201.484 118.516 215.254C118.364 229.023 118.165 240.189 118.083 240.189C118 240.189 118.053 229.023 118.212 215.248C118.37 201.472 118.557 190.318 118.639 190.318Z" fill="#455A64"/>
<path d="M105.519 188.496C104.338 188.958 103.191 189.5 102.083 190.118C101.033 190.834 100.033 191.619 99.0875 192.469C99.2681 192.134 99.5062 191.833 99.791 191.581C101.074 190.269 102.661 189.294 104.411 188.743C104.763 188.597 105.138 188.514 105.519 188.496Z" fill="#263238"/>
<g opacity="0.3">
<path opacity="0.3" d="M77.4602 195.848C80.7081 196.436 84.2667 195.454 87.0456 193.715C89.8206 191.976 91.8325 189.245 92.6738 186.075C93.0314 184.67 93.1369 183.213 93.4945 181.808C93.7765 180.366 94.5444 179.065 95.6696 178.123C97.0297 177.107 100.36 176.46 101.38 175.097C101.38 174.897 97.4049 175.355 96.0741 175.432C94.6202 175.508 92.1872 175.879 92.2399 175.708C91.8552 177.12 91.3853 178.508 90.8329 179.863C87.9368 184.853 81.5758 192.205 77.4602 195.872" fill="black"/>
</g>
<path d="M11.1362 230.34L15.6621 260.001H20.147L17.9368 230.457L11.1362 230.34Z" fill="#263238"/>
<path d="M90.745 230.457V260.001H95.482L97.2467 230.34L90.745 230.457Z" fill="#263238"/>
<path d="M10.333 138.695C10.333 138.695 3.99548 138.948 2.05495 141.634C-1.36297 146.335 0.559974 150.402 0.366507 151.789C0.17304 153.176 11.1362 230.34 11.1362 230.34H15.6504L97.2232 231.098L101.163 221.56L99.2751 195.754L77.4602 195.848C77.4602 195.848 68.5256 170.143 60.7165 168.427C55.4402 167.251 43.0055 167.674 35.5072 168.062C33.6753 168.158 31.8507 167.767 30.2173 166.93C28.5838 166.094 27.1993 164.84 26.2032 163.296L10.333 138.695Z" fill="#455A64"/>
<path d="M82.6545 227.307C82.6545 227.307 82.2031 227.366 81.3355 227.407C80.4678 227.448 79.1897 227.477 77.5365 227.489C74.2241 227.536 69.4226 227.548 63.4661 227.542C51.5005 227.542 34.8213 227.442 15.9787 227.278H15.8556V227.16C15.5156 225.544 15.1697 223.881 14.8179 222.194C14.4662 220.507 14.132 218.779 13.7861 217.046C9.68226 196.112 7.29031 176.93 6.00052 163.019C5.34977 156.067 4.96284 150.425 4.71661 146.523C4.61108 144.584 4.52314 143.073 4.47038 142.033C4.47038 141.528 4.42934 141.14 4.41175 140.858C4.39416 140.576 4.41175 140.458 4.41175 140.458C4.41175 140.458 4.41175 140.593 4.45279 140.858C4.49382 141.122 4.49969 141.522 4.53486 142.033C4.60522 143.067 4.71074 144.578 4.83972 146.517C5.12113 150.413 5.54324 156.049 6.21744 163.002C7.52481 176.895 9.93436 196.059 14.0265 216.981C14.3704 218.717 14.7144 220.431 15.0583 222.123C15.4022 223.816 15.7481 225.471 16.096 227.089L15.9494 226.972L63.4368 227.342L77.5071 227.377H81.3061C81.74 227.377 82.0624 227.342 82.2852 227.342L82.6545 227.307Z" fill="#263238"/>
<path d="M81.7926 230.963C81.7884 230.838 81.8003 230.714 81.8278 230.592C81.8688 230.322 81.9157 229.975 81.9802 229.552C82.0447 229.129 82.1444 228.547 82.2147 227.901C82.2851 227.254 82.4023 226.525 82.4551 225.709C82.5079 224.892 82.6134 224.01 82.6486 223.046C82.6837 222.083 82.713 221.066 82.7306 219.985C82.7192 217.644 82.5822 215.305 82.3203 212.979C82.0377 210.656 81.6345 208.349 81.1126 206.068C80.6201 203.964 80.0925 202.095 79.5824 200.538C79.3538 199.756 79.0899 199.069 78.8789 198.452C78.6678 197.834 78.4744 197.311 78.2926 196.888L77.9291 195.901C77.8787 195.789 77.8432 195.67 77.8236 195.548C77.8892 195.652 77.9442 195.763 77.9878 195.877L78.404 196.841C78.5857 197.264 78.8027 197.782 78.9903 198.393C79.1779 199.004 79.4945 199.692 79.7407 200.473C80.2742 202.019 80.8311 203.894 81.3412 206.003C81.8796 208.293 82.2926 210.61 82.5782 212.944C82.8393 215.286 82.9684 217.64 82.9651 219.996C82.9651 221.083 82.93 222.112 82.8538 223.076C82.7775 224.04 82.7131 224.933 82.6251 225.744C82.5372 226.555 82.4258 227.295 82.332 227.936C82.2382 228.577 82.1444 229.111 82.0506 229.581C81.9568 230.052 81.8923 230.345 81.8395 230.616C81.8354 230.733 81.8197 230.849 81.7926 230.963Z" fill="#263238"/>
<path d="M21.9996 175.643C22.0998 175.54 22.2098 175.448 22.3279 175.367C22.58 175.173 22.9142 174.926 23.3129 174.608L24.034 174.074C24.3037 173.892 24.6202 173.715 24.9427 173.515C25.6709 173.044 26.4288 172.62 27.2115 172.246L28.5717 171.605C29.0407 171.37 29.5624 171.2 30.0842 170.982C30.606 170.765 31.1512 170.542 31.7258 170.36L33.4845 169.772C36.1409 168.988 38.8565 168.422 41.6043 168.079C44.3426 167.717 47.1029 167.548 49.8648 167.574C51.137 167.574 52.3447 167.656 53.4761 167.697C54.6076 167.738 55.6512 167.874 56.6068 168.009C58.1137 168.203 59.609 168.48 61.0859 168.837L62.2584 169.166C62.3985 169.201 62.5357 169.246 62.6688 169.302C62.524 169.29 62.3806 169.265 62.2408 169.225L61.0331 168.949C59.9895 168.732 58.4594 168.444 56.554 168.226C55.6043 168.103 54.5549 168.044 53.4351 167.95C52.3153 167.856 51.0901 167.827 49.8354 167.856C47.091 167.849 44.3492 168.024 41.6278 168.379C38.9019 168.721 36.2067 169.275 33.5666 170.036L31.8078 170.583C31.2216 170.759 30.6998 170.994 30.1722 171.171C29.6445 171.347 29.1286 171.547 28.6596 171.758C28.1906 171.97 27.7333 172.193 27.2995 172.399C26.5182 172.762 25.7586 173.17 25.0248 173.621C24.6964 173.809 24.3857 173.98 24.1043 174.15L23.3774 174.667L22.3631 175.373C22.2503 175.473 22.1287 175.564 21.9996 175.643Z" fill="#263238"/>
<path d="M70.4954 179.833C70.4954 179.833 70.4954 179.898 70.4368 180.027C70.3782 180.157 70.3371 180.339 70.2375 180.586C69.9337 181.282 69.5287 181.93 69.0356 182.507C68.2387 183.414 67.283 184.167 66.2157 184.729C65.548 185.072 64.854 185.361 64.1403 185.593C63.3321 185.834 62.5042 186.003 61.6663 186.098C59.7453 186.263 57.8107 186.152 55.9209 185.769C53.8749 185.405 51.7467 184.811 49.472 184.271C47.1336 183.651 44.7264 183.331 42.3079 183.318C41.0359 183.337 39.7728 183.535 38.5558 183.906C37.3041 184.293 36.1267 184.889 35.0734 185.669C33.0229 187.264 31.2956 189.237 29.9846 191.482C28.642 193.615 27.5809 195.819 26.467 197.858C25.4361 199.808 24.2062 201.646 22.797 203.341C21.5648 204.838 20.0277 206.055 18.2886 206.908C16.8448 207.606 15.271 207.993 13.6689 208.043C12.4633 208.072 11.2651 207.848 10.1513 207.384C9.74129 207.213 9.34865 207.002 8.97875 206.756C8.67389 206.526 8.39248 206.327 8.22833 206.168L7.82381 205.739C7.73 205.639 7.68896 205.586 7.68896 205.586C7.68896 205.586 7.74759 205.627 7.84139 205.715L8.26937 206.121C8.46283 206.285 8.72665 206.474 9.02565 206.709C9.39801 206.94 9.79045 207.136 10.1982 207.296C11.3004 207.729 12.48 207.93 13.663 207.884C15.2339 207.827 16.7764 207.447 18.1948 206.767C19.898 205.917 21.4025 204.716 22.6094 203.241C23.9976 201.545 25.2078 199.709 26.2208 197.764C27.3405 195.731 28.4017 193.521 29.7384 191.364C31.0697 189.092 32.823 187.097 34.9033 185.487C35.9832 184.69 37.1878 184.078 38.4678 183.677C39.7145 183.304 41.0069 183.106 42.3079 183.089C44.7528 183.105 47.1859 183.433 49.5482 184.065C51.8053 184.617 53.9276 185.24 55.9502 185.593C57.8201 185.976 59.734 186.096 61.637 185.951C62.4605 185.865 63.2747 185.706 64.07 185.475C64.777 185.255 65.4651 184.978 66.1278 184.647C67.1837 184.105 68.1347 183.378 68.936 182.502C69.61 181.712 70.1381 180.809 70.4954 179.833Z" fill="white"/>
<path d="M100.313 217.446L100.055 217.51L99.2985 217.663C98.9002 217.761 98.5085 217.885 98.126 218.033C97.8752 218.124 97.6305 218.23 97.3931 218.351C97.1148 218.472 96.8446 218.612 96.5841 218.768C95.2286 219.551 93.9676 220.487 92.8261 221.56C91.466 222.794 90.0121 224.304 88.2298 225.791C87.3031 226.583 86.2926 227.271 85.2164 227.842C84.6413 228.147 84.0435 228.406 83.4283 228.618L82.461 228.882C82.1301 228.957 81.7955 229.014 81.4585 229.053C80.0478 229.224 78.6181 229.153 77.2315 228.841C75.7681 228.498 74.3539 227.97 73.0221 227.272C70.1953 225.745 67.5798 223.855 65.2424 221.648C62.7801 219.409 60.265 217.04 57.3337 215.101C55.8977 214.134 54.3429 213.358 52.7081 212.791C51.1209 212.251 49.4458 212.017 47.7717 212.104C46.1566 212.215 44.5714 212.597 43.0816 213.232C41.6481 213.842 40.2659 214.568 38.9485 215.401C36.3572 217.005 34.0004 218.721 31.6026 220.032C26.1116 222.993 19.8402 224.175 13.6512 223.417C12.318 223.264 11.0001 222.998 9.71149 222.623C9.80021 222.631 9.88832 222.645 9.97531 222.664L10.7316 222.829C11.3941 222.97 12.3849 223.152 13.6629 223.299C17.2878 223.701 20.9552 223.448 24.4912 222.553C26.9269 221.932 29.2749 221.006 31.4795 219.796C33.8245 218.486 36.2048 216.77 38.8019 215.148C40.1301 214.304 41.5241 213.569 42.9702 212.95C44.4886 212.294 46.1054 211.897 47.7542 211.774C49.4658 211.683 51.1791 211.92 52.8019 212.474C54.4621 213.046 56.0392 213.837 57.492 214.825C60.4585 216.782 62.9794 219.162 65.4359 221.401C67.7522 223.594 70.3438 225.475 73.1453 226.996C74.4523 227.71 75.8453 228.253 77.2901 228.612C78.6448 228.924 80.043 229 81.4233 228.835C81.7544 228.798 82.0832 228.743 82.4082 228.671L83.358 228.424C83.9621 228.215 84.5499 227.961 85.1168 227.666C86.1833 227.11 87.1842 226.435 88.1009 225.656C89.8596 224.192 91.3488 222.717 92.7206 221.471C93.8706 220.389 95.1437 219.446 96.5137 218.662C96.7797 218.508 97.0559 218.373 97.3404 218.257C97.5801 218.134 97.829 218.029 98.0849 217.945C98.4828 217.807 98.8879 217.692 99.2985 217.598L100.061 217.475L100.313 217.446Z" fill="white"/>
<path d="M18.7225 153.223C18.703 153.475 18.6498 153.725 18.5642 153.963C18.3688 154.629 18.1055 155.273 17.7786 155.885C16.7133 157.935 15.0469 159.607 13.0038 160.678C10.9607 161.749 8.6392 162.166 6.35228 161.873C5.66614 161.793 4.99022 161.642 4.33554 161.421C4.0894 161.354 3.85295 161.255 3.63202 161.127C4.5328 161.37 5.44968 161.549 6.37574 161.662C8.61557 161.892 10.8735 161.458 12.8693 160.413C14.8652 159.368 16.511 157.759 17.6027 155.785C18.0335 154.957 18.4076 154.101 18.7225 153.223Z" fill="white"/>
</svg>
