<svg width="15" height="15" viewBox="0 0 15 15" fill="none" xmlns="http://www.w3.org/2000/svg">
<path fill-rule="evenodd" clip-rule="evenodd" d="M1.28021 0.219914C0.987315 -0.0729792 0.512441 -0.0729792 0.219548 0.219914C-0.0733454 0.512807 -0.0733454 0.987681 0.219548 1.28057L6.12602 7.18705L0.22024 13.0928C-0.0726531 13.3857 -0.0726531 13.8606 0.22024 14.1535C0.513133 14.4464 0.988007 14.4464 1.2809 14.1535L7.18668 8.24771L13.0925 14.1535C13.3854 14.4464 13.8602 14.4464 14.1531 14.1535C14.446 13.8606 14.446 13.3857 14.1531 13.0928L8.24734 7.18705L14.1538 1.28057C14.4467 0.987681 14.4467 0.512807 14.1538 0.219914C13.8609 -0.0729792 13.386 -0.0729792 13.0932 0.219914L7.18668 6.12639L1.28021 0.219914Z" fill="#231F20"/>
</svg>
