<svg width="60" height="61" viewBox="0 0 60 61" fill="none" xmlns="http://www.w3.org/2000/svg">
<path opacity="0.4" d="M27.751 39.8088C27.751 38.5668 28.759 37.5408 30.001 37.5408C31.243 37.5408 32.251 38.5338 32.251 39.7758V39.8088C32.251 41.0508 31.243 42.0588 30.001 42.0588C28.759 42.0588 27.751 41.0508 27.751 39.8088Z" fill="#F9A825"/>
<path d="M8.38715 52.2537H51.8332C55.2742 52.0737 57.9202 49.1427 57.7432 45.7017C57.7042 45.0057 57.5542 44.3187 57.2902 43.6767L35.4592 5.46869C33.7912 2.45369 29.9962 1.36169 26.9812 3.03269C25.9552 3.59669 25.1092 4.44269 24.5422 5.46869L2.71115 43.6767C1.41515 46.8687 2.95115 50.5047 6.14015 51.8037C6.78815 52.0647 7.47215 52.2147 8.16815 52.2537" stroke="#F9A825" stroke-width="3" stroke-linecap="round" stroke-linejoin="round"/>
<path opacity="0.4" d="M29.9697 31.1882V21.8882" stroke="#F9A825" stroke-width="3" stroke-linecap="round" stroke-linejoin="round"/>
</svg>
