<svg width="72" height="72" viewBox="0 0 72 72" fill="none" xmlns="http://www.w3.org/2000/svg">
<rect x="0.25" y="0.25" width="71.5" height="71.5" rx="9.75" fill="white" stroke="#DADADA" stroke-width="0.5"/>
<path opacity="0.4" d="M43.6667 29.3998C43.3467 29.3465 43.0134 29.3331 42.6667 29.3331H29.3334C28.9601 29.3331 28.6001 29.3598 28.2534 29.4131C28.4401 29.0398 28.7068 28.6932 29.0268 28.3732L33.3601 24.0265C35.1868 22.2132 38.1467 22.2132 39.9734 24.0265L42.3067 26.3864C43.1601 27.2264 43.6134 28.2931 43.6667 29.3998Z" stroke="#03A9F4" stroke-width="1.5" stroke-linecap="round" stroke-linejoin="round"/>
<path d="M31.9999 45.3333C31.9999 46.3333 31.7199 47.28 31.2266 48.08C30.3066 49.6267 28.6133 50.6667 26.6666 50.6667C24.7199 50.6667 23.0266 49.6267 22.1066 48.08C21.6133 47.28 21.3333 46.3333 21.3333 45.3333C21.3333 42.3867 23.7199 40 26.6666 40C29.6133 40 31.9999 42.3867 31.9999 45.3333Z" stroke="#03A9F4" stroke-width="1.5" stroke-miterlimit="10" stroke-linecap="round" stroke-linejoin="round"/>
<path d="M49.3334 36.0002V42.6668C49.3334 46.6668 46.6667 49.3335 42.6667 49.3335H30.1734C30.5867 48.9868 30.9467 48.5602 31.2267 48.0802C31.7201 47.2802 32.0001 46.3335 32.0001 45.3335C32.0001 42.3868 29.6134 40.0002 26.6667 40.0002C25.0667 40.0002 23.6401 40.7068 22.6667 41.8135V36.0002C22.6667 32.3735 24.8534 29.8402 28.2534 29.4135C28.6001 29.3602 28.9601 29.3335 29.3334 29.3335H42.6667C43.0134 29.3335 43.3467 29.3468 43.6667 29.4001C47.1067 29.8001 49.3334 32.3468 49.3334 36.0002Z" stroke="#03A9F4" stroke-width="1.5" stroke-linecap="round" stroke-linejoin="round"/>
<path opacity="0.4" d="M49.3334 36.6665H45.3334C43.8667 36.6665 42.6667 37.8665 42.6667 39.3332C42.6667 40.7998 43.8667 41.9998 45.3334 41.9998H49.3334" stroke="#03A9F4" stroke-width="1.5" stroke-linecap="round" stroke-linejoin="round"/>
<path d="M24 45.3662L29 45.3662L27.3333 43.6995" stroke="#03A9F4" stroke-width="1.25" stroke-linecap="round" stroke-linejoin="round"/>
<path d="M28.9999 45.3665L27.3333 47.0332" stroke="#03A9F4" stroke-width="1.25" stroke-linecap="round" stroke-linejoin="round"/>
</svg>
