<svg width="14" height="14" viewBox="0 0 14 14" fill="none" xmlns="http://www.w3.org/2000/svg">
<path d="M6.16667 0.632891C6.62667 0.239557 7.38 0.239557 7.84667 0.632891L8.9 1.53956C9.1 1.71289 9.47334 1.85289 9.74 1.85289H10.8733C11.58 1.85289 12.16 2.43289 12.16 3.13956V4.27289C12.16 4.53289 12.3 4.91289 12.4733 5.11289L13.38 6.16622C13.7733 6.62622 13.7733 7.37956 13.38 7.84622L12.4733 8.89956C12.3 9.09956 12.16 9.47289 12.16 9.73956V10.8729C12.16 11.5796 11.58 12.1596 10.8733 12.1596H9.74C9.48 12.1596 9.1 12.2996 8.9 12.4729L7.84667 13.3796C7.38667 13.7729 6.63334 13.7729 6.16667 13.3796L5.11334 12.4729C4.91334 12.2996 4.54 12.1596 4.27334 12.1596H3.12C2.41334 12.1596 1.83334 11.5796 1.83334 10.8729V9.73289C1.83334 9.47289 1.69334 9.09956 1.52667 8.89956L0.62667 7.83956C0.240003 7.37956 0.240003 6.63289 0.62667 6.17289L1.52667 5.11289C1.69334 4.91289 1.83334 4.53956 1.83334 4.27956V3.13289C1.83334 2.42622 2.41334 1.84622 3.12 1.84622H4.27334C4.53334 1.84622 4.91334 1.70622 5.11334 1.53289L6.16667 0.632891Z" fill="#03A9F4"/>
</svg>
