<svg width="16" height="16" viewBox="0 0 16 16" fill="none" xmlns="http://www.w3.org/2000/svg">
<path d="M12.7067 12.4462L11.28 9.59961L9.85333 12.4462" stroke="#514D56" stroke-width="1.2" stroke-linecap="round" stroke-linejoin="round"/>
<path d="M10.1133 11.9404H12.46" stroke="#514D56" stroke-width="1.2" stroke-linecap="round" stroke-linejoin="round"/>
<path d="M11.28 14.6669C9.41331 14.6669 7.89331 13.1535 7.89331 11.2802C7.89331 9.41353 9.40665 7.89355 11.28 7.89355C13.1466 7.89355 14.6666 9.40686 14.6666 11.2802C14.6666 13.1535 13.1533 14.6669 11.28 14.6669Z" stroke="#514D56" stroke-width="1.2" stroke-linecap="round" stroke-linejoin="round"/>
<path d="M3.34665 1.33301H5.95998C7.33998 1.33301 8.00665 1.99969 7.97332 3.34635V5.95968C8.00665 7.33968 7.33998 8.00636 5.95998 7.97302H3.34665C1.99998 7.99969 1.33331 7.333 1.33331 5.953V3.33968C1.33331 1.99968 1.99998 1.33301 3.34665 1.33301Z" stroke="#514D56" stroke-width="1.2" stroke-linecap="round" stroke-linejoin="round"/>
<path d="M6.00665 3.89941H3.29999" stroke="#514D56" stroke-width="1.2" stroke-linecap="round" stroke-linejoin="round"/>
<path d="M4.64667 3.44629V3.89962" stroke="#514D56" stroke-width="1.2" stroke-linecap="round" stroke-linejoin="round"/>
<path d="M5.32667 3.89258C5.32667 5.05924 4.41333 6.0059 3.29333 6.0059" stroke="#514D56" stroke-width="1.2" stroke-linecap="round" stroke-linejoin="round"/>
<path d="M6.00664 6.00635C5.51998 6.00635 5.07998 5.74634 4.77332 5.33301" stroke="#514D56" stroke-width="1.2" stroke-linecap="round" stroke-linejoin="round"/>
<path opacity="0.4" d="M1.33331 10C1.33331 12.58 3.41998 14.6667 5.99998 14.6667L5.29998 13.5" stroke="#514D56" stroke-width="1.2" stroke-linecap="round" stroke-linejoin="round"/>
<path opacity="0.4" d="M14.6667 5.99967C14.6667 3.41967 12.58 1.33301 10 1.33301L10.7 2.49967" stroke="#514D56" stroke-width="1.2" stroke-linecap="round" stroke-linejoin="round"/>
</svg>
