<svg width="225" height="260" viewBox="0 0 225 260" fill="none" xmlns="http://www.w3.org/2000/svg">
<path d="M225 0H168.551V73.6497H225V0Z" fill="#455A64"/>
<path d="M224.989 0C224.946 0.0733303 224.894 0.140669 224.834 0.200228L224.348 0.772309L222.444 2.88329V2.91189H222.41C217.499 2.96338 207.859 2.9977 196.79 2.9977C185.721 2.9977 176.07 2.96338 171.164 2.91189H171.13V2.88329L169.226 0.772309L168.74 0.200228C168.68 0.140669 168.628 0.0733303 168.586 0C168.654 0.0485327 168.716 0.106283 168.769 0.171624L169.283 0.692218L171.244 2.75171H171.187C176.093 2.70022 185.738 2.6659 196.813 2.6659C207.888 2.6659 217.521 2.70022 222.433 2.75171H222.376L224.337 0.692218L224.851 0.171624C224.89 0.109109 224.936 0.0514859 224.989 0Z" fill="#263238"/>
<path d="M168.551 73.6556C168.594 73.5823 168.645 73.515 168.706 73.4554L169.192 72.8833L171.096 70.7723H171.13C176.041 70.7208 185.681 70.6865 196.75 70.6865C207.819 70.6865 217.464 70.7208 222.376 70.7723H222.41L224.36 72.9176L224.846 73.4897C224.906 73.5493 224.958 73.6166 225 73.6899C224.931 73.6414 224.87 73.5837 224.817 73.5183L224.302 72.9977L222.341 70.9382H222.398C217.487 70.9897 207.847 71.024 196.773 71.024C185.698 71.024 176.064 70.9897 171.153 70.9382H171.21L169.249 72.9977L168.734 73.5183C168.679 73.5716 168.618 73.6177 168.551 73.6556Z" fill="#263238"/>
<path d="M222.398 2.80908H171.153V70.8524H222.398V2.80908Z" fill="white"/>
<path d="M179.174 50.9495C180.695 49.485 182.948 49.0674 185.052 49.1189C187.156 49.1703 189.243 49.6223 191.341 49.5994C194.703 49.5536 198.059 48.2951 201.375 48.8786C202.439 49.0616 203.514 49.4507 204.566 49.2104C205.486 49.0102 206.281 48.3751 207.162 48.1005C209.5 47.3969 212.13 49.2447 214.371 48.2836V63.4724H179.174V50.9495Z" fill="#FFCB08"/>
<path d="M179.883 51.5617C179.792 51.5617 179.718 42.5629 179.718 31.4703C179.718 20.3776 179.792 11.373 179.883 11.373C179.975 11.373 180.044 20.3719 180.044 31.4703C180.044 42.5686 179.969 51.5617 179.883 51.5617Z" fill="#263238"/>
<path d="M181.484 51.5617C181.393 51.5617 181.318 42.5629 181.318 31.4703C181.318 20.3776 181.393 11.373 181.484 11.373C181.576 11.373 181.65 20.3719 181.65 31.4703C181.65 42.5686 181.576 51.5617 181.484 51.5617Z" fill="#263238"/>
<path d="M183.085 51.5617C182.999 51.5617 182.925 42.5629 182.925 31.4703C182.925 20.3776 182.999 11.373 183.085 11.373C183.171 11.373 183.251 20.3719 183.251 31.4703C183.251 42.5686 183.177 51.5617 183.085 51.5617Z" fill="#263238"/>
<path d="M184.692 51.5617C184.6 51.5617 184.526 42.5629 184.526 31.4703C184.526 20.3776 184.6 11.373 184.692 11.373C184.783 11.373 184.852 20.3719 184.852 31.4703C184.852 42.5686 184.778 51.5617 184.692 51.5617Z" fill="#263238"/>
<path d="M186.293 51.5617C186.201 51.5617 186.127 42.5629 186.127 31.4703C186.127 20.3776 186.201 11.373 186.293 11.373C186.384 11.373 186.459 20.3719 186.459 31.4703C186.459 42.5686 186.384 51.5617 186.293 51.5617Z" fill="#263238"/>
<path d="M187.894 51.5617C187.808 51.5617 187.733 42.5629 187.733 31.4703C187.733 20.3776 187.808 11.373 187.894 11.373C187.979 11.373 188.059 20.3719 188.059 31.4703C188.059 42.5686 187.985 51.5617 187.894 51.5617Z" fill="#263238"/>
<path d="M189.5 51.5617C189.409 51.5617 189.334 42.5629 189.334 31.4703C189.334 20.3776 189.409 11.373 189.5 11.373C189.592 11.373 189.66 20.3719 189.66 31.4703C189.66 42.5686 189.592 51.5617 189.5 51.5617Z" fill="#263238"/>
<path d="M191.101 51.5617C191.01 51.5617 190.935 42.5629 190.935 31.4703C190.935 20.3776 191.01 11.373 191.101 11.373C191.193 11.373 191.267 20.3719 191.267 31.4703C191.267 42.5686 191.193 51.5617 191.101 51.5617Z" fill="#263238"/>
<path d="M192.702 51.5617C192.616 51.5617 192.542 42.5629 192.542 31.4703C192.542 20.3776 192.616 11.373 192.702 11.373C192.788 11.373 192.868 20.3719 192.868 31.4703C192.868 42.5686 192.794 51.5617 192.702 51.5617Z" fill="#263238"/>
<path d="M194.309 51.5617C194.217 51.5617 194.143 42.5629 194.143 31.4703C194.143 20.3776 194.217 11.373 194.309 11.373C194.4 11.373 194.469 20.3719 194.469 31.4703C194.469 42.5686 194.4 51.5617 194.309 51.5617Z" fill="#263238"/>
<path d="M195.91 51.5617C195.818 51.5617 195.749 42.5629 195.749 31.4703C195.749 20.3776 195.818 11.373 195.91 11.373C196.001 11.373 196.075 20.3719 196.075 31.4703C196.075 42.5686 196.001 51.5617 195.91 51.5617Z" fill="#263238"/>
<path d="M197.51 51.5617C197.425 51.5617 197.35 42.5629 197.35 31.4703C197.35 20.3776 197.425 11.373 197.51 11.373C197.596 11.373 197.676 20.3719 197.676 31.4703C197.676 42.5686 197.602 51.5617 197.51 51.5617Z" fill="#263238"/>
<path d="M199.117 51.5617C199.025 51.5617 198.951 42.5629 198.951 31.4703C198.951 20.3776 199.025 11.373 199.117 11.373C199.208 11.373 199.277 20.3719 199.277 31.4703C199.277 42.5686 199.208 51.5617 199.117 51.5617Z" fill="#263238"/>
<path d="M200.718 51.5617C200.627 51.5617 200.558 42.5629 200.558 31.4703C200.558 20.3776 200.627 11.373 200.718 11.373C200.81 11.373 200.884 20.3719 200.884 31.4703C200.884 42.5686 200.81 51.5617 200.718 51.5617Z" fill="#263238"/>
<path d="M202.325 51.5617C202.233 51.5617 202.159 42.5629 202.159 31.4703C202.159 20.3776 202.233 11.373 202.325 11.373C202.416 11.373 202.485 20.3719 202.485 31.4703C202.485 42.5686 202.41 51.5617 202.325 51.5617Z" fill="#263238"/>
<path d="M203.925 51.5617C203.834 51.5617 203.76 42.5629 203.76 31.4703C203.76 20.3776 203.834 11.373 203.925 11.373C204.017 11.373 204.086 20.3719 204.086 31.4703C204.086 42.5686 204.017 51.5617 203.925 51.5617Z" fill="#263238"/>
<path d="M205.549 51.5617C205.458 51.5617 205.389 42.5629 205.389 31.4703C205.389 20.3776 205.458 11.373 205.549 11.373C205.641 11.373 205.715 20.3719 205.715 31.4703C205.715 42.5686 205.618 51.5617 205.549 51.5617Z" fill="#263238"/>
<path d="M207.133 51.5617C207.041 51.5617 206.967 42.5629 206.967 31.4703C206.967 20.3776 207.041 11.373 207.133 11.373C207.224 11.373 207.293 20.3719 207.293 31.4703C207.293 42.5686 207.219 51.5617 207.133 51.5617Z" fill="#263238"/>
<path d="M208.734 51.5617C208.642 51.5617 208.568 42.5629 208.568 31.4703C208.568 20.3776 208.642 11.373 208.734 11.373C208.825 11.373 208.9 20.3719 208.9 31.4703C208.9 42.5686 208.825 51.5617 208.734 51.5617Z" fill="#263238"/>
<path d="M210.335 51.5617C210.243 51.5617 210.175 42.5629 210.175 31.4703C210.175 20.3776 210.243 11.373 210.335 11.373C210.426 11.373 210.501 20.3719 210.501 31.4703C210.501 42.5686 210.426 51.5617 210.335 51.5617Z" fill="#263238"/>
<path d="M211.941 51.5617C211.85 51.5617 211.776 42.5629 211.776 31.4703C211.776 20.3776 211.85 11.373 211.941 11.373C212.033 11.373 212.102 20.3719 212.102 31.4703C212.102 42.5686 212.027 51.5617 211.941 51.5617Z" fill="#263238"/>
<path d="M213.554 51.5617C213.462 51.5617 213.388 42.5629 213.388 31.4703C213.388 20.3776 213.462 11.373 213.554 11.373C213.645 11.373 213.72 20.3719 213.72 31.4703C213.72 42.5686 213.634 51.5617 213.554 51.5617Z" fill="#263238"/>
<path d="M207.585 96.4819H198.408C197.439 96.4819 196.653 97.2682 196.653 98.2382V107.363C196.653 108.333 197.439 109.119 198.408 109.119H207.585C208.554 109.119 209.34 108.333 209.34 107.363V98.2382C209.34 97.2682 208.554 96.4819 207.585 96.4819Z" fill="#E0E0E0"/>
<path d="M198.408 109.113C198.245 109.132 198.081 109.121 197.922 109.079C197.692 109.019 197.477 108.914 197.288 108.769C197.1 108.625 196.942 108.444 196.824 108.238C196.651 107.936 196.566 107.591 196.579 107.243C196.579 106.877 196.579 106.476 196.579 106.053C196.579 105.189 196.579 104.216 196.579 103.141C196.579 102.065 196.579 100.853 196.579 99.6168V98.6614C196.55 98.3151 196.583 97.9665 196.676 97.6317C196.798 97.2765 197.024 96.9657 197.323 96.7386C197.622 96.5115 197.982 96.3784 198.357 96.356H207.63C208.077 96.3618 208.508 96.5191 208.854 96.8022C209.19 97.0877 209.42 97.4789 209.506 97.912C209.54 98.3172 209.55 98.7242 209.534 99.1306V100.275C209.534 101.825 209.534 103.324 209.534 104.748C209.534 105.458 209.534 106.156 209.534 106.831C209.554 107.174 209.529 107.518 209.46 107.855C209.369 108.191 209.184 108.494 208.928 108.73C208.684 108.957 208.384 109.115 208.059 109.188C207.753 109.234 207.442 109.248 207.133 109.228H205.418L200.312 109.182H198.928C198.766 109.185 198.603 109.174 198.442 109.148C198.604 109.13 198.766 109.12 198.928 109.119L200.312 109.09L205.418 109.045H207.133C207.423 109.062 207.715 109.046 208.002 108.999C208.288 108.935 208.55 108.794 208.762 108.593C208.982 108.387 209.139 108.123 209.214 107.832C209.275 107.517 209.294 107.196 209.271 106.877C209.271 106.201 209.271 105.504 209.271 104.794C209.271 103.37 209.271 101.871 209.271 100.32V99.1763C209.282 98.7947 209.272 98.4128 209.243 98.0322C209.172 97.6636 208.976 97.3311 208.686 97.092C208.397 96.8529 208.034 96.7221 207.659 96.7221H198.402C198.081 96.7393 197.771 96.8518 197.514 97.0453C197.256 97.2389 197.062 97.5047 196.956 97.809C196.868 98.1155 196.835 98.4351 196.859 98.753C196.859 99.0791 196.859 99.4052 196.859 99.7198C196.859 100.984 196.859 102.163 196.859 103.244C196.859 104.325 196.859 105.292 196.859 106.156C196.859 107.02 196.739 107.769 197.047 108.284C197.265 108.686 197.63 108.987 198.065 109.125C198.242 109.108 198.408 109.096 198.408 109.113Z" fill="#263238"/>
<path d="M198.688 102.798C198.684 103.655 198.934 104.495 199.407 105.21C199.88 105.926 200.555 106.484 201.345 106.815C202.136 107.146 203.007 107.235 203.849 107.07C204.69 106.905 205.463 106.494 206.07 105.889C206.678 105.283 207.092 104.511 207.26 103.67C207.428 102.829 207.343 101.957 207.015 101.165C206.688 100.372 206.132 99.6946 205.419 99.2184C204.706 98.7423 203.868 98.4886 203.01 98.4898C202.444 98.4883 201.883 98.5985 201.359 98.8143C200.835 99.03 200.358 99.347 199.957 99.7471C199.555 100.147 199.237 100.623 199.019 101.146C198.801 101.669 198.689 102.231 198.688 102.798Z" fill="#E0E0E0"/>
<path d="M198.688 102.797C198.674 102.706 198.674 102.614 198.688 102.523C198.687 102.255 198.719 101.987 198.785 101.728C199.007 100.755 199.561 99.8912 200.352 99.2848C200.94 98.8308 201.632 98.5321 202.365 98.4161C203.099 98.3001 203.85 98.3707 204.549 98.6212C205.379 98.914 206.102 99.4502 206.624 100.16C207.195 100.92 207.505 101.846 207.505 102.797C207.505 103.749 207.195 104.674 206.624 105.435C206.102 106.144 205.379 106.681 204.549 106.974C203.85 107.224 203.099 107.295 202.365 107.179C201.632 107.063 200.94 106.764 200.352 106.31C199.563 105.702 199.009 104.838 198.785 103.867C198.72 103.607 198.687 103.34 198.688 103.072C198.674 102.981 198.674 102.888 198.688 102.797C198.722 102.797 198.688 103.181 198.877 103.839C199.139 104.755 199.696 105.559 200.461 106.127C200.985 106.519 201.594 106.782 202.239 106.893C202.974 107.026 203.732 106.961 204.434 106.705C205.212 106.424 205.887 105.916 206.372 105.246C206.903 104.534 207.189 103.671 207.189 102.783C207.189 101.896 206.903 101.032 206.372 100.32C205.886 99.6534 205.211 99.1474 204.434 98.8672C203.732 98.6123 202.975 98.5453 202.239 98.6727C201.594 98.7892 200.986 99.0535 200.461 99.445C199.696 100.013 199.139 100.817 198.877 101.733C198.688 102.414 198.688 102.797 198.688 102.797Z" fill="#263238"/>
<path d="M204.686 103.719C205.188 103.719 205.595 103.311 205.595 102.809C205.595 102.307 205.188 101.899 204.686 101.899C204.184 101.899 203.777 102.307 203.777 102.809C203.777 103.311 204.184 103.719 204.686 103.719Z" fill="#263238"/>
<path d="M201.45 103.719C201.952 103.719 202.359 103.311 202.359 102.809C202.359 102.307 201.952 101.899 201.45 101.899C200.948 101.899 200.541 102.307 200.541 102.809C200.541 103.311 200.948 103.719 201.45 103.719Z" fill="#263238"/>
<path d="M80.9538 11.4473H9.06795C4.39458 11.4473 0.606079 15.238 0.606079 19.9141V180.085C0.606079 184.761 4.39458 188.552 9.06795 188.552H80.9538C85.6272 188.552 89.4157 184.761 89.4157 180.085V19.9141C89.4157 15.238 85.6272 11.4473 80.9538 11.4473Z" fill="#263238"/>
<path d="M88.0149 179.479L88.0149 20.5262C88.0149 16.2925 84.5848 12.8604 80.3535 12.8604L9.66254 12.8604C5.43126 12.8604 2.00113 16.2925 2.00113 20.5262L2.00113 179.479C2.00113 183.713 5.43126 187.145 9.66254 187.145H80.3535C84.5848 187.145 88.0149 183.713 88.0149 179.479Z" fill="#263238"/>
<path d="M38.6329 18.4381C38.369 18.4381 38.116 18.3332 37.9294 18.1466C37.7429 17.9599 37.6381 17.7067 37.6381 17.4427C37.6381 17.1787 37.7429 16.9255 37.9294 16.7388C38.116 16.5521 38.369 16.4473 38.6329 16.4473H51.3314C51.5953 16.4473 51.8483 16.5521 52.0349 16.7388C52.2214 16.9255 52.3263 17.1787 52.3263 17.4427C52.3263 17.7067 52.2214 17.9599 52.0349 18.1466C51.8483 18.3332 51.5953 18.4381 51.3314 18.4381H38.6329Z" fill="#455A64"/>
<path d="M31.8235 18.438C31.627 18.4403 31.4343 18.3842 31.2696 18.277C31.1049 18.1697 30.9756 18.0161 30.8981 17.8354C30.8205 17.6547 30.7982 17.4551 30.834 17.2618C30.8697 17.0684 30.9618 16.89 31.0988 16.749C31.2357 16.608 31.4113 16.5107 31.6035 16.4694C31.7956 16.4282 31.9956 16.4448 32.1783 16.5171C32.3611 16.5895 32.5183 16.7144 32.6301 16.876C32.742 17.0377 32.8035 17.2289 32.8069 17.4255C32.81 17.5569 32.7868 17.6876 32.7388 17.8099C32.6908 17.9323 32.619 18.0438 32.5274 18.1381C32.4359 18.2323 32.3265 18.3074 32.2056 18.3589C32.0848 18.4104 31.9549 18.4373 31.8235 18.438Z" fill="#263238"/>
<path d="M35.4541 18.4381C35.2578 18.4392 35.0656 18.3822 34.9017 18.2742C34.7377 18.1663 34.6093 18.0122 34.5327 17.8314C34.456 17.6506 34.4345 17.4512 34.4709 17.2582C34.5073 17.0653 34.5999 16.8873 34.7371 16.7469C34.8742 16.6065 35.0499 16.5098 35.2419 16.469C35.4339 16.4282 35.6336 16.4451 35.816 16.5177C35.9984 16.5902 36.1553 16.7151 36.2669 16.8767C36.3785 17.0382 36.4398 17.2292 36.4432 17.4255C36.4463 17.5574 36.4229 17.6886 36.3746 17.8113C36.3262 17.934 36.2539 18.0458 36.1617 18.1402C36.0696 18.2345 35.9595 18.3095 35.838 18.3606C35.7164 18.4118 35.5859 18.4381 35.4541 18.4381Z" fill="#455A64"/>
<path d="M58.1983 18.438C58.0018 18.4403 57.809 18.3842 57.6443 18.277C57.4796 18.1697 57.3504 18.0161 57.2728 17.8354C57.1953 17.6547 57.173 17.4551 57.2087 17.2618C57.2444 17.0684 57.3366 16.89 57.4735 16.749C57.6105 16.608 57.7861 16.5107 57.9782 16.4694C58.1703 16.4282 58.3704 16.4448 58.5531 16.5171C58.7358 16.5895 58.893 16.7144 59.0049 16.876C59.1168 17.0377 59.1783 17.2289 59.1817 17.4255C59.1839 17.5567 59.1603 17.687 59.112 17.809C59.0637 17.931 58.9918 18.0423 58.9004 18.1364C58.8091 18.2305 58.7 18.3056 58.5795 18.3574C58.4589 18.4091 58.3294 18.4366 58.1983 18.438Z" fill="#455A64"/>
<path d="M54.5618 18.4381C54.3655 18.4392 54.1733 18.3822 54.0094 18.2742C53.8454 18.1663 53.7171 18.0122 53.6404 17.8314C53.5638 17.6506 53.5423 17.4512 53.5786 17.2582C53.615 17.0653 53.7076 16.8873 53.8448 16.7469C53.982 16.6065 54.1576 16.5098 54.3496 16.469C54.5416 16.4282 54.7413 16.4451 54.9237 16.5177C55.1061 16.5902 55.263 16.7151 55.3746 16.8767C55.4862 17.0382 55.5475 17.2292 55.5509 17.4255C55.554 17.5574 55.5306 17.6886 55.4823 17.8113C55.434 17.934 55.3616 18.0458 55.2694 18.1402C55.1773 18.2345 55.0672 18.3095 54.9457 18.3606C54.8242 18.4118 54.6937 18.4381 54.5618 18.4381Z" fill="#263238"/>
<path d="M78.381 14.0505H65.9112C64.9475 14.0533 64.0109 14.3695 63.2425 14.9515C62.4742 15.5335 61.9158 16.3497 61.6517 17.277L61.4687 17.9979C61.1811 18.9888 60.5796 19.8593 59.7546 20.4784C58.9296 21.0975 57.9259 21.4316 56.8947 21.4303H33.1386C32.1071 21.4325 31.103 21.0988 30.2778 20.4796C29.4527 19.8603 28.8513 18.9892 28.5646 17.9979L28.3531 17.2656C28.0878 16.3378 27.5283 15.5215 26.759 14.9395C25.9897 14.3576 25.0522 14.0415 24.0878 14.0391H12.7901C11.6318 14.0436 10.4858 14.2764 9.41748 14.7242C8.34917 15.1721 7.37954 15.8261 6.56397 16.6491C5.74841 17.472 5.1029 18.4477 4.66434 19.5204C4.22578 20.593 4.00276 21.7417 4.00803 22.9006V176.464C4.00351 177.557 4.21461 178.639 4.62922 179.649C5.04382 180.66 5.65377 181.578 6.42405 182.352C7.19433 183.126 8.10977 183.74 9.11785 184.159C10.1259 184.578 11.2068 184.794 12.2984 184.794H78.5639C80.5539 184.786 82.4595 183.988 83.8619 182.576C85.2642 181.163 86.0485 179.251 86.0424 177.26V21.7393C86.0462 20.7304 85.8507 19.7308 85.4673 18.7977C85.0839 17.8647 84.5201 17.0166 83.8082 16.3022C83.0963 15.5878 82.2504 15.0211 81.3191 14.6347C80.3877 14.2483 79.3892 14.0497 78.381 14.0505Z" fill="#F5F5F5"/>
<path d="M89.5125 70.2974H89.4153V49.9427H89.5125C89.6415 49.9427 89.7652 49.9939 89.8564 50.0851C89.9475 50.1763 89.9988 50.3 89.9988 50.429V69.8111C89.9988 69.9401 89.9475 70.0637 89.8564 70.1549C89.7652 70.2461 89.6415 70.2974 89.5125 70.2974Z" fill="#455A64"/>
<path d="M0.503434 62.4883H0.606409V75.3773H0.503434C0.369916 75.3773 0.241866 75.3242 0.147455 75.2298C0.053043 75.1354 0 75.0074 0 74.8738V62.986C0.00150606 62.8535 0.0552135 62.7269 0.149462 62.6337C0.243711 62.5405 0.370901 62.4883 0.503434 62.4883Z" fill="#263238"/>
<path d="M0.503434 45.6519H0.606409V58.5408H0.503434C0.369916 58.5408 0.241866 58.4878 0.147455 58.3934C0.053043 58.299 0 58.1709 0 58.0374V46.1496C0.00150606 46.017 0.0552135 45.8905 0.149462 45.7973C0.243711 45.7041 0.370901 45.6518 0.503434 45.6519Z" fill="#263238"/>
<path d="M0.520537 33.0093H0.60635V39.0047H0.520537C0.463441 39.0047 0.406903 38.9934 0.354153 38.9716C0.301403 38.9497 0.253474 38.9177 0.213101 38.8773C0.172728 38.837 0.140701 38.789 0.118851 38.7363C0.0970016 38.6835 0.0857544 38.627 0.0857544 38.5699V33.4441C0.0857544 33.387 0.0970016 33.3304 0.118851 33.2777C0.140701 33.2249 0.172728 33.177 0.213101 33.1366C0.253474 33.0963 0.301403 33.0642 0.354153 33.0424C0.406903 33.0205 0.463441 33.0093 0.520537 33.0093Z" fill="#263238"/>
<path d="M61.8003 133.558H30.3542C29.2477 133.556 28.187 133.116 27.4046 132.333C26.6222 131.55 26.1819 130.489 26.1804 129.382V69.8852C26.1819 68.778 26.6222 67.7167 27.4046 66.9338C28.187 66.151 29.2477 65.7105 30.3542 65.709H61.8003C62.9073 65.7105 63.9687 66.1508 64.752 66.9335C65.5353 67.7162 65.9768 68.7775 65.9798 69.8852V129.382C65.9768 130.489 65.5353 131.551 64.752 132.333C63.9687 133.116 62.9073 133.556 61.8003 133.558ZM30.3542 66.2753C29.3993 66.2769 28.484 66.6571 27.8088 67.3326C27.1337 68.0082 26.7537 68.9241 26.7522 69.8795V129.376C26.7537 130.331 27.1337 131.247 27.8088 131.923C28.484 132.598 29.3993 132.978 30.3542 132.98H61.8003C62.7562 132.98 63.6729 132.6 64.3493 131.925C65.0258 131.249 65.4065 130.332 65.408 129.376V69.8795C65.4065 68.9231 65.0258 68.0064 64.3493 67.3306C63.6729 66.6549 62.7562 66.2753 61.8003 66.2753H30.3542Z" fill="#263238"/>
<path d="M38.5472 60.1201H53.5956C54.0657 60.1201 54.5165 60.307 54.8489 60.6395C55.1813 60.9721 55.368 61.4232 55.368 61.8936V65.9611H36.7748V61.8936C36.7748 61.4232 36.9615 60.9721 37.2939 60.6395C37.6263 60.307 38.0771 60.1201 38.5472 60.1201Z" fill="#263238"/>
<path d="M28.6275 121.035H63.5041V128.135C63.5041 128.851 63.2198 129.538 62.7137 130.044C62.2076 130.55 61.5212 130.835 60.8055 130.835H31.3319C30.6161 130.835 29.9297 130.55 29.4236 130.044C28.9175 129.538 28.6332 128.851 28.6332 128.135V121.035H28.6275Z" fill="#FFCB08"/>
<path d="M43.6816 96.0068C43.8692 96.1936 44.0167 96.4169 44.115 96.6628C44.2133 96.9087 44.2604 97.1722 44.2533 97.437C44.2596 97.8486 44.1448 98.253 43.9232 98.5998C43.7016 98.9467 43.383 99.2207 43.0069 99.3878C42.531 99.6008 42.0129 99.7026 41.4918 99.6852C40.9814 99.686 40.474 99.6068 39.9881 99.4507C39.5538 99.3163 39.1526 99.0922 38.8103 98.7928L39.2906 97.9633C39.5679 98.2181 39.895 98.4129 40.2511 98.5354C40.6485 98.681 41.0686 98.7546 41.4918 98.7527C41.9419 98.7807 42.3885 98.658 42.7611 98.4038C42.9076 98.2926 43.0251 98.1477 43.1038 97.9814C43.1824 97.8151 43.2198 97.6323 43.2128 97.4484C43.2219 97.2659 43.1854 97.084 43.1065 96.9191C43.0276 96.7543 42.9089 96.6118 42.7611 96.5045C42.3565 96.2512 41.8821 96.133 41.406 96.1669H40.8343V95.4347L42.6696 93.1464H39.1591V92.2539H43.9732V92.9404L42.0292 95.3374C42.6414 95.3598 43.2263 95.5967 43.6816 96.0068Z" fill="#263238"/>
<path d="M45.4597 95.6406C45.1513 95.2211 44.985 94.714 44.985 94.1932C44.985 93.6725 45.1513 93.1654 45.4597 92.7459C45.6136 92.5726 45.8025 92.4339 46.0139 92.3389C46.2253 92.2439 46.4544 92.1948 46.6861 92.1948C46.9178 92.1948 47.1469 92.2439 47.3583 92.3389C47.5696 92.4339 47.7585 92.5726 47.9125 92.7459C48.2135 93.1705 48.3753 93.6783 48.3753 94.1989C48.3753 94.7196 48.2135 95.2274 47.9125 95.652C47.7595 95.827 47.571 95.9671 47.3595 96.0632C47.1479 96.1592 46.9183 96.2089 46.6861 96.2089C46.4538 96.2089 46.2242 96.1592 46.0127 96.0632C45.8012 95.9671 45.6126 95.827 45.4597 95.652V95.6406ZM47.4379 95.2287C47.6142 94.9121 47.7067 94.5556 47.7067 94.1932C47.7067 93.8308 47.6142 93.4744 47.4379 93.1578C47.3505 93.0417 47.2374 92.9475 47.1074 92.8826C46.9774 92.8178 46.8342 92.784 46.6889 92.784C46.5437 92.784 46.4004 92.8178 46.2704 92.8826C46.1405 92.9475 46.0273 93.0417 45.9399 93.1578C45.7604 93.4712 45.6659 93.8262 45.6659 94.1875C45.6659 94.5488 45.7604 94.9038 45.9399 95.2172C46.0273 95.3333 46.1405 95.4275 46.2704 95.4924C46.4004 95.5572 46.5437 95.591 46.6889 95.591C46.8342 95.591 46.9774 95.5572 47.1074 95.4924C47.2374 95.4275 47.3505 95.3333 47.4379 95.2172V95.2287ZM51.0857 92.2539H51.8918L46.9062 99.5994H46.1057L51.0857 92.2539ZM50.0794 99.1188C49.7783 98.6942 49.6166 98.1864 49.6166 97.6658C49.6166 97.1451 49.7783 96.6373 50.0794 96.2127C50.2261 96.0287 50.4135 95.8813 50.6268 95.782C50.8401 95.6827 51.0735 95.6343 51.3086 95.6406C51.5436 95.6356 51.7766 95.6846 51.9897 95.7838C52.2028 95.883 52.3903 96.0297 52.5379 96.2127C52.8429 96.6336 53.0071 97.1401 53.0071 97.66C53.0071 98.1799 52.8429 98.6865 52.5379 99.1074C52.3834 99.2808 52.1941 99.4196 51.9822 99.5146C51.7704 99.6096 51.5408 99.6588 51.3086 99.6588C51.0765 99.6588 50.8469 99.6096 50.6351 99.5146C50.4232 99.4196 50.2339 99.2808 50.0794 99.1074V99.1188ZM52.0519 98.6955C52.2315 98.382 52.3259 98.027 52.3259 97.6658C52.3259 97.3045 52.2315 96.9495 52.0519 96.636C51.9692 96.5162 51.8579 96.4189 51.7281 96.3529C51.5983 96.287 51.4542 96.2545 51.3086 96.2584C51.162 96.2535 51.0164 96.2849 50.8847 96.3497C50.7531 96.4146 50.6395 96.511 50.5539 96.6303C50.3777 96.9469 50.2852 97.3033 50.2852 97.6658C50.2852 98.0282 50.3777 98.3846 50.5539 98.7012C50.6395 98.8205 50.7531 98.9169 50.8847 98.9818C51.0164 99.0466 51.162 99.078 51.3086 99.0731C51.4556 99.0773 51.6013 99.0444 51.7322 98.9774C51.8631 98.9104 51.975 98.8115 52.0576 98.6898L52.0519 98.6955Z" fill="#263238"/>
<path d="M26.8779 141.567H27.7356V144.428H29.5308V145.097H26.8779V141.567Z" fill="#263238"/>
<path d="M30.6343 144.942C30.3434 144.789 30.1 144.559 29.9301 144.277C29.7603 143.995 29.6705 143.672 29.6705 143.343C29.6705 143.014 29.7603 142.692 29.9301 142.41C30.1 142.128 30.3434 141.898 30.6343 141.744C30.9444 141.581 31.2904 141.499 31.6406 141.504C31.989 141.499 32.3332 141.581 32.6412 141.744C32.9306 141.896 33.1736 142.124 33.3444 142.402C33.5169 142.687 33.6061 143.014 33.6017 143.346C33.6063 143.677 33.517 144.002 33.3444 144.284C33.1736 144.563 32.9306 144.791 32.6412 144.942C32.3332 145.105 31.989 145.188 31.6406 145.183C31.2904 145.188 30.9444 145.105 30.6343 144.942ZM32.2123 144.336C32.3804 144.242 32.5189 144.104 32.6126 143.936C32.709 143.76 32.7601 143.564 32.7612 143.363C32.7626 143.163 32.7113 142.966 32.6126 142.791C32.5191 142.622 32.3806 142.481 32.2123 142.385C32.0365 142.291 31.8401 142.242 31.6406 142.242C31.4411 142.242 31.2447 142.291 31.0689 142.385C30.9006 142.481 30.7621 142.622 30.6686 142.791C30.5699 142.966 30.5186 143.163 30.52 143.363C30.5211 143.564 30.5722 143.76 30.6686 143.936C30.7623 144.104 30.9008 144.242 31.0689 144.336C31.2436 144.434 31.4404 144.485 31.6406 144.485C31.8408 144.485 32.0376 144.434 32.2123 144.336Z" fill="#263238"/>
<path d="M39.5192 141.567L38.3471 145.12H37.4552L36.6662 142.717L35.8543 145.12H34.9681L33.796 141.567H34.6536L35.4598 144.067L36.3117 141.567H37.0779L37.8955 144.085L38.7302 141.567H39.5192Z" fill="#263238"/>
<path d="M44.6135 143.598C44.7355 143.763 44.7962 143.966 44.785 144.17C44.7912 144.311 44.7607 144.451 44.6966 144.576C44.6324 144.702 44.5368 144.808 44.4191 144.886C44.098 145.075 43.7274 145.162 43.3556 145.137H41.5032V141.567H43.2527C43.6042 141.547 43.9535 141.635 44.2533 141.819C44.3649 141.892 44.4561 141.993 44.5181 142.111C44.5801 142.229 44.611 142.361 44.6078 142.494C44.6091 142.655 44.5655 142.814 44.482 142.952C44.3981 143.089 44.2772 143.2 44.1332 143.272C44.3223 143.33 44.4896 143.444 44.6135 143.598ZM42.3265 142.185V143.026H43.1727C43.3345 143.039 43.4963 143.001 43.6358 142.918C43.688 142.884 43.7304 142.837 43.7585 142.782C43.7867 142.727 43.7996 142.665 43.7959 142.603C43.7998 142.542 43.7869 142.481 43.7587 142.426C43.7305 142.372 43.688 142.326 43.6358 142.294C43.4963 142.211 43.3345 142.173 43.1727 142.185H42.3265ZM43.7845 144.394C43.8395 144.36 43.8842 144.312 43.9135 144.254C43.9428 144.196 43.9555 144.132 43.9503 144.067C43.9503 143.77 43.733 143.627 43.2927 143.627H42.3265V144.502H43.2927C43.4637 144.515 43.6346 144.477 43.7845 144.394Z" fill="#263238"/>
<path d="M47.7753 144.359H46.1116L45.7914 145.12H44.9452L46.5404 141.567H47.358L48.9589 145.12H48.0898L47.7753 144.359ZM47.5123 143.736L46.9406 142.374L46.3688 143.736H47.5123Z" fill="#263238"/>
<path d="M49.8964 142.237H48.7529V141.567H51.8747V142.237H50.7312V145.097H49.9021L49.8964 142.237Z" fill="#263238"/>
<path d="M53.1096 142.237H51.9661V141.567H55.0878V142.237H53.9443V145.097H53.121L53.1096 142.237Z" fill="#263238"/>
<path d="M58.3012 144.462V145.12H55.5282V141.567H58.2326V142.225H56.3515V142.998H58.0382V143.638H56.3801V144.462H58.3012Z" fill="#263238"/>
<path d="M61.24 145.12L60.5482 144.131H59.7878V145.12H58.9587V141.568H60.5082C60.7911 141.56 61.0722 141.614 61.3315 141.728C61.5596 141.815 61.7538 141.974 61.8855 142.179C62.0172 142.385 62.0795 142.628 62.0633 142.872C62.0702 143.114 62.0023 143.351 61.8689 143.553C61.7343 143.749 61.5456 143.902 61.3258 143.993L62.1319 145.137L61.24 145.12ZM61.0285 142.397C60.8618 142.28 60.66 142.223 60.4567 142.237H59.7821V143.478H60.4567C60.661 143.493 60.8638 143.434 61.0285 143.312C61.0924 143.256 61.1431 143.187 61.1767 143.109C61.2103 143.03 61.2261 142.946 61.2229 142.861C61.2279 142.774 61.2129 142.687 61.1792 142.606C61.1456 142.526 61.094 142.455 61.0285 142.397Z" fill="#263238"/>
<path d="M64.3845 143.856V145.114H63.5555V143.856L62.1719 141.567H63.0524L64.0072 143.146L64.962 141.567H65.7739L64.3845 143.856Z" fill="#263238"/>
<path d="M122.743 24.2905C123.083 23.7695 123.577 23.3673 124.156 23.1398C124.734 22.9122 125.37 22.8705 125.973 23.0205C126.746 22.5292 127.661 22.3122 128.571 22.4046C129.482 22.4969 130.335 22.8932 130.993 23.5296C131.561 23.2586 132.189 23.1368 132.817 23.1759C133.446 23.2149 134.053 23.4134 134.584 23.7528C135.106 24.1075 135.53 24.5879 135.818 25.1497C136.105 25.7116 136.247 26.3368 136.23 26.9679C136.867 26.9314 137.499 27.0913 138.042 27.4258C138.585 27.7603 139.012 28.2534 139.266 28.8386C139.502 29.4348 139.55 30.0885 139.405 30.7129C139.26 31.3372 138.928 31.9026 138.454 32.334C139.128 32.6163 139.673 33.1389 139.983 33.8004C140.293 34.462 140.346 35.2151 140.132 35.9138C139.919 36.6124 139.453 37.2067 138.826 37.5812C138.199 37.9556 137.455 38.0837 136.739 37.9404L123.006 27.763C122.611 27.281 122.375 26.6894 122.328 26.0682C122.281 25.4471 122.426 24.8265 122.743 24.2905Z" fill="#263238"/>
<path d="M137.151 38.3804C137.165 35.249 135.999 32.2272 133.887 29.9171C131.774 27.6069 128.869 26.1779 125.75 25.9147L125.11 25.8575C118.169 25.6973 115.459 31.9216 115.487 38.9124L113.978 64.7705L124.172 75.2052L128.014 68.3403L129.381 61.4753C129.381 61.4753 136.11 60.9776 136.739 54.3014C137.048 51.1321 137.14 44.4387 137.151 38.3804Z" fill="#FFBF9D"/>
<path d="M129.438 61.5269C126.345 61.2765 123.39 60.1361 120.93 58.2432C120.93 58.2432 122.331 63.3919 129.009 63.3347L129.438 61.5269Z" fill="#FF9A6C"/>
<path d="M134.715 44.4163C134.698 44.6647 134.584 44.8964 134.398 45.062C134.212 45.2276 133.969 45.3141 133.72 45.303C133.599 45.3024 133.478 45.2772 133.366 45.229C133.254 45.1808 133.153 45.1106 133.069 45.0226C132.985 44.9345 132.919 44.8304 132.876 44.7164C132.832 44.6025 132.812 44.4809 132.817 44.3591C132.835 44.1118 132.948 43.881 133.132 43.7155C133.317 43.55 133.559 43.4629 133.806 43.4724C133.928 43.4731 134.049 43.4982 134.161 43.5464C134.273 43.5945 134.375 43.6646 134.46 43.7526C134.544 43.8405 134.611 43.9446 134.655 44.0586C134.698 44.1726 134.719 44.2942 134.715 44.4163Z" fill="#263238"/>
<path d="M135.498 41.882C135.373 41.9964 134.698 41.4014 133.675 41.3099C132.651 41.2183 131.862 41.6817 131.765 41.5444C131.668 41.4071 131.851 41.2698 132.199 41.0582C132.665 40.7844 133.205 40.6643 133.743 40.7149C134.27 40.7503 134.772 40.9504 135.178 41.287C135.476 41.5959 135.561 41.8305 135.498 41.882Z" fill="#263238"/>
<path d="M125.933 44.136C125.916 44.3844 125.802 44.6161 125.616 44.7817C125.43 44.9473 125.187 45.0338 124.938 45.0228C124.817 45.0228 124.696 44.9984 124.584 44.9509C124.472 44.9034 124.37 44.8338 124.285 44.7463C124.2 44.6588 124.134 44.5551 124.09 44.4414C124.046 44.3278 124.025 44.2064 124.029 44.0846C124.047 43.8357 124.161 43.6034 124.346 43.4369C124.532 43.2704 124.775 43.1826 125.024 43.1921C125.146 43.1936 125.266 43.2193 125.378 43.2676C125.49 43.316 125.591 43.3862 125.676 43.474C125.76 43.5618 125.827 43.6655 125.871 43.7792C125.915 43.8928 125.936 44.0141 125.933 44.136Z" fill="#263238"/>
<path d="M125.745 40.9381C125.619 41.0525 124.944 40.4576 123.921 40.366C122.897 40.2745 122.108 40.7322 122.011 40.6006C121.914 40.469 122.097 40.326 122.446 40.1143C122.911 39.8406 123.451 39.7205 123.989 39.7711C124.517 39.8013 125.02 40.0021 125.424 40.3431C125.716 40.6521 125.807 40.8809 125.745 40.9381Z" fill="#263238"/>
<path d="M128.483 48.8268C129.034 48.6966 129.599 48.6408 130.164 48.6609C130.427 48.6609 130.679 48.6208 130.736 48.4492C130.783 48.1793 130.745 47.9013 130.627 47.654C130.433 47.0018 130.233 46.3153 130.021 45.5945C129.181 42.6597 128.598 40.2627 128.718 40.2284C128.838 40.1941 129.61 42.5167 130.433 45.4744C130.633 46.2009 130.827 46.8874 131.005 47.5453C131.141 47.8764 131.157 48.2447 131.05 48.5865C131.006 48.6761 130.942 48.7542 130.863 48.8147C130.783 48.8753 130.691 48.9166 130.593 48.9355C130.445 48.9572 130.295 48.9572 130.147 48.9355C129.59 48.9671 129.031 48.9306 128.483 48.8268Z" fill="#263238"/>
<path d="M125.419 49.2904C125.584 49.2904 125.499 50.4346 126.379 51.2755C127.26 52.1165 128.455 52.1222 128.449 52.2767C128.443 52.4311 128.169 52.4712 127.666 52.4483C127.021 52.3987 126.415 52.1255 125.95 51.676C125.501 51.236 125.239 50.6397 125.218 50.0112C125.196 49.5421 125.344 49.279 125.419 49.2904Z" fill="#263238"/>
<path d="M125.996 38.0205C125.853 38.2779 124.995 37.9633 123.926 37.8946C122.857 37.826 121.948 37.9747 121.862 37.7001C121.822 37.5685 122.022 37.3397 122.434 37.128C122.939 36.8928 123.497 36.7923 124.052 36.8363C124.601 36.8738 125.13 37.0575 125.584 37.3683C125.916 37.6257 126.076 37.8774 125.996 38.0205Z" fill="#263238"/>
<path d="M135.499 39.0444C135.316 39.2789 134.612 39.0444 133.783 39.0444C132.954 39.0444 132.217 39.1988 132.068 38.9585C131.994 38.8384 132.108 38.6038 132.422 38.3865C132.843 38.1213 133.334 37.9878 133.831 38.0031C134.328 38.0184 134.809 38.1818 135.213 38.4723C135.481 38.6897 135.579 38.9299 135.499 39.0444Z" fill="#263238"/>
<path d="M136.762 35.2629C136.762 35.2629 135.356 30.9323 133.429 29.7881C131.096 28.4094 129.832 31.0067 127.568 30.1657C125.304 29.3247 123.086 27.9975 120.57 29.5936C117.82 31.3499 118.918 32.8316 118.518 35.7835C116.882 47.7572 114.418 50.978 114.264 45.2629C114.264 44.6394 112.577 44.0043 112.549 41.3613C112.497 37.9288 112.709 33.7927 113.663 31.4414C114.464 29.462 115.733 28.152 117.923 26.7733C121.388 24.5936 125.87 24.9083 128.889 25.4689C131.908 26.0296 137.471 30.0456 136.762 35.2629Z" fill="#263238"/>
<path d="M115.544 45.2003C115.557 44.9553 115.519 44.7102 115.435 44.48C115.35 44.2497 115.22 44.039 115.051 43.8605C114.883 43.682 114.68 43.5394 114.456 43.4413C114.231 43.3432 113.989 43.2916 113.743 43.2896C112.491 43.2896 111.056 43.9017 110.925 46.4875C110.696 51.0641 115.316 50.349 115.327 50.2175C115.339 50.0859 115.464 47.1168 115.544 45.2003Z" fill="#FFBF9D"/>
<path d="M114.424 48.4438C114.424 48.4438 114.344 48.4953 114.207 48.5525C114.023 48.6235 113.819 48.6235 113.635 48.5525C113.16 48.3523 112.794 47.5628 112.817 46.7333C112.821 46.3354 112.917 45.9439 113.097 45.5891C113.147 45.4504 113.23 45.3258 113.338 45.2262C113.447 45.1265 113.578 45.0547 113.721 45.0171C113.813 44.9966 113.909 45.0095 113.993 45.0535C114.077 45.0974 114.142 45.1697 114.178 45.2573C114.235 45.3889 114.178 45.4747 114.224 45.4862C114.269 45.4976 114.327 45.4118 114.298 45.223C114.279 45.1077 114.22 45.0027 114.132 44.9255C114.074 44.8748 114.006 44.8365 113.932 44.8129C113.858 44.7893 113.78 44.7809 113.703 44.7882C113.51 44.8144 113.326 44.8896 113.17 45.0068C113.014 45.1239 112.891 45.2791 112.811 45.4576C112.601 45.8465 112.485 46.2797 112.474 46.7219C112.474 47.6486 112.886 48.5354 113.532 48.7585C113.652 48.7999 113.781 48.8137 113.908 48.7988C114.034 48.784 114.156 48.7409 114.264 48.6727C114.412 48.5582 114.441 48.4553 114.424 48.4438Z" fill="#FF9A6C"/>
<path d="M115.516 36.3042C116.038 36.8017 116.674 37.1632 117.368 37.3568C117.716 37.4357 118.081 37.3866 118.396 37.2186C118.711 37.0505 118.955 36.7747 119.084 36.4415C119.164 36.1268 119.118 35.755 119.347 35.5262C119.575 35.2973 120.067 35.3831 120.444 35.4518C121.106 35.5575 121.784 35.4321 122.364 35.0966C122.944 34.7611 123.39 34.236 123.629 33.6097C123.813 33.852 124.082 34.0159 124.382 34.0689C124.682 34.1219 124.991 34.0601 125.247 33.8957C125.752 33.5524 126.204 33.1382 126.591 32.6657C126.788 32.4333 127.039 32.252 127.322 32.1375C127.605 32.0229 127.911 31.9785 128.214 32.0079C128.525 32.1467 128.852 32.2484 129.186 32.3111C129.787 32.3111 130.135 31.6246 130.273 31.041C130.41 30.4575 130.541 29.7596 131.073 29.4793C131.605 29.1989 132.159 29.4392 132.703 29.5651C133.246 29.6909 133.96 29.6223 134.149 29.096C134.185 28.9529 134.191 28.8041 134.168 28.6585C134.144 28.5129 134.091 28.3737 134.012 28.2493C133.694 27.667 133.19 27.209 132.579 26.9495C131.969 26.6899 131.289 26.644 130.65 26.8191C130.49 26.0429 130.103 25.3319 129.538 24.7758C128.974 24.2198 128.257 23.8439 127.479 23.6957C126.701 23.5474 125.897 23.6335 125.167 23.9431C124.438 24.2527 123.817 24.7718 123.383 25.4346C122.937 24.9554 122.382 24.5913 121.765 24.3735C121.147 24.1557 120.487 24.0907 119.839 24.184C119.191 24.2773 118.575 24.5262 118.045 24.9094C117.514 25.2925 117.084 25.7986 116.791 26.3843C116.246 26.2016 115.659 26.1794 115.102 26.3203C114.545 26.4613 114.039 26.7595 113.646 27.1795C113.263 27.6127 113.011 28.1463 112.92 28.7178C112.828 29.2893 112.902 29.8749 113.132 30.406C112.693 30.5877 112.307 30.8759 112.007 31.2444C111.708 31.613 111.505 32.0503 111.416 32.517C111.325 33.4609 112.16 34.4792 113.092 34.3019C112.891 34.6633 112.827 35.0851 112.912 35.4897C112.997 35.8944 113.225 36.2547 113.555 36.5044C113.904 36.7219 114.319 36.8069 114.725 36.7439C115.131 36.6809 115.501 36.4741 115.767 36.1612" fill="#263238"/>
<path d="M112.76 34.2729C112.725 34.4285 112.726 34.5899 112.761 34.7453C112.797 34.9007 112.867 35.0462 112.966 35.1711C113.168 35.4796 113.478 35.7019 113.835 35.7947C114.063 35.8503 114.3 35.8545 114.529 35.807C114.759 35.7595 114.975 35.6615 115.161 35.5201L114.967 35.4743C115.172 35.9219 115.448 36.3333 115.785 36.6929C116.008 36.9311 116.273 37.1252 116.568 37.2649C116.856 37.4094 117.178 37.4727 117.5 37.448C117.762 37.4466 118.02 37.388 118.257 37.2764C118.494 37.1647 118.704 37.0027 118.872 36.8016C119.076 36.5245 119.227 36.2123 119.318 35.8805C119.381 35.6459 119.398 35.5144 119.381 35.5144C119.364 35.5144 119.312 35.6288 119.221 35.8462C119.099 36.1472 118.933 36.4287 118.729 36.6814C118.545 36.8614 118.325 37.0009 118.083 37.0911C117.842 37.1812 117.585 37.22 117.327 37.2049C117.07 37.1898 116.819 37.1213 116.59 37.0035C116.361 36.8858 116.158 36.7215 115.996 36.5212C115.682 36.1807 115.42 35.795 115.219 35.3771L115.15 35.2398L115.03 35.337C114.869 35.46 114.684 35.5467 114.486 35.5912C114.289 35.6356 114.084 35.6367 113.886 35.5945C113.572 35.5299 113.293 35.3504 113.103 35.091C112.935 34.8444 112.818 34.5661 112.76 34.2729Z" fill="#455A64"/>
<path d="M122.194 24.536C122.194 24.536 122.314 24.5761 122.508 24.6791C122.787 24.8319 123.016 25.0624 123.166 25.3427L123.217 25.4342L123.286 25.3541C123.92 24.6294 124.726 24.0765 125.63 23.7466C126.212 23.535 126.832 23.4511 127.448 23.5006C128.129 23.5573 128.781 23.803 129.329 24.21C129.76 24.5255 130.119 24.9292 130.381 25.3942C130.62 25.8303 130.753 26.3161 130.77 26.8129V26.9617H130.913C131.563 26.8429 132.234 26.9825 132.783 27.3507C133.212 27.6419 133.54 28.0599 133.72 28.5463C133.873 28.9889 133.931 29.4585 133.892 29.9251C133.945 29.8079 133.974 29.6816 133.978 29.5532C134.016 29.1959 133.975 28.8344 133.858 28.4948C133.689 27.9636 133.352 27.5017 132.897 27.1791C132.306 26.7681 131.578 26.604 130.867 26.7214L131.01 26.8415C131.002 26.3021 130.865 25.7724 130.61 25.2969C130.326 24.7955 129.935 24.3621 129.467 24.0269C128.88 23.5904 128.183 23.3286 127.454 23.2717C126.801 23.2284 126.145 23.3259 125.533 23.5578C124.603 23.9071 123.783 24.4998 123.16 25.274H123.275C123.105 24.9781 122.844 24.7452 122.531 24.6104C122.427 24.556 122.311 24.5303 122.194 24.536Z" fill="#455A64"/>
<path d="M125.619 233.014L121.616 247.494C121.616 247.494 134.446 256.601 133.949 259.353L106.62 252.259L112.005 229.433L125.619 233.014Z" fill="#455A64"/>
<path d="M113.44 244.072C113.146 244.086 112.868 244.212 112.665 244.425C112.461 244.638 112.348 244.922 112.348 245.216C112.348 245.506 112.457 245.786 112.655 245.998C112.852 246.211 113.123 246.34 113.412 246.361C113.716 246.338 114 246.204 114.211 245.985C114.422 245.765 114.545 245.475 114.555 245.171C114.504 244.599 113.869 243.975 113.326 244.118" fill="#E0E0E0"/>
<g opacity="0.6">
<path opacity="0.6" d="M106.597 252.259L107.226 249.971L133.194 257.625C133.194 257.625 134.281 258.489 133.926 259.341L106.597 252.259Z" fill="white"/>
</g>
<path d="M122.074 247.465C122.034 247.602 121.354 247.494 120.587 247.768C119.821 248.043 119.335 248.529 119.227 248.443C119.118 248.357 119.507 247.608 120.439 247.299C121.371 246.99 122.131 247.345 122.074 247.465Z" fill="#263238"/>
<path d="M124.641 249.439C124.641 249.582 124.006 249.668 123.412 250.137C122.817 250.606 122.537 251.189 122.405 251.149C122.274 251.109 122.377 250.303 123.126 249.736C123.875 249.17 124.67 249.307 124.641 249.439Z" fill="#263238"/>
<path d="M125.413 253.42C125.281 253.42 125.264 252.676 125.79 252.007C126.317 251.338 127.015 251.201 127.043 251.332C127.072 251.464 126.586 251.767 126.162 252.322C125.739 252.877 125.55 253.443 125.413 253.42Z" fill="#263238"/>
<path d="M122.646 244.061C122.56 244.17 121.994 243.821 121.228 243.678C120.462 243.535 119.816 243.632 119.775 243.495C119.735 243.357 120.416 243.009 121.319 243.192C122.223 243.375 122.731 243.97 122.646 244.061Z" fill="#263238"/>
<path d="M116.042 236.424L115.407 251.481C115.407 251.481 129.941 257.202 130.084 259.999L101.914 259.77L101.971 236.275L116.042 236.424Z" fill="#455A64"/>
<path d="M106.705 250.143C106.429 250.232 106.195 250.419 106.047 250.669C105.899 250.918 105.846 251.213 105.899 251.499C105.962 251.779 106.132 252.023 106.372 252.18C106.612 252.337 106.904 252.394 107.186 252.34C107.478 252.243 107.725 252.044 107.881 251.779C108.037 251.513 108.09 251.2 108.032 250.898C107.935 250.614 107.731 250.38 107.464 250.245C107.197 250.111 106.888 250.086 106.602 250.177" fill="#E0E0E0"/>
<g opacity="0.6">
<path opacity="0.6" d="M101.914 259.771L102.005 257.402L128.98 258.506C128.98 258.506 130.233 259.079 130.084 260L101.914 259.771Z" fill="white"/>
</g>
<path d="M115.865 251.332C115.865 251.475 115.173 251.532 114.492 251.99C113.812 252.448 113.446 253.037 113.32 252.98C113.195 252.922 113.406 252.099 114.235 251.567C115.064 251.034 115.893 251.2 115.865 251.332Z" fill="#263238"/>
<path d="M118.809 252.625C118.809 252.762 118.237 253.003 117.769 253.603C117.3 254.204 117.157 254.839 117.02 254.839C116.882 254.839 116.802 254.021 117.403 253.289C118.003 252.557 118.809 252.488 118.809 252.625Z" fill="#263238"/>
<path d="M120.462 256.309C120.336 256.338 120.147 255.623 120.507 254.845C120.868 254.067 121.514 253.758 121.571 253.878C121.629 253.998 121.228 254.416 120.942 255.057C120.656 255.697 120.599 256.298 120.462 256.309Z" fill="#263238"/>
<path d="M115.642 247.888C115.585 248.014 114.956 247.814 114.178 247.86C113.401 247.906 112.789 248.163 112.72 248.037C112.652 247.911 113.235 247.408 114.15 247.368C115.064 247.328 115.71 247.774 115.642 247.888Z" fill="#263238"/>
<path d="M116.002 247.717C116.103 248.921 116.117 250.132 116.042 251.338L115.928 251.161C117.574 251.813 119.764 252.688 122.085 253.821C124.297 254.83 126.391 256.081 128.329 257.551C128.932 258.005 129.454 258.558 129.873 259.187C130.164 259.656 130.13 260.017 130.084 259.999C130.009 259.744 129.887 259.506 129.724 259.296C129.261 258.737 128.725 258.245 128.129 257.831C126.159 256.458 124.069 255.265 121.885 254.267C119.598 253.123 117.414 252.225 115.802 251.504L115.682 251.452V251.327C115.702 250.117 115.809 248.911 116.002 247.717Z" fill="#263238"/>
<path d="M103.126 126.573L100.387 146.55L103.206 188.667C103.206 188.667 101.491 209.096 100.399 220.629C99.4726 230.646 100.971 248.089 100.971 248.089H117.254L123.08 189.92L126.699 153.638L132.988 137.128C127.557 136.419 115.098 131.344 103.126 126.573Z" fill="#263238"/>
<path d="M139.884 132.688L140.153 196.378L123.681 240.371L122.926 243.02L113.195 240.583L120.427 136.481L139.884 132.688Z" fill="#263238"/>
<path d="M128.655 145.817C128.661 145.905 128.661 145.993 128.655 146.081C128.655 146.275 128.655 146.532 128.655 146.859C128.655 147.562 128.598 148.575 128.552 149.856C128.477 152.459 128.277 156.224 127.98 160.869C127.408 170.159 126.265 182.986 124.55 197.099C122.834 211.212 120.93 223.947 119.57 233.18C118.872 237.757 118.3 241.498 117.906 244.089C117.706 245.365 117.551 246.378 117.437 247.053C117.386 247.379 117.34 247.625 117.306 247.825C117.299 247.915 117.28 248.004 117.248 248.088C117.243 247.999 117.243 247.909 117.248 247.819C117.248 247.631 117.3 247.373 117.346 247.047C117.437 246.349 117.569 245.331 117.746 244.072C118.112 241.475 118.638 237.745 119.289 233.146C120.599 223.918 122.446 211.172 124.149 197.059C125.853 182.945 127.037 170.137 127.694 160.852C128.014 156.212 128.266 152.454 128.375 149.851C128.449 148.563 128.506 147.562 128.546 146.859C128.546 146.527 128.586 146.287 128.598 146.081C128.605 145.991 128.624 145.902 128.655 145.817Z" fill="#455A64"/>
<path d="M147.677 92.1453L151.679 89.5023C151.679 89.5023 153.834 84.9257 155.338 84.3536C156.842 83.7815 162.88 81.4932 162.88 81.4932C162.88 81.4932 163.737 83.1179 161.587 84.3536C160.208 85.137 158.872 85.9944 157.585 86.9222C157.585 86.9222 157.917 91.5389 154.904 92.8604L149.026 95.4233L147.677 92.1453Z" fill="#FFBF9D"/>
<path d="M163.24 95.2285C162.209 96.0804 160.966 96.636 159.643 96.836C157.385 97.1964 152.937 96.7845 152.782 96.836C152.628 96.8875 150.164 99.0786 150.164 99.0786L148.769 93.7067L158.837 87.082L166.098 89.7994L164.292 92.9001L161.759 92.4195L161.153 94.0843L163.24 95.2285Z" fill="#FFBF9D"/>
<path d="M150.192 89.3247L152.022 99.3762L136.693 107.706L136.064 93.8098L150.192 89.3247Z" fill="#FFCB08"/>
<path d="M131.485 71.5042C131.776 72.1849 135.784 84.9709 137.122 91.5613C138.208 96.8931 140.027 130.2 140.027 130.2V137.637C130.644 141.195 116.957 139.164 102.366 135.961L100.919 131.727C100.919 131.727 103.663 114.056 102.509 106.99C101.354 99.9251 101.525 84.4618 102.103 77.3966C102.56 71.7559 110.49 65.6746 113.417 63.3348L114.166 61.5557L128.563 65.6575L128.929 67.8028L131.485 71.5042Z" fill="#FFCB08"/>
<path d="M182.691 104.571H176.556C176.348 104.571 176.142 104.53 175.95 104.45C175.757 104.37 175.583 104.254 175.436 104.106C175.289 103.959 175.172 103.785 175.093 103.592C175.013 103.4 174.972 103.194 174.972 102.986V102.734C174.972 102.314 175.139 101.911 175.436 101.614C175.733 101.316 176.136 101.15 176.556 101.15H182.691V104.582V104.571Z" fill="#E0E0E0"/>
<path d="M167.179 89.119L172.731 82.746C172.796 82.6623 172.828 82.557 172.82 82.451C172.811 82.345 172.763 82.2461 172.685 82.1739L167.368 77.6831C167.285 77.6155 167.18 77.582 167.074 77.5894C166.968 77.5968 166.868 77.6447 166.796 77.7231L155.807 90.2574C155.739 90.3399 155.706 90.4451 155.713 90.5514C155.721 90.6578 155.769 90.7573 155.847 90.8295L161.044 95.3776C161.126 95.4459 161.231 95.4804 161.337 95.474C161.443 95.4676 161.543 95.4209 161.616 95.3432L167.196 89.1076" fill="#455A64"/>
<path d="M158.9 93.5408C158.734 93.6953 157.008 95.4058 157.008 95.4058L155.739 94.1815L157.557 92.3623L158.9 93.5408Z" fill="#E0E0E0"/>
<path d="M186.064 103.169H182.685V102.076H186.064C186.132 102.075 186.2 102.087 186.264 102.113C186.328 102.138 186.385 102.177 186.433 102.225C186.482 102.274 186.519 102.332 186.544 102.396C186.569 102.46 186.581 102.528 186.578 102.597V102.677C186.577 102.743 186.562 102.808 186.536 102.869C186.509 102.929 186.471 102.984 186.423 103.029C186.375 103.075 186.319 103.111 186.257 103.135C186.196 103.159 186.13 103.17 186.064 103.169Z" fill="#263238"/>
<path d="M161.096 107.002L165.641 106.098C165.641 106.098 169.072 102.048 171.244 101.641C173.417 101.235 176.196 99.6162 176.196 99.6162C176.196 99.6162 177.476 99.6791 177.408 100.852C177.368 101.55 176.756 101.836 176.339 102.254L173.691 103.867C173.691 103.867 179.1 103.163 179.746 104.073C180.392 104.982 179.929 105.789 178.671 106.098C177.82 106.319 176.955 106.482 176.081 106.584C176.081 106.584 177.796 108.632 176.413 109.742C176.413 109.742 176.516 111.664 174.903 112.07C174.64 112.641 174.219 113.125 173.69 113.466C173.162 113.806 172.547 113.989 171.919 113.993C170.827 113.993 168.934 114.13 167.425 113.689C165.916 113.249 162.011 114.999 162.011 114.999L161.096 107.002Z" fill="#FFBF9D"/>
<g opacity="0.3">
<path opacity="0.3" d="M107.368 86.5273C107.368 86.5273 110.587 112.546 123.492 120.663C127.031 122.889 139.615 122.952 139.615 122.952V114.943L107.368 86.5273Z" fill="black"/>
</g>
<path d="M116.145 68.7578C121.348 69.5187 125.19 82.0701 125.19 82.0701L134.767 103.861C134.767 103.861 153.72 105.48 157.488 105.48C159.203 105.48 162.462 104.604 162.725 104.604L162.868 104.873C164.806 108.42 164.583 115.171 164.583 115.171C164.583 115.171 155.853 117.711 149.924 118.54C142.491 119.57 126.248 118.008 123.234 115.074C120.221 112.139 104.064 82.4649 104.281 77.5278" fill="#FFCB08"/>
<path d="M104.292 77.5568C104.292 77.5568 104.292 77.7056 104.327 77.9802C104.377 78.3902 104.459 78.7957 104.573 79.193C105.018 80.7229 105.561 82.2228 106.196 83.6838C107.803 87.5053 110.422 92.9172 113.932 99.4561C115.687 102.728 117.654 106.287 119.918 110.011C120.486 110.942 121.077 111.878 121.691 112.82C122.005 113.289 122.325 113.758 122.668 114.21C122.985 114.676 123.384 115.079 123.846 115.4C124.85 115.994 125.934 116.441 127.065 116.727C128.209 117.053 129.392 117.299 130.593 117.534C133.053 117.977 135.533 118.294 138.026 118.484C140.633 118.698 143.249 118.776 145.864 118.718C147.203 118.692 148.539 118.593 149.866 118.421C151.204 118.232 152.548 117.986 153.869 117.705C156.562 117.133 159.277 116.476 162.01 115.749L164.492 115.057L164.389 115.2C164.418 113.375 164.311 111.551 164.069 109.742C163.871 107.973 163.352 106.255 162.536 104.673L162.668 104.754C162.096 104.851 161.444 105.017 160.838 105.143C160.232 105.268 159.603 105.394 158.986 105.486C157.747 105.644 156.495 105.665 155.252 105.549C152.805 105.417 150.41 105.246 148.065 105.074C143.377 104.719 138.917 104.353 134.698 103.993H134.624L134.589 103.918L125.053 82.1106C123.423 77.1049 121.468 73.3463 119.638 71.1724C118.962 70.3227 118.115 69.6249 117.151 69.1244C116.811 68.974 116.456 68.8572 116.093 68.7754L116.373 68.8212C116.649 68.8765 116.918 68.9629 117.174 69.0786C118.155 69.564 119.019 70.257 119.707 71.1095C121.576 73.2834 123.566 77.0362 125.224 82.0591L134.881 103.81L134.778 103.735C138.986 104.084 143.457 104.45 148.14 104.794C150.484 104.965 152.88 105.131 155.327 105.263C156.549 105.373 157.779 105.352 158.997 105.2C159.609 105.103 160.221 104.988 160.838 104.857C161.456 104.725 162.033 104.571 162.725 104.456H162.799L162.851 104.548C163.684 106.153 164.215 107.899 164.417 109.696C164.664 111.52 164.773 113.36 164.743 115.2V115.308H164.64L162.148 116.001C159.415 116.733 156.693 117.408 153.989 117.963C152.639 118.238 151.29 118.489 149.941 118.678C148.6 118.85 147.25 118.95 145.899 118.976C143.274 119.029 140.648 118.948 138.031 118.735C135.522 118.54 133.024 118.218 130.547 117.768C129.341 117.545 128.151 117.282 126.997 116.95C125.841 116.655 124.733 116.195 123.709 115.583C123.223 115.247 122.802 114.824 122.468 114.336C122.12 113.873 121.799 113.398 121.485 112.929C120.862 111.985 120.278 111.041 119.712 110.108C117.454 106.367 115.499 102.797 113.749 99.5248C110.261 92.9687 107.671 87.5397 106.093 83.6896C105.469 82.2219 104.944 80.714 104.521 79.1758C104.415 78.7745 104.342 78.365 104.304 77.9516C104.287 77.6999 104.292 77.5568 104.292 77.5568Z" fill="#263238"/>
<path d="M160.381 112.923C160.221 112.923 160.067 112.923 159.906 112.923C156.516 112.734 153.446 110.349 152.611 107.26C152.361 106.24 152.343 105.177 152.558 104.15C152.772 103.122 153.214 102.156 153.852 101.321C153.304 100.209 153.19 98.9323 153.531 97.7402C154.087 96.0819 155.188 94.6605 156.653 93.707L156.899 94.0617C155.514 94.9587 154.473 96.2972 153.943 97.8603C153.646 98.8842 153.719 99.9799 154.149 100.955C154.824 100.162 155.696 99.5607 156.676 99.2105C157.882 98.8043 159.42 98.9816 159.901 100.12C160.017 100.44 160.053 100.784 160.006 101.121C159.958 101.459 159.827 101.779 159.626 102.054C159.389 102.39 159.084 102.673 158.73 102.884C158.376 103.095 157.982 103.229 157.574 103.278C157.095 103.354 156.606 103.33 156.137 103.209C155.668 103.088 155.229 102.872 154.846 102.574C154.548 102.332 154.289 102.045 154.08 101.722C153.521 102.495 153.138 103.381 152.956 104.317C152.774 105.254 152.799 106.219 153.028 107.145C153.817 110.069 156.722 112.294 159.929 112.494C161.495 112.531 163.047 112.185 164.449 111.488C165.852 110.79 167.063 109.761 167.98 108.49C168.34 107.992 168.666 107.448 168.986 106.928C169.472 106.067 170.047 105.26 170.701 104.519C171.799 103.341 173.623 102.448 175.218 103.129L175.046 103.524C173.646 102.923 172.01 103.741 171.01 104.811C170.387 105.532 169.84 106.314 169.375 107.145C169.049 107.677 168.717 108.226 168.345 108.741C167.435 110.011 166.241 111.05 164.858 111.776C163.476 112.502 161.942 112.895 160.381 112.923ZM154.378 101.35C154.577 101.683 154.832 101.979 155.132 102.225C155.468 102.488 155.854 102.678 156.266 102.784C156.678 102.891 157.108 102.911 157.528 102.843C157.878 102.803 158.216 102.69 158.519 102.51C158.823 102.331 159.085 102.09 159.289 101.802C159.448 101.586 159.553 101.335 159.594 101.07C159.635 100.805 159.611 100.534 159.523 100.28C159.157 99.4107 157.865 99.2562 156.83 99.6052C155.868 99.9503 155.019 100.554 154.378 101.35Z" fill="#E0E0E0"/>
<path d="M171.633 82.3568L161.153 94.0902L156.59 90.2344L166.962 78.4609L171.633 82.3568Z" fill="#263238"/>
<path d="M166.276 88.9353C166.442 88.9353 167.871 89.1928 168.202 89.6562C168.534 90.1195 168.202 91.5154 167.236 91.5669C166.27 91.6184 165.115 91.2523 164.749 90.6173C164.383 89.9822 164.515 88.7637 166.276 88.9353Z" fill="#FFBF9D"/>
<path d="M161.25 91.9964C161.242 91.8549 161.263 91.7133 161.312 91.58C161.36 91.4468 161.435 91.3247 161.531 91.221C161.628 91.1174 161.744 91.0343 161.874 90.9769C162.003 90.9194 162.143 90.8887 162.285 90.8866C163.697 90.8294 166.785 90.8008 167.248 91.596C167.854 92.6257 167.522 93.3122 166.424 93.4038C165.327 93.4953 162.353 93.3008 161.587 92.6257C161.492 92.5484 161.414 92.4529 161.356 92.3449C161.298 92.2369 161.262 92.1184 161.25 91.9964Z" fill="#FFBF9D"/>
<path d="M160.953 92.5969C160.953 92.5969 161.061 92.0763 162.542 92.8257C164.023 93.5752 165.841 93.7296 165.401 94.542C165.297 94.783 165.143 94.9988 164.948 95.1747C164.754 95.3505 164.523 95.4823 164.273 95.5611C164.023 95.6398 163.759 95.6636 163.499 95.6309C163.238 95.5982 162.988 95.5097 162.765 95.3715C161.525 94.7136 159.706 94.2502 160.953 92.5969Z" fill="#FFBF9D"/>
<path d="M136.716 89.0386C136.802 89.0386 137.225 92.4711 137.66 96.6873C138.095 100.904 138.393 104.382 138.307 104.382C138.221 104.382 137.803 100.949 137.368 96.7331C136.934 92.5168 136.636 89.05 136.716 89.0386Z" fill="#263238"/>
<path d="M130.85 109.605C131.113 108.458 131.612 107.379 132.314 106.435C132.938 105.439 133.759 104.58 134.727 103.913C134.789 103.981 133.629 105.028 132.56 106.607C131.49 108.186 130.936 109.639 130.85 109.605Z" fill="#263238"/>
<path d="M113.412 63.335C113.623 63.3568 113.831 63.4068 114.029 63.4837L115.67 63.9871L121.056 65.7034C123.166 66.3727 125.058 66.9562 126.465 67.3739L128.106 67.8773C128.304 67.9275 128.496 68.0005 128.678 68.0947C128.466 68.0875 128.256 68.0509 128.054 67.986C127.66 67.9002 127.088 67.7629 126.385 67.5741C124.984 67.208 123.057 66.6588 120.947 65.9894C118.838 65.3201 116.945 64.6679 115.579 64.1816C114.893 63.9356 114.344 63.7297 113.966 63.6096C113.772 63.5384 113.586 63.4463 113.412 63.335Z" fill="#263238"/>
</svg>
