<svg width="84" height="76" viewBox="0 0 84 76" fill="none" xmlns="http://www.w3.org/2000/svg">
<path d="M81.3837 0.057373H2.67159C1.22995 0.057373 0.0612793 1.21179 0.0612793 2.63583V55.252C0.0612793 56.676 1.22995 57.8304 2.67159 57.8304H81.3837C82.8253 57.8304 83.994 56.676 83.994 55.252V2.63583C83.994 1.21179 82.8253 0.057373 81.3837 0.057373Z" fill="#263238"/>
<path d="M83.9939 2.63578L83.9817 2.4549C83.9783 2.38068 83.9694 2.30679 83.9552 2.23383C83.94 2.13108 83.9169 2.02963 83.886 1.93037C83.7885 1.59446 83.6226 1.28178 83.3983 1.01152C83.174 0.74127 82.8962 0.519141 82.5819 0.358776C82.3628 0.248035 82.1294 0.167565 81.8881 0.119622C81.6193 0.0759102 81.3465 0.0597457 81.0743 0.0713879H79.1842H74.4702L44.4303 0.0894761H23.678H2.99497C2.73926 0.079481 2.48317 0.0929361 2.22998 0.12967C1.97812 0.171857 1.73444 0.252543 1.50772 0.368825C1.04963 0.601071 0.672595 0.963706 0.42535 1.40985C0.305352 1.63454 0.2177 1.87467 0.16493 2.1233C0.122982 2.37698 0.106626 2.63414 0.116102 2.89101V7.61985C0.116102 9.74076 0.116102 11.8844 0.116102 14.0509V27.315C0.116102 36.3285 0.116102 45.6596 0.116102 55.2178C0.11436 55.806 0.321147 56.3763 0.700583 56.8296C1.08002 57.283 1.60816 57.5908 2.19336 57.6998C2.48758 57.7429 2.78534 57.7577 3.08245 57.744H26.8214H53.1361H76.9401H81.0804C81.3047 57.7512 81.5291 57.7411 81.7518 57.7138C82.2952 57.6394 82.7999 57.3939 83.191 57.0138C83.582 56.6337 83.8386 56.1392 83.9227 55.6036C83.9479 55.3896 83.9567 55.1739 83.9491 54.9585C83.9491 54.7415 83.9491 54.5264 83.9491 54.3094V53.0212C83.9491 49.6033 83.9491 46.3255 83.9491 43.1877C83.9491 30.6611 83.9633 20.5222 83.9674 13.5143C83.9674 10.0134 83.9674 7.28423 83.9776 5.44736C83.9776 4.52691 83.9776 3.82351 83.9776 3.34922C83.9776 2.87493 83.9776 2.63578 83.9776 2.63578C83.9776 2.63578 83.9776 2.87694 83.9776 3.34922C83.9776 3.8215 83.9776 4.52691 83.9776 5.44736C83.9776 7.29227 83.9776 10.0134 83.9776 13.5143C83.9776 20.5222 83.9898 30.6611 83.9979 43.1877C83.9979 46.3201 83.9979 49.598 83.9979 53.0212C83.9979 53.4492 83.9979 53.8773 83.9979 54.3094V54.9585C84.0046 55.178 83.9951 55.3976 83.9695 55.6157C83.9054 56.0616 83.7267 56.4839 83.4502 56.8421C83.1738 57.2003 82.809 57.4824 82.3907 57.6616C82.1789 57.7498 81.9568 57.8112 81.7294 57.8445C81.5027 57.8722 81.2742 57.8829 81.0458 57.8766H76.9483H53.1442H26.8295H3.08652C2.78258 57.8902 2.47802 57.8747 2.17709 57.8304C1.56475 57.7164 1.01209 57.3944 0.614862 56.9201C0.217637 56.4459 0.00088562 55.8494 0.0021676 55.2338C0.0021676 45.6757 0.0021676 36.3426 0.0021676 27.3311C0.0021676 22.8253 0.0021676 18.4039 0.0021676 14.067V2.91111C-0.00657519 2.64742 0.0111436 2.38353 0.0550652 2.1233C0.109996 1.86426 0.201063 1.61401 0.325659 1.37971C0.585311 0.915259 0.97816 0.536994 1.45483 0.292457C1.69136 0.172245 1.94528 0.088862 2.2076 0.0452623C2.46682 0.00729138 2.72904 -0.00683696 2.9909 0.00305861H12.1239H23.6801H44.4323L74.4722 0.0211452H79.1863H81.0743C81.3467 0.012052 81.6193 0.0295549 81.8881 0.0733981C82.1321 0.121762 82.3677 0.204325 82.588 0.318583C82.9043 0.481124 83.1834 0.706086 83.4081 0.979531C83.6328 1.25298 83.7982 1.56908 83.8942 1.90826C83.9239 2.00757 83.9457 2.10904 83.9593 2.21173C83.973 2.28539 83.9811 2.35995 83.9837 2.4348C83.9939 2.57347 83.9939 2.63578 83.9939 2.63578Z" fill="#263238"/>
<path d="M79.7763 26.7263C80.219 26.7263 80.6516 26.856 81.0197 27.0989C81.3877 27.3418 81.6746 27.6871 81.844 28.091C82.0133 28.495 82.0577 28.9394 81.9713 29.3683C81.885 29.7971 81.6718 30.191 81.3588 30.5002C81.0458 30.8093 80.6471 31.0199 80.2129 31.1052C79.7788 31.1905 79.3288 31.1467 78.9199 30.9794C78.5109 30.8121 78.1614 30.5287 77.9155 30.1652C77.6696 29.8016 77.5383 29.3742 77.5383 28.937C77.5383 28.3507 77.7741 27.7884 78.1938 27.3738C78.6135 26.9592 79.1828 26.7263 79.7763 26.7263Z" fill="#455A64"/>
<path d="M4.49636 23.0243V34.8273C4.49663 34.9354 4.4753 35.0425 4.43361 35.1424C4.39191 35.2424 4.33066 35.3332 4.25336 35.4098C4.17606 35.4863 4.08424 35.5471 3.98315 35.5885C3.88206 35.6299 3.77369 35.6512 3.66424 35.6512C3.55469 35.6512 3.44622 35.6299 3.34502 35.5885C3.24381 35.5471 3.15186 35.4864 3.0744 35.4099C2.99694 35.3334 2.9355 35.2426 2.89358 35.1426C2.85165 35.0426 2.83008 34.9355 2.83008 34.8273V23.0303C2.83008 22.8117 2.91796 22.6022 3.0744 22.4476C3.23083 22.2931 3.44301 22.2063 3.66424 22.2063C3.88423 22.2063 4.09527 22.2923 4.2512 22.4456C4.40714 22.5989 4.49529 22.8069 4.49636 23.0243Z" fill="#455A64"/>
<path d="M76.1426 1.92822H6.04883V56.0577H76.1426V1.92822Z" fill="#EBEBEB"/>
<path d="M51.2419 41.0032L56.6619 50.4388L69.9882 50.2438L69.2333 40.0044L51.2419 41.0032Z" fill="#E0E0E0"/>
<path d="M33.6269 9.1393L31.6697 24.0533L35.7123 25.006L43.6165 24.2302L42.1658 7.9375L33.6269 9.1393Z" fill="#E0E0E0"/>
<path d="M21.3484 39.6629H12.0059V28.5513L22.1582 28.6518L21.3484 39.6629Z" fill="#F5F5F5"/>
<path d="M59.8093 40.0042C59.8093 39.6887 61.4553 28.6514 61.4553 28.6514C61.4553 28.6514 67.8966 26.909 67.921 27.1582C67.9454 27.4074 69.2028 39.7108 69.2028 39.7108L59.8093 40.0042Z" fill="#F5F5F5"/>
<path d="M13.0803 11.7357C13.0986 12.005 17.5421 20.8316 17.5421 20.8316L22.6874 19.4851V9.33006L17.3813 9.20947L13.0803 11.7357Z" fill="#E0E0E0"/>
<path d="M44.5015 30.1528H37.3867V33.4688H44.5015V30.1528Z" fill="#E0E0E0"/>
<path d="M44.5342 34.5681L37.3686 34.9258L37.0044 41.6463L45.1873 41.0032L44.5342 34.5681Z" fill="#E0E0E0"/>
<path d="M73.2371 22.106L72.2422 8.46411H76.1241L76.1424 21.8347L73.2371 22.106Z" fill="#E0E0E0"/>
<path d="M57.3394 6.22925L58.9568 23.2294L67.4429 22.4777L65.9617 7.97769L59.2437 6.22925H57.3394Z" fill="#E0E0E0"/>
<path d="M18.3496 9.26976L6.09766 9.08687L6.10986 8.28299L17.6864 8.45583L19.0231 1.93433L19.8226 2.09309L18.3496 9.26976Z" fill="white"/>
<path d="M11.9465 22.4012L6.00977 9.24963L6.19491 9.16724L12.0625 22.162L22.6624 19.3866L22.7133 19.5815L11.9465 22.4012Z" fill="white"/>
<path d="M22.1602 28.4507H6.10571V28.8526H22.1602V28.4507Z" fill="white"/>
<path d="M12.1056 22.2827H11.9021V39.6647H12.1056V22.2827Z" fill="white"/>
<path d="M21.4034 39.5742H6.10571V39.7748H21.4034V39.5742Z" fill="white"/>
<path d="M20.6098 55.3886L6.04053 52.2133L6.2155 51.4275L19.8672 54.4039L22.209 22.2184L22.561 8.83175L23.1082 1.98267L23.918 2.04497L23.3727 8.884L23.0228 22.2586L20.6098 55.3886Z" fill="white"/>
<path d="M22.9332 9.75825L17.9771 9.26387L18.0605 8.464L22.4408 8.90212L23.1651 7.37474L29.6939 8.93829L59.0523 5.63232L69.2799 8.257L76.1119 8.06206L76.1363 8.86393L69.1883 9.0649L58.9933 6.44826L29.6431 9.75222L23.6209 8.31126L22.9332 9.75825Z" fill="white"/>
<path d="M57.067 40.6292L56.2593 40.5247L58.5461 23.2251L56.7883 6.24507V1.92822H57.6021V6.22498L59.366 23.2351L57.067 40.6292Z" fill="white"/>
<path d="M21.0024 43.0089L20.9536 42.2071L68.9422 39.3251L75.473 26.1897L76.2034 26.5434L69.4651 40.0989L69.2291 40.113L21.0024 43.0089Z" fill="white"/>
<path d="M45.0301 41.4875L41.962 7.95551L41.7952 2.02085L42.2021 2.00879L42.3689 7.93341L45.4349 41.4513L45.0301 41.4875Z" fill="white"/>
<path d="M38.5889 55.8427L35.0407 41.5296V25.3393L31.0469 24.3586L32.7803 8.99038L32.6196 1.9363L33.4334 1.91821L33.5961 9.02655L33.5941 9.05268L31.9339 23.7477L35.8545 24.7123V41.4311L39.3803 55.6518L38.5889 55.8427Z" fill="white"/>
<path d="M35.448 28.5513H22.1584V28.7519H35.448V28.5513Z" fill="white"/>
<path d="M22.634 22.1476L22.593 22.3445L31.4688 24.149L31.5098 23.9521L22.634 22.1476Z" fill="white"/>
<path d="M35.4254 35.3055L32.2678 34.6162V28.6514H32.4713V34.4554L35.4702 35.1086L35.4254 35.3055Z" fill="white"/>
<path d="M30.4957 55.8329L28.7216 50.2077H20.6018V49.4038H29.3198L31.2729 55.5937L30.4957 55.8329Z" fill="white"/>
<path d="M56.6025 50.5412L51.1541 41.0514L51.3311 40.9529L56.7205 50.3382L76.0975 50.0528L76.1015 50.2538L56.6025 50.5412Z" fill="white"/>
<path d="M66.137 50.4387H65.9336V55.8569H66.137V50.4387Z" fill="white"/>
<path d="M69.8861 50.2517L69.1312 40.0122L65.2412 1.93831L65.4447 1.91821L69.3347 39.9941L70.0895 50.2356L69.8861 50.2517Z" fill="white"/>
<path d="M76.1348 21.7302L35.4404 24.9221L35.4565 25.1221L76.1509 21.9302L76.1348 21.7302Z" fill="white"/>
<path d="M72.4434 8.79463L72.0381 8.83057L73.2466 22.1276L73.6519 22.0916L72.4434 8.79463Z" fill="white"/>
<path d="M72.9051 16.2645L66.9434 17.7219L66.9922 17.9167L72.9539 16.4593L72.9051 16.2645Z" fill="white"/>
<path d="M70.2851 16.9347L69.2292 11.0222L66.2527 10.7107L66.273 10.5117L69.4021 10.8393L70.4845 16.8986L70.2851 16.9347Z" fill="white"/>
<path d="M50.1339 7.25131L49.7285 7.28564L51.1417 23.5689L51.5471 23.5345L50.1339 7.25131Z" fill="white"/>
<path d="M58.0383 16.1547L50.8281 17.7219L50.8718 17.9179L58.082 16.3506L58.0383 16.1547Z" fill="white"/>
<path d="M56.4649 50.4153L55.7241 56.0879L56.1277 56.1393L56.8684 50.4667L56.4649 50.4153Z" fill="white"/>
<path d="M22.9682 28.9932L22.1584 41.4694L34.7827 40.8625V35.9669L31.4766 35.2454V29.5298L22.9682 28.9932Z" fill="#E0E0E0"/>
<path d="M19.4908 32.0317C19.491 31.5962 19.3896 31.1664 19.1944 30.7758C18.9992 30.3852 18.7155 30.0444 18.3653 29.7797C18.0151 29.515 17.6078 29.3337 17.1751 29.2497C16.7424 29.1657 16.296 29.1814 15.8704 29.2955C15.4449 29.4097 15.0517 29.6192 14.7214 29.9078C14.3911 30.1964 14.1327 30.5563 13.9661 30.9596C13.7994 31.3629 13.7292 31.7987 13.7608 32.2331C13.7924 32.6676 13.9249 33.089 14.1481 33.4647V33.4747C14.258 33.6576 14.3943 33.7882 14.5347 33.9811L16.1989 36.1597C16.2473 36.2229 16.3099 36.2743 16.3817 36.3096C16.4535 36.3449 16.5327 36.3633 16.613 36.3633C16.6932 36.3633 16.7724 36.3449 16.8442 36.3096C16.9161 36.2743 16.9786 36.2229 17.027 36.1597L18.6546 34.0173C18.8035 33.8434 18.9428 33.6616 19.0717 33.4727C19.3408 33.0387 19.4856 32.5407 19.4908 32.0317ZM16.6221 33.2657C16.3721 33.2661 16.1275 33.1932 15.9194 33.0562C15.7113 32.9192 15.5491 32.7243 15.4532 32.4962C15.3573 32.2681 15.3321 32.017 15.3808 31.7747C15.4295 31.5324 15.5499 31.3098 15.7267 31.1352C15.9035 30.9605 16.1288 30.8416 16.3741 30.7935C16.6194 30.7454 16.8736 30.7703 17.1045 30.865C17.3355 30.9597 17.5328 31.12 17.6714 31.3256C17.8101 31.5311 17.8839 31.7727 17.8835 32.0197C17.883 32.35 17.7499 32.6666 17.5135 32.9002C17.277 33.1337 16.9565 33.2652 16.6221 33.2657Z" fill="#FFCB08"/>
<path d="M46.4869 22.0616C46.488 21.6256 46.3872 21.1953 46.1924 20.804C45.9976 20.4128 45.7141 20.0713 45.3639 19.806C45.0136 19.5407 44.6061 19.3588 44.1731 19.2745C43.7401 19.1901 43.2932 19.2056 42.8672 19.3198C42.4413 19.4339 42.0477 19.6436 41.7172 19.9325C41.3866 20.2214 41.1281 20.5817 40.9615 20.9855C40.795 21.3892 40.725 21.8255 40.7571 22.2603C40.7891 22.6951 40.9223 23.1168 41.1462 23.4925V23.5045C41.2561 23.6874 41.3945 23.818 41.5348 24.011L43.2032 26.1855C43.2515 26.2488 43.3141 26.3001 43.3859 26.3354C43.4578 26.3707 43.5369 26.3891 43.6172 26.3891C43.6974 26.3891 43.7766 26.3707 43.8484 26.3354C43.9203 26.3001 43.9828 26.2488 44.0312 26.1855L45.6731 24.0451C45.819 23.8713 45.9549 23.6895 46.08 23.5005C46.3444 23.0659 46.485 22.5687 46.4869 22.0616ZM43.6182 23.2955C43.3683 23.2955 43.124 23.2223 42.9163 23.0852C42.7085 22.9481 42.5466 22.7531 42.4509 22.5251C42.3553 22.297 42.3303 22.0461 42.379 21.804C42.4278 21.5619 42.5481 21.3395 42.7248 21.165C42.9015 20.9905 43.1266 20.8716 43.3717 20.8234C43.6168 20.7753 43.8708 20.8 44.1017 20.8945C44.3326 20.9889 44.5299 21.1489 44.6687 21.3541C44.8075 21.5594 44.8816 21.8007 44.8816 22.0475C44.8816 22.2116 44.8489 22.374 44.7853 22.5256C44.7217 22.6771 44.6284 22.8148 44.5109 22.9307C44.3933 23.0466 44.2538 23.1385 44.1003 23.2011C43.9468 23.2637 43.7823 23.2958 43.6162 23.2955H43.6182Z" fill="#FFCB08"/>
<path d="M34.5769 46.6081C34.5778 46.309 34.5089 46.0137 34.3754 45.7452C34.242 45.4767 34.0476 45.2423 33.8074 45.0602C33.5672 44.8781 33.2877 44.7532 32.9906 44.6953C32.6935 44.6373 32.3869 44.6479 32.0947 44.7262C31.8024 44.8044 31.5324 44.9483 31.3057 45.1465C31.0789 45.3447 30.9015 45.5919 30.7873 45.869C30.6732 46.146 30.6252 46.4453 30.6473 46.7436C30.6694 47.0419 30.7609 47.3312 30.9147 47.5888C30.99 47.7134 31.0856 47.8039 31.1812 47.9345L32.3226 49.4297C32.3558 49.4726 32.3986 49.5074 32.4477 49.5314C32.4967 49.5553 32.5507 49.5677 32.6054 49.5677C32.6601 49.5677 32.7141 49.5553 32.7631 49.5314C32.8122 49.5074 32.855 49.4726 32.8882 49.4297L34.0113 47.9606C34.1135 47.8411 34.2093 47.7163 34.2981 47.5868C34.4778 47.291 34.574 46.9531 34.5769 46.6081ZM32.6095 47.4542C32.438 47.4546 32.2702 47.4047 32.1274 47.3109C31.9846 47.217 31.8732 47.0835 31.8073 46.9271C31.7414 46.7707 31.7239 46.5985 31.7571 46.4322C31.7903 46.266 31.8727 46.1133 31.9939 45.9934C32.115 45.8734 32.2694 45.7917 32.4376 45.7585C32.6058 45.7253 32.7802 45.7421 32.9386 45.8069C33.0971 45.8716 33.2326 45.9814 33.3279 46.1222C33.4233 46.263 33.4742 46.4286 33.4742 46.598C33.4744 46.7104 33.4523 46.8217 33.4089 46.9255C33.3656 47.0294 33.3019 47.1238 33.2216 47.2033C33.1413 47.2828 33.0459 47.3459 32.9408 47.389C32.8358 47.432 32.7232 47.4542 32.6095 47.4542Z" fill="#FFCB08"/>
<path d="M70.2648 11.3338C70.2627 10.8497 70.0778 10.3838 69.7462 10.0273C69.4146 9.67077 68.9603 9.44935 68.4721 9.40636C67.984 9.36337 67.4972 9.5019 67.107 9.79483C66.7168 10.0878 66.4513 10.514 66.3626 10.9901C66.2786 11.4457 66.3638 11.916 66.6026 12.3145C66.6779 12.4391 66.7735 12.5295 66.8692 12.6622L68.0105 14.1554C68.0438 14.1983 68.0866 14.2331 68.1356 14.257C68.1847 14.281 68.2386 14.2934 68.2933 14.2934C68.348 14.2934 68.402 14.281 68.4511 14.257C68.5001 14.2331 68.5429 14.1983 68.5761 14.1554L69.6992 12.6863C69.8014 12.5668 69.8972 12.442 69.9861 12.3125C70.1657 12.0167 70.262 11.6787 70.2648 11.3338ZM68.2974 12.1799C68.1258 12.1803 67.958 12.1303 67.8151 12.0364C67.6723 11.9425 67.5609 11.8088 67.495 11.6523C67.4292 11.4958 67.4118 11.3235 67.4452 11.1572C67.4786 10.9909 67.5612 10.8382 67.6825 10.7183C67.8039 10.5985 67.9585 10.5169 68.1268 10.4839C68.2951 10.451 68.4695 10.4681 68.628 10.5331C68.7865 10.5982 68.9218 10.7082 69.0169 10.8493C69.112 10.9904 69.1625 11.1562 69.1621 11.3257C69.1621 11.5523 69.071 11.7695 68.9088 11.9297C68.7467 12.0899 68.5267 12.1799 68.2974 12.1799Z" fill="#FFCB08"/>
<path d="M28.3799 12.2583C28.3805 11.7287 28.2575 11.2061 28.0204 10.7311C27.7833 10.2561 27.4385 9.84153 27.0128 9.51955C26.5871 9.19756 26.092 8.97687 25.566 8.87462C25.0399 8.77238 24.4971 8.79132 23.9796 8.92999C23.4622 9.06866 22.9841 9.32332 22.5825 9.67418C22.1809 10.025 21.8666 10.4626 21.664 10.953C21.4614 11.4433 21.376 11.9732 21.4145 12.5015C21.4529 13.0297 21.6142 13.5421 21.8857 13.9987L21.8958 14.0108C22.0281 14.2339 22.197 14.3926 22.3658 14.6258L24.3902 17.2766C24.449 17.3532 24.525 17.4153 24.6122 17.4581C24.6993 17.5009 24.7954 17.5231 24.8927 17.5231C24.9901 17.5231 25.0861 17.5009 25.1733 17.4581C25.2604 17.4153 25.3364 17.3532 25.3952 17.2766L27.387 14.664C27.5685 14.4525 27.7376 14.2311 27.8936 14.0008C28.2101 13.4732 28.378 12.8716 28.3799 12.2583ZM24.8907 13.7576C24.5868 13.7576 24.2897 13.6685 24.0371 13.5017C23.7844 13.3349 23.5875 13.0978 23.4713 12.8204C23.3551 12.5431 23.3248 12.2379 23.3843 11.9435C23.4437 11.6491 23.5902 11.3787 23.8052 11.1666C24.0203 10.9545 24.2941 10.8102 24.5923 10.7518C24.8904 10.6935 25.1993 10.7239 25.4799 10.839C25.7606 10.9542 26.0003 11.1489 26.1689 11.3987C26.3374 11.6485 26.4271 11.9421 26.4267 12.2423C26.4262 12.6443 26.2641 13.0298 25.9761 13.3139C25.6881 13.598 25.2977 13.7576 24.8907 13.7576Z" fill="#FFCB08"/>
<path d="M44.8167 46.3848C44.8167 46.3848 44.8167 53.4509 44.7272 53.8488C44.6376 54.2467 44.4281 56.365 44.951 57.3477C45.4738 58.3305 46.7169 60.3221 47.7993 60.5994C48.8817 60.8768 49.4941 60.5994 49.4941 60.5994C49.4941 60.5994 50.1594 55.9972 49.9417 54.6768C49.724 53.3564 49.2296 50.4745 49.2296 50.4745L45.8767 46.7164L44.8167 46.3848Z" fill="#FFBE9D"/>
<path d="M53.2439 36.686L56.4035 35.7274L62.379 35.3335L65.9943 36.0108L62.0677 42.2268L56.4035 41.8048L53.2439 36.686Z" fill="#FFBE9D"/>
<path d="M65.7521 23.8582C65.7856 25.3526 65.4983 26.8371 64.9092 28.214C64.3201 29.5909 63.4425 30.829 62.3341 31.8467C61.8241 30.3904 61.3148 28.9327 60.8062 27.4736" fill="#263238"/>
<path d="M54.2325 15.1601C55.5448 14.4527 57.1297 14.3562 58.5946 14.6416C60.0595 14.927 61.4267 15.5862 62.7206 16.3257C63.4449 16.7397 64.1692 17.1959 64.6921 17.8451C65.6442 19.0288 66.5842 20.9722 66.6778 22.4815C66.751 23.7014 66.2709 26.7561 65.7561 27.8655C65.276 28.8824 63.0339 29.6561 61.9272 29.9073L51.7769 18.239C51.9592 17.5906 52.2702 16.9845 52.6917 16.456C53.1133 15.9274 53.6371 15.4869 54.2325 15.1601Z" fill="#263238"/>
<path d="M52.4812 16.7396L54.9226 16.3096C53.592 19.4407 53.2319 26.5993 52.469 29.9113C51.5717 28.6251 49.4884 24.7081 49.6003 23.1486C49.7122 21.5891 49.5881 16.4683 52.4812 16.7396Z" fill="#263238"/>
<path d="M64.0271 21.9468C63.9837 21.0686 63.6563 20.2274 63.0931 19.5466C62.5299 18.8658 61.7605 18.3814 60.898 18.1645L55.2908 16.7577C52.8677 16.5005 51.2482 19.4447 51.0895 21.8483C50.9145 24.5172 50.8046 27.3328 51.12 29.3264C51.7548 33.3318 54.8615 33.8503 54.8615 33.8503C54.8615 33.8503 54.8615 35.7555 54.8615 36.9251L59.8705 40.8461L62.784 36.3463L64.0373 22.003C64.0413 21.9267 64.0332 22.0372 64.0271 21.9468Z" fill="#FFBE9D"/>
<path d="M52.3079 24.8651C52.3062 24.9991 52.3576 25.1286 52.4511 25.2258C52.5445 25.323 52.6728 25.3804 52.8084 25.3856C52.8745 25.3908 52.9411 25.3829 53.0041 25.3623C53.0671 25.3418 53.1253 25.309 53.1753 25.266C53.2254 25.2229 53.2662 25.1705 53.2954 25.1116C53.3246 25.0528 53.3417 24.9888 53.3455 24.9233C53.3472 24.7893 53.2958 24.6598 53.2024 24.5626C53.1089 24.4654 52.9807 24.4081 52.845 24.4028C52.7788 24.3974 52.7122 24.4051 52.6491 24.4255C52.5859 24.4459 52.5276 24.4787 52.4775 24.5218C52.4274 24.5649 52.3866 24.6175 52.3575 24.6764C52.3283 24.7354 52.3115 24.7995 52.3079 24.8651Z" fill="#263238"/>
<path d="M51.6977 23.408C51.7628 23.4763 52.1575 23.1889 52.7149 23.1909C53.2724 23.1929 53.6834 23.4723 53.7444 23.404C53.7749 23.3738 53.7098 23.2532 53.5308 23.1246C53.2892 22.9581 53.0014 22.8696 52.7068 22.8714C52.415 22.8689 52.1299 22.9583 51.893 23.1266C51.7261 23.2573 51.6671 23.3718 51.6977 23.408Z" fill="#263238"/>
<path d="M57.187 24.8648C57.1858 24.9967 57.2361 25.1239 57.3274 25.2201C57.4187 25.3163 57.5441 25.3741 57.6774 25.3813C57.7436 25.3868 57.8102 25.3791 57.8733 25.3586C57.9364 25.3382 57.9948 25.3055 58.0449 25.2624C58.0949 25.2193 58.1358 25.1667 58.1649 25.1077C58.194 25.0487 58.2109 24.9846 58.2145 24.9191C58.2167 24.7852 58.1658 24.6557 58.0726 24.5585C57.9795 24.4612 57.8515 24.4038 57.716 24.3986C57.6501 24.3942 57.5841 24.4029 57.5216 24.4241C57.4592 24.4453 57.4017 24.4785 57.3524 24.5219C57.3031 24.5654 57.2631 24.618 57.2347 24.6769C57.2064 24.7358 57.1901 24.7997 57.187 24.8648Z" fill="#263238"/>
<path d="M57.0119 23.408C57.077 23.4763 57.4717 23.1889 58.0291 23.1909C58.5866 23.1929 58.9996 23.4723 59.0586 23.404C59.0891 23.3738 59.024 23.2532 58.845 23.1246C58.6034 22.9581 58.3156 22.8696 58.021 22.8714C57.7292 22.8692 57.4442 22.9585 57.2072 23.1266C57.0403 23.2572 56.9813 23.3718 57.0119 23.408Z" fill="#263238"/>
<path d="M55.2641 27.7506C55.2641 27.7185 54.9183 27.6582 54.3547 27.5858C54.2123 27.5718 54.076 27.5416 54.0536 27.4472C54.0412 27.3008 54.0746 27.1542 54.1492 27.0271L54.5744 25.954C55.1644 24.4246 55.5917 23.1685 55.5307 23.1404C55.4696 23.1122 54.9386 24.3462 54.3486 25.8675L53.9417 26.9488C53.8528 27.1189 53.8262 27.3141 53.8664 27.5014C53.8879 27.5503 53.9203 27.5938 53.9611 27.6286C54.002 27.6634 54.0503 27.6886 54.1024 27.7024C54.1813 27.7242 54.2627 27.7357 54.3445 27.7366C54.9101 27.7788 55.2621 27.7808 55.2641 27.7506Z" fill="#263238"/>
<path d="M60.2406 32.4153C60.2406 32.4153 58.9201 35.1666 54.8633 34.7827V33.8422C56.7549 33.8674 58.6164 33.3735 60.2406 32.4153Z" fill="#EB996E"/>
<path d="M57.1889 21.4102C57.2438 21.5609 57.7992 21.4906 58.4584 21.5709C59.1176 21.6513 59.6445 21.8282 59.732 21.6935C59.7727 21.6292 59.6791 21.4926 59.4655 21.3418C59.1815 21.1604 58.858 21.0481 58.5215 21.0143C58.1862 20.9723 57.8456 21.0109 57.5286 21.1268C57.2865 21.2213 57.1644 21.3398 57.1889 21.4102Z" fill="#263238"/>
<path d="M51.8804 21.7176C51.978 21.8442 52.3646 21.7176 52.8284 21.7176C53.2923 21.7176 53.685 21.804 53.7745 21.6714C53.8152 21.6091 53.7521 21.4825 53.5812 21.3639C53.3515 21.2203 53.0836 21.1476 52.8118 21.1551C52.5399 21.1626 52.2766 21.25 52.0553 21.4061C51.8905 21.5267 51.8376 21.6553 51.8804 21.7176Z" fill="#263238"/>
<path d="M52.1835 18.1804C52.4317 17.5775 53.1011 17.2157 53.7582 17.1755C54.4208 17.1744 55.0698 17.3614 55.628 17.7141C58.043 19.0928 59.2901 22.4229 61.6705 23.8498C62.2585 24.2015 63.0215 23.8799 63.5199 24.3442C64.0184 24.8084 64.3439 25.55 64.0672 26.171C64.4091 25.7518 64.688 25.2861 64.8953 24.7883C64.9977 24.5384 65.0446 24.2697 65.0331 24.0003C65.0215 23.731 64.9516 23.4672 64.8281 23.2268C64.6247 22.8731 64.2564 22.6038 64.1567 22.2078C64.0693 21.8602 64.2076 21.4964 64.1934 21.1367C64.1523 20.7722 64.0247 20.4224 63.821 20.1157C62.8872 18.4818 61.6014 17.0067 59.9453 16.0963C58.8652 15.4784 57.6348 15.1636 56.3869 15.1859C55.134 15.2152 53.9331 15.6864 53.0014 16.5143C52.4663 17.0047 51.9068 17.5192 52.1876 18.1804" fill="#263238"/>
<path d="M63.4712 24.8488C63.5139 24.7342 65.6278 23.9806 65.6563 26.2013C65.6827 28.3577 63.4793 27.9337 63.4753 27.8714C63.4712 27.8091 63.4712 24.8488 63.4712 24.8488Z" fill="#FFBE9D"/>
<path d="M64.1405 27.0472C64.1507 27.0472 64.1792 27.0733 64.2443 27.1014C64.3358 27.1374 64.4377 27.1374 64.5291 27.1014C64.759 27.015 64.9503 26.6512 64.9564 26.2634C64.9609 26.0778 64.9227 25.8936 64.8445 25.7248C64.8233 25.6577 64.786 25.5966 64.7357 25.5469C64.6853 25.4972 64.6235 25.4603 64.5556 25.4394C64.5116 25.4302 64.4658 25.4357 64.4253 25.455C64.3848 25.4743 64.352 25.5062 64.3318 25.5459C64.3033 25.6062 64.3176 25.6484 64.3074 25.6524C64.2972 25.6564 64.2586 25.6162 64.2769 25.5278C64.2875 25.474 64.3171 25.4256 64.3603 25.3912C64.4186 25.3479 64.4912 25.3278 64.5637 25.3349C64.6546 25.3505 64.7397 25.3891 64.811 25.4469C64.8823 25.5046 64.9373 25.5796 64.9706 25.6645C65.0664 25.8511 65.1139 26.0582 65.109 26.2674C65.109 26.7015 64.8771 27.1115 64.5617 27.2039C64.5033 27.2212 64.4417 27.2253 64.3815 27.2159C64.3213 27.2065 64.264 27.1839 64.2138 27.1497C64.1467 27.0994 64.1344 27.0512 64.1405 27.0472Z" fill="#EB996E"/>
<path d="M64.3406 23.7393C64.2942 23.7197 64.2499 23.6954 64.2083 23.667C64.1249 23.6147 63.9947 23.5444 63.8421 23.4379C63.4124 23.1258 63.0169 22.7701 62.6621 22.3768C62.1473 21.7869 61.6664 21.1689 61.2216 20.5258C60.6834 19.7412 60.0805 19.0017 59.419 18.3151C59.0653 17.9725 58.6751 17.6686 58.2553 17.4088C57.861 17.1706 57.4388 16.981 56.998 16.844C56.2517 16.6071 55.4667 16.5123 54.6847 16.5647C54.1567 16.5959 53.6353 16.6966 53.1344 16.8641C52.9553 16.9184 52.8231 16.9767 52.7275 17.0129C52.6809 17.0334 52.6326 17.0495 52.583 17.0611C52.6267 17.0357 52.6723 17.0135 52.7193 16.9948C52.8511 16.9305 52.9871 16.8748 53.1262 16.828C53.6271 16.6444 54.1518 16.5321 54.6847 16.4944C55.4765 16.433 56.2728 16.5224 57.0305 16.7576C57.4788 16.8946 57.9085 17.0849 58.3102 17.3244C58.7364 17.5886 59.1327 17.8971 59.4923 18.2448C60.1586 18.9369 60.7631 19.6846 61.299 20.4796C61.7402 21.123 62.2156 21.7428 62.7231 22.3366C63.0698 22.7313 63.4548 23.0914 63.8726 23.4118C64.0232 23.5243 64.1473 23.5987 64.2267 23.6569C64.2668 23.6813 64.3049 23.7089 64.3406 23.7393Z" fill="#455A64"/>
<path d="M64.3911 27.4292C64.4984 27.4107 64.6087 27.4332 64.6998 27.492C64.791 27.5509 64.856 27.6417 64.8819 27.7462C64.9077 27.8506 64.8924 27.9609 64.8391 28.0547C64.7858 28.1484 64.6984 28.2186 64.5946 28.2511C64.4896 28.2873 64.3745 28.2818 64.2735 28.2358C64.1725 28.1898 64.0935 28.1069 64.0532 28.0046C64.0128 27.9022 64.0143 27.7884 64.0572 27.687C64.1001 27.5857 64.1812 27.5048 64.2833 27.4613" fill="white"/>
<path d="M64.2873 27.4615C64.1908 27.5349 64.1197 27.636 64.0839 27.7509C64.068 27.8101 64.0676 27.8722 64.0825 27.9316C64.0974 27.9909 64.1273 28.0456 64.1693 28.0906C64.2183 28.147 64.2831 28.188 64.3556 28.2082C64.428 28.2284 64.5049 28.2271 64.5766 28.2044C64.6483 28.1816 64.7116 28.1385 64.7586 28.0803C64.8056 28.0222 64.8341 27.9517 64.8407 27.8776C64.8482 27.8174 64.8404 27.7563 64.818 27.6998C64.7956 27.6433 64.7594 27.5932 64.7125 27.554C64.6173 27.4803 64.5017 27.4368 64.3809 27.4294C64.3809 27.4294 64.4155 27.4073 64.4847 27.4053C64.5468 27.4062 64.6082 27.4197 64.6649 27.4449C64.7216 27.4701 64.7725 27.5065 64.8144 27.5519C64.8564 27.5973 64.8884 27.6506 64.9087 27.7087C64.929 27.7668 64.937 27.8284 64.9323 27.8896C64.9255 27.9823 64.8908 28.0708 64.8326 28.1437C64.7745 28.2167 64.6955 28.2707 64.6058 28.2989C64.5162 28.327 64.4201 28.3279 64.33 28.3015C64.2398 28.2752 64.1598 28.2227 64.1001 28.1509C64.0507 28.0943 64.0168 28.0262 64.0019 27.9529C63.9869 27.8797 63.9913 27.8039 64.0147 27.7329C64.0437 27.6396 64.1022 27.5579 64.1815 27.4997C64.2487 27.4615 64.2853 27.4555 64.2873 27.4615Z" fill="#263238"/>
<path d="M63.7909 24.3504C63.8255 24.9393 63.8519 25.5563 63.5773 26.0848C63.3026 26.6134 62.6048 26.9651 62.088 26.6717C61.6648 26.4345 61.5366 25.8979 61.4654 25.4216C61.262 24.049 61.1643 22.6583 60.9446 21.2856L63.7909 24.3504Z" fill="#263238"/>
<path d="M52.729 17.1557C52.729 17.1678 52.9223 17.1196 53.2722 17.1075C53.7665 17.0996 54.2574 17.1884 54.7167 17.3688C55.034 17.4904 55.3375 17.6447 55.6221 17.829C55.9477 18.046 56.2601 18.2815 56.558 18.5344C57.2448 19.109 57.8596 19.7628 58.3891 20.4818C58.6678 20.8657 58.914 21.2616 59.1785 21.6293C59.4307 21.9862 59.7251 22.3121 60.0554 22.6C60.6204 23.0761 61.2397 23.4855 61.9007 23.8199C62.4602 24.1133 62.918 24.3163 63.2496 24.459L63.6219 24.6158C63.6647 24.6363 63.7098 24.6518 63.7562 24.662C63.7181 24.6339 63.6763 24.6109 63.6321 24.5937L63.2699 24.4148C62.9525 24.2621 62.4927 24.045 61.9414 23.7456C61.2946 23.4021 60.6875 22.9904 60.1306 22.5176C59.8094 22.2322 59.5233 21.9105 59.2782 21.559C59.0157 21.1973 58.7695 20.8013 58.4908 20.4115C57.9561 19.6837 57.3322 19.0242 56.6333 18.448C56.3314 18.1946 56.0141 17.9597 55.6832 17.7446C55.3905 17.559 55.078 17.406 54.7513 17.2884C54.2805 17.1113 53.7773 17.0339 53.2743 17.0613C53.1374 17.0684 53.0013 17.0866 52.8674 17.1155C52.8198 17.1234 52.7733 17.1369 52.729 17.1557Z" fill="#455A64"/>
<path d="M63.8499 23.0179C63.9123 23.0686 63.9806 23.1118 64.0533 23.1465L64.6067 23.4681L64.7939 23.5726C64.8666 23.6153 64.9478 23.6421 65.0319 23.651C65.0839 23.656 65.1361 23.644 65.1804 23.6168C65.2034 23.6 65.2225 23.5786 65.2365 23.554C65.2505 23.5294 65.2592 23.5022 65.2618 23.4741C65.2564 23.3747 65.2202 23.2793 65.1581 23.2008C64.9546 22.8893 64.7512 22.5476 64.5172 22.1859L64.4297 22.2663C64.8576 22.5778 65.3822 22.732 65.9129 22.7024C65.9821 22.7021 66.0509 22.6905 66.1163 22.6682C66.1535 22.6577 66.1878 22.6394 66.217 22.6144C66.2462 22.5894 66.2694 22.5584 66.2852 22.5235C66.2978 22.4869 66.3011 22.4477 66.2947 22.4095C66.2883 22.3712 66.2725 22.3352 66.2486 22.3045C66.2113 22.256 66.1698 22.211 66.1245 22.1698C65.8365 21.8943 65.5862 21.5828 65.3798 21.2433C65.1986 20.9233 65.0409 20.5908 64.9078 20.2485C64.9172 20.3484 64.9404 20.4464 64.977 20.5399C65.0611 20.7985 65.1708 21.0482 65.3045 21.2855C65.505 21.6394 65.7542 21.9641 66.0451 22.2502C66.1265 22.3266 66.2079 22.413 66.1753 22.4813C66.1428 22.5497 66.0268 22.5838 65.9108 22.5838C65.4082 22.6078 64.9123 22.4618 64.505 22.1698L64.2446 21.9809L64.4195 22.2502L65.0746 23.2551C65.1235 23.3123 65.1552 23.3819 65.1662 23.456C65.1651 23.4704 65.1609 23.4845 65.1538 23.4971C65.1467 23.5098 65.1369 23.5208 65.1251 23.5294C65.1134 23.538 65.0998 23.5439 65.0855 23.5469C65.0712 23.5498 65.0564 23.5497 65.0421 23.5465C64.9018 23.52 64.7683 23.466 64.6494 23.3877L64.0777 23.0983C64.0056 23.062 63.929 23.035 63.8499 23.0179Z" fill="#455A64"/>
<path d="M57.392 28.7697C57.3509 28.6055 57.2529 28.4607 57.115 28.3605C56.9771 28.2603 56.8081 28.2109 56.6372 28.221C56.5126 28.2372 56.3939 28.2832 56.2914 28.355C56.189 28.4268 56.1058 28.5222 56.0492 28.633C55.9957 28.7452 55.9653 28.8667 55.9597 28.9905C55.9541 29.1144 55.9735 29.2381 56.0166 29.3545L56.0288 29.4067C56.1449 29.5314 56.2971 29.6176 56.4646 29.6536C56.6321 29.6895 56.8068 29.6735 56.9647 29.6077C57.1195 29.5341 57.2453 29.412 57.3226 29.2604C57.3999 29.1089 57.4243 28.9363 57.392 28.7697Z" fill="#EB996E"/>
<path d="M55.6226 29.4188C55.6226 29.3344 56.1882 29.3605 56.6155 28.9023C57.0428 28.4441 57.0082 27.8452 57.0875 27.8452C57.1241 27.8452 57.1913 27.9839 57.1852 28.2351C57.1734 28.5627 57.0452 28.8758 56.823 29.1194C56.6104 29.3557 56.3123 29.5 55.9929 29.5213C55.7549 29.5253 55.6186 29.457 55.6226 29.4188Z" fill="#263238"/>
<path d="M49.2333 59.4299L49.4978 60.9513L49.2496 61.7793C49.2496 61.7793 46.6922 64.9948 45.8722 67.3622C45.0523 69.7297 44.9893 75.9658 44.9893 75.9658L74.1238 75.9477C74.1238 75.9477 73.1065 66.685 69.4444 63.7689V63.1037L70.3497 61.7793C70.3497 61.7793 70.6549 60.7543 69.3325 60.9071C68.8076 60.9674 49.2333 59.4299 49.2333 59.4299Z" fill="#455A64"/>
<path d="M69.6076 62.8784H69.4041L68.8121 62.8644C68.2994 62.8523 67.5567 62.8423 66.6371 62.8483C65.7175 62.8543 64.625 62.8744 63.4104 62.8985C62.1957 62.9227 60.8611 62.9468 59.4573 62.9247C58.1375 62.9069 56.8195 62.8237 55.5082 62.6755C54.4373 62.5536 53.3757 62.3623 52.3303 62.1027C51.6256 61.9292 50.9319 61.7145 50.253 61.4596C50.0109 61.3732 49.8298 61.2888 49.7037 61.2385L49.5633 61.1762C49.5308 61.1621 49.5145 61.1541 49.5165 61.1521L49.5674 61.1662L49.7118 61.2184C49.84 61.2626 50.0231 61.341 50.2673 61.4194C50.95 61.6557 51.6447 61.857 52.3486 62.0223C53.3932 62.27 54.4526 62.4526 55.5204 62.5689C56.7249 62.7076 58.0575 62.784 59.4593 62.8101C60.8611 62.8362 62.1937 62.8101 63.4083 62.792C64.6229 62.7739 65.7175 62.7579 66.6371 62.7639C67.5567 62.7699 68.3014 62.788 68.8141 62.8141C69.0704 62.8242 69.2698 62.8382 69.4041 62.8483L69.5587 62.8604C69.5913 62.8724 69.6096 62.8764 69.6076 62.8784Z" fill="#263238"/>
<path d="M69.6076 64.2127C69.5908 64.2158 69.5736 64.2158 69.5568 64.2127H69.4022L68.8101 64.1986C68.2974 64.1865 67.5548 64.1765 66.6352 64.1825C65.7156 64.1886 64.623 64.2086 63.4084 64.2328C62.1938 64.2569 60.8591 64.281 59.4553 64.2589C58.0515 64.2368 56.7148 64.1524 55.5063 64.0097C54.4354 63.8878 53.3738 63.6965 52.3283 63.4369C51.6235 63.2629 50.9299 63.0475 50.2511 62.7918C50.009 62.7054 49.8279 62.623 49.7017 62.5727L49.5614 62.5104C49.5288 62.4964 49.5125 62.4883 49.5146 62.4863L49.5654 62.5004L49.7099 62.5526C49.8381 62.5969 50.0212 62.6732 50.2653 62.7536C50.948 62.9901 51.6428 63.1913 52.3466 63.3565C53.3913 63.6043 54.4507 63.7868 55.5185 63.9032C56.7229 64.0418 58.0556 64.1182 59.4573 64.1443C60.8591 64.1705 62.1918 64.1443 63.4064 64.1263C64.621 64.1082 65.7156 64.0921 66.6352 64.0981C67.5548 64.1041 68.2994 64.1222 68.8121 64.1484C69.0685 64.1584 69.2679 64.1725 69.4022 64.1825L69.5568 64.1946C69.5914 64.2086 69.6097 64.2107 69.6076 64.2127Z" fill="#263238"/>
<path d="M50.4805 65.7765C50.4967 65.6341 50.5351 65.4952 50.5944 65.3645C50.715 65.0408 50.8691 64.7304 51.0542 64.438C51.2373 64.1448 51.4499 63.8708 51.689 63.62C51.7816 63.5099 51.8907 63.4143 52.0125 63.3367C52.0369 63.3588 51.5649 63.815 51.1437 64.4923C50.7226 65.1695 50.511 65.7765 50.4805 65.7765Z" fill="#263238"/>
<path d="M51.5165 67.6275C51.5037 67.5721 51.5003 67.5151 51.5063 67.4586C51.508 67.3048 51.5182 67.1512 51.5369 66.9984C51.599 66.4942 51.7093 65.9969 51.8665 65.5133C52.0203 65.0303 52.2121 64.5599 52.4402 64.1065C52.5256 63.9138 52.6313 63.7306 52.7555 63.5598C52.6848 63.7569 52.6019 63.9495 52.5073 64.1366C52.3028 64.5959 52.1228 65.0655 51.9682 65.5434C51.8133 66.0225 51.6943 66.5122 51.6121 67.0085C51.5491 67.3843 51.5328 67.6295 51.5165 67.6275Z" fill="#263238"/>
<path d="M52.2061 60.3501C52.2365 60.4414 52.2563 60.5358 52.2651 60.6315C52.3128 60.8554 52.3767 61.0757 52.4564 61.2906C52.6374 61.7971 52.8795 62.1689 52.8633 62.185C52.6335 61.9402 52.4636 61.6466 52.3668 61.3268C52.2822 61.1063 52.2268 60.876 52.202 60.6415C52.1787 60.5456 52.1801 60.4454 52.2061 60.3501Z" fill="#263238"/>
<path d="M53.0686 60.9531C53.1726 61.1627 53.2452 61.3861 53.2843 61.6163C53.3581 61.8383 53.3972 62.07 53.4002 62.3036C53.2213 61.8726 53.1095 61.4173 53.0686 60.9531Z" fill="#263238"/>
<path d="M58.2753 60.7524C58.3455 61.434 58.3455 62.1208 58.2753 62.8023C58.2051 62.1208 58.2051 61.434 58.2753 60.7524Z" fill="#263238"/>
<path d="M58.9263 61.2769C59.0791 61.7908 59.0648 62.3389 58.8854 62.8444C58.8548 62.8444 58.914 62.4907 58.9242 62.0606C58.9344 61.6306 58.8977 61.2809 58.9263 61.2769Z" fill="#263238"/>
<path d="M60.6862 66.0216C60.6111 65.7319 60.5541 65.4379 60.5153 65.1414C60.4411 64.8505 60.3867 64.5551 60.3525 64.2571C60.4899 64.5283 60.58 64.8204 60.6191 65.1213C60.6937 65.4153 60.7164 65.7199 60.6862 66.0216Z" fill="#263238"/>
<path d="M43.2318 45.9826C43.1749 45.7997 45.3152 39.7525 46.5847 38.8361C47.8543 37.9196 53.5856 36.6073 53.5856 36.6073C53.5856 36.6073 55.9985 38.9587 59.2334 38.4703C62.4684 37.9819 64.9525 35.7271 64.9525 35.7271C64.9525 35.7271 71.0744 36.5189 72.1141 37.2504C73.1537 37.9819 75.9797 44.612 75.9797 44.612L70.991 48.7178L70.5495 52.4358C70.5495 52.4358 70.7815 60.1792 70.2606 60.973C69.7398 61.7668 49.3537 59.7471 49.3537 59.7471C49.3537 59.7471 48.3141 59.5642 49.1218 57.7374C49.9295 55.9105 50.5094 54.6886 50.5094 54.6886C50.5094 54.6886 49.0648 53.103 48.8329 50.2974C48.601 47.4919 48.0333 47.1904 48.0333 47.1904L43.2318 45.9826Z" fill="#FFCB08"/>
<path d="M70.5231 52.2932C70.4926 52.2932 70.7998 49.769 71.2087 46.666C71.6177 43.563 71.9696 41.0388 71.9981 41.0489C72.0266 41.0589 71.7153 43.571 71.3084 46.6841C70.9015 49.7971 70.5516 52.2972 70.5231 52.2932Z" fill="#263238"/>
<path d="M48.6722 48.2197C48.6458 48.2297 48.2653 47.3254 47.8197 46.1979C47.3742 45.0705 47.0385 44.15 47.0649 44.14C47.0914 44.1299 47.4718 45.0343 47.9194 46.1597C48.367 47.2852 48.7007 48.2096 48.6722 48.2197Z" fill="#263238"/>
<g opacity="0.3">
<path opacity="0.3" d="M55.1358 51.4412C55.0435 50.9176 54.8227 50.4242 54.4928 50.0043C54.0147 49.4697 53.2579 49.2426 52.5376 49.2466C51.8155 49.2847 51.1025 49.4234 50.4197 49.6586L49.1196 51.6683C49.1621 51.7897 49.2316 51.9001 49.3232 51.9913C49.4148 52.0825 49.526 52.152 49.6486 52.1949C49.8935 52.279 50.1503 52.3245 50.4095 52.3295C51.755 52.426 53.1005 52.4816 54.446 52.4963C54.6197 52.5141 54.7949 52.482 54.9506 52.4039C55.2354 52.2069 55.2151 51.7789 55.1358 51.4412Z" fill="black"/>
</g>
<path d="M46.2515 42.2268C46.2947 42.293 46.3302 42.3637 46.3573 42.4378C46.4203 42.5745 46.5058 42.7755 46.6075 43.0267C46.811 43.5271 47.0836 44.2325 47.3583 45.0022C47.6329 45.7719 47.8608 46.4914 48.0134 47.0119C48.0907 47.2692 48.1517 47.4802 48.1883 47.6269C48.2145 47.7009 48.2309 47.7779 48.2372 47.856C48.2005 47.7868 48.1711 47.7141 48.1497 47.6389L47.9462 47.036C47.7753 46.5236 47.5393 45.8161 47.2626 45.0404C46.9859 44.2647 46.7296 43.5633 46.5424 43.0568C46.4549 42.8197 46.3817 42.6187 46.3227 42.4539C46.2899 42.3813 46.266 42.305 46.2515 42.2268Z" fill="#263238"/>
<path d="M46.2411 42.8658L48.5218 51.0835C48.5616 51.218 48.6451 51.3357 48.7595 51.4186C48.8739 51.5014 49.0127 51.5447 49.1545 51.5417H54.1005C54.1957 51.5449 54.2904 51.5267 54.3775 51.4884C54.4645 51.4502 54.5416 51.3929 54.603 51.3209C54.6643 51.2489 54.7083 51.164 54.7315 51.0728C54.7548 50.9815 54.7568 50.8862 54.7373 50.7941L52.7374 42.5804C52.7008 42.4419 52.6181 42.3196 52.5026 42.2332C52.387 42.1468 52.2454 42.1013 52.1005 42.1041H46.8718C46.7755 42.1009 46.6797 42.1197 46.5919 42.159C46.5041 42.1984 46.4267 42.2572 46.3657 42.3309C46.3047 42.4045 46.2617 42.4911 46.2401 42.5839C46.2185 42.6767 46.2188 42.7732 46.2411 42.8658Z" fill="#263238"/>
<path d="M47.9586 44.4011C47.9586 44.4011 47.3686 44.1238 46.9027 44.4011C46.4368 44.6784 45.682 45.9044 45.682 45.9044L45.2161 47.8538L45.5355 50.5026L45.6616 51.7305L48.6727 52.0681V51.0854L52.1213 48.5391C52.1213 48.5391 53.3318 48.2075 53.2382 47.8518C53.1446 47.496 52.99 47.2488 52.6482 47.3132C52.3064 47.3775 48.6117 48.318 48.6117 48.318C48.6117 48.318 48.0217 48.4406 48.0522 48.2859C48.0827 48.1311 49.7917 47.3353 50.0705 47.1504C50.3492 46.9655 51.6554 46.66 51.4946 46.0772C51.4752 45.9721 51.432 45.8727 51.3681 45.7865C51.3042 45.7003 51.2214 45.6294 51.1259 45.5794C51.0303 45.5293 50.9245 45.5012 50.8165 45.4973C50.7084 45.4934 50.6008 45.5137 50.5018 45.5567L47.5192 46.6299L47.0227 46.7524L47.0858 45.9847L47.6127 45.2793C47.6599 45.2941 47.7095 45.2993 47.7588 45.2947C47.808 45.29 47.8558 45.2757 47.8993 45.2524C47.9427 45.2292 47.981 45.1975 48.0118 45.1593C48.0427 45.1211 48.0654 45.0772 48.0787 45.0301C48.1205 44.9247 48.1314 44.8098 48.1101 44.6986C48.0889 44.5873 48.0364 44.4842 47.9586 44.4011Z" fill="#FFBE9D"/>
<path d="M47.5571 46.6162C47.328 46.7459 47.0823 46.8445 46.8267 46.9096C46.5829 47.011 46.3262 47.0786 46.0637 47.1106C46.2933 46.982 46.5388 46.8834 46.7941 46.8172C47.0383 46.717 47.2948 46.6494 47.5571 46.6162Z" fill="#EB996E"/>
<path d="M48.2369 48.3865C48.0231 48.5029 47.7936 48.5889 47.5553 48.6417C47.327 48.7279 47.0871 48.7807 46.8433 48.7985C47.2851 48.5971 47.7548 48.4617 48.2369 48.3965V48.3865Z" fill="#EB996E"/>
<path d="M51.9314 48.5691C51.8786 48.6106 51.8204 48.6451 51.7585 48.6716C51.6425 48.7319 51.4736 48.8143 51.26 48.9107C50.7068 49.1576 50.1411 49.3763 49.5652 49.5659C48.9891 49.7571 48.403 49.9174 47.8094 50.0462C47.5816 50.0965 47.4025 50.1306 47.2662 50.1507C47.1995 50.166 47.1312 50.1735 47.0627 50.1728C47.3007 50.0918 47.5432 50.0247 47.7891 49.9719C48.2387 49.8573 48.8572 49.6865 49.5286 49.4654C50.2 49.2444 50.7982 49.0132 51.2295 48.8404C51.4581 48.737 51.6924 48.6464 51.9314 48.5691Z" fill="#EB996E"/>
<path d="M46.4707 50.0102C46.4606 50.0364 46.2673 49.9359 46.2062 49.7028C46.1452 49.4696 46.2469 49.2867 46.2693 49.3008C46.2917 49.3149 46.251 49.4777 46.308 49.6706C46.3649 49.8635 46.487 49.9861 46.4707 50.0102Z" fill="#EB996E"/>
<path d="M45.8767 48.4608C45.8767 48.4728 45.8217 48.4608 45.7526 48.4266C45.666 48.3679 45.601 48.2832 45.5673 48.185C45.5336 48.0869 45.5329 47.9806 45.5654 47.882C45.5939 47.8076 45.6305 47.7735 45.6427 47.7795C45.6549 47.7855 45.5979 47.9583 45.6691 48.1513C45.7403 48.3442 45.8767 48.4326 45.8767 48.4608Z" fill="#EB996E"/>
<path d="M45.5328 46.5637C45.5345 46.5962 45.5311 46.6287 45.5226 46.6602C45.5084 46.7345 45.4901 46.823 45.4697 46.9335C45.4189 47.1867 45.3477 47.5364 45.2663 47.9504V47.9384C45.3985 48.8709 45.5796 50.2214 45.777 51.7367V51.7488V51.7628C45.7383 51.8653 45.6956 51.9739 45.6549 52.0844C45.211 53.3242 45.0041 54.6346 45.0445 55.9491C45.0558 56.3471 45.0891 56.7443 45.1442 57.1388C45.1625 57.2694 45.1768 57.3759 45.189 57.4604C45.1974 57.4979 45.2008 57.5365 45.1992 57.5749C45.1855 57.5391 45.1753 57.5021 45.1686 57.4644C45.1524 57.392 45.1259 57.2855 45.1015 57.1448C45.0324 56.75 44.9882 56.3513 44.9693 55.9511C44.9059 54.6249 45.1049 53.2992 45.5552 52.0482C45.5959 51.9377 45.6386 51.8271 45.6773 51.7246V51.7508C45.4738 50.2334 45.3111 48.8829 45.2012 47.9464L45.4433 46.9415C45.4718 46.833 45.4942 46.7406 45.5125 46.6722C45.5164 46.6356 45.5232 46.5993 45.5328 46.5637Z" fill="#EB996E"/>
<path d="M49.1686 50.7982C48.9731 50.9974 48.7384 51.1547 48.4789 51.2605C48.2338 51.3962 47.963 51.4804 47.6833 51.5077C47.6833 51.4795 48.0252 51.363 48.4321 51.166C48.839 50.9691 49.1502 50.7721 49.1686 50.7982Z" fill="#EB996E"/>
<path d="M68.2566 54.9742C68.2566 54.9742 69.044 55.1752 69.1213 55.6816C69.1986 56.1881 68.5699 64.9263 68.5699 64.9263H69.3186C69.3186 64.9263 69.6177 56.2705 69.6055 55.6515C69.5933 55.0325 69.2962 54.9923 69.1843 54.9481C68.8798 54.8614 68.5556 54.8705 68.2566 54.9742Z" fill="#263238"/>
<path d="M67.8602 54.9582L71.4634 55.0949L70.7452 50.7981L70.9913 48.7181L75.7664 44.7791C75.7664 44.7791 77.4368 54.3493 77.5873 55.4546C77.7663 56.781 77.5059 58.5395 76.8549 59.1686C76.2995 59.7031 72.2975 59.1686 70.7513 59.1686C69.8968 59.1686 67.8541 59.1826 67.8541 59.1826L67.1379 55.8827L67.8602 54.9582Z" fill="#FFBE9D"/>
<path d="M76.8547 55.1069C76.8405 55.125 76.5963 54.9059 76.1264 54.705C75.5175 54.4332 74.85 54.3144 74.1834 54.3593C73.8183 54.3835 73.4586 54.4593 73.1153 54.5844C72.7999 54.6969 72.5273 54.8457 72.2852 54.9381C72.0944 55.0184 71.893 55.0711 71.687 55.0949C71.6124 55.1087 71.5358 55.1087 71.4612 55.0949C71.7357 55.0647 72.0035 54.9914 72.2546 54.8778C72.4907 54.7773 72.7572 54.6246 73.0807 54.502C73.4318 54.3679 73.8016 54.2873 74.1773 54.2628C74.8603 54.2162 75.5437 54.3479 76.1589 54.6447C76.343 54.735 76.5187 54.8413 76.6838 54.9622C76.7463 55.0037 76.8037 55.0523 76.8547 55.1069Z" fill="#EB996E"/>
<path d="M64.1446 62.8823C64.0123 63.0491 62.4905 75.9997 62.4905 75.9997L78.3049 75.9474L75.7984 62.9225L64.1446 62.8823Z" fill="#FFCB08"/>
<path d="M66.7674 75.9657C66.7389 75.9657 66.5741 73.0556 66.4012 69.4623C66.2283 65.8689 66.1123 62.9629 66.1428 62.9629C66.1733 62.9629 66.3341 65.8729 66.507 69.4663C66.6799 73.0597 66.7959 75.9637 66.7674 75.9657Z" fill="#263238"/>
<path d="M60.3221 55.1752C60.7589 55.1125 61.1911 55.0219 61.616 54.9039C61.8151 54.8082 62.0075 54.6994 62.1918 54.5783L64.2264 54.4155L67.858 54.9582C67.858 54.9582 68.4684 55.3922 68.3809 56.7247C68.3065 57.617 68.1122 58.4956 67.8031 59.3373C67.8031 59.3373 66.1754 60.6456 65.7401 60.726C65.3047 60.8064 62.8225 60.6697 62.5763 60.4788C62.4308 60.37 62.3091 60.2333 62.2183 60.0769C62.0857 60.01 61.9789 59.9021 61.9142 59.7696C61.8496 59.6372 61.8306 59.4874 61.8602 59.3433C61.8602 59.3433 61.0077 58.2561 60.8979 57.7938C60.788 57.3316 60.9243 57.2231 60.9243 57.2231C60.9243 57.2231 60.6781 56.5981 60.8694 56.381C60.9175 56.328 60.9759 56.2852 61.0412 56.2551C61.1065 56.225 61.1773 56.2082 61.2493 56.2058C61.3213 56.2033 61.3931 56.2153 61.4603 56.2409C61.5275 56.2665 61.5888 56.3053 61.6405 56.3549C61.8337 56.5719 63.0443 56.4092 63.0443 56.4092L64.1165 55.7017C63.5648 55.8402 63.0039 55.9402 62.438 56.0012C61.8622 56.0173 60.1288 56.3991 60.3221 55.1752Z" fill="#FFBE9D"/>
<path d="M64.5314 57.7376C64.5314 57.7537 64.3097 57.7919 63.9638 57.9104C63.7909 57.9687 63.5854 58.0451 63.3534 58.1114C63.0986 58.1959 62.8327 58.2433 62.564 58.2521C62.2888 58.2606 62.0169 58.1909 61.7807 58.0511C61.594 57.9343 61.4283 57.7876 61.2904 57.617C61.1981 57.5046 61.1131 57.3865 61.0361 57.2633C60.9812 57.1769 60.9547 57.1266 60.9608 57.1226C60.9669 57.1186 61.1053 57.2995 61.3474 57.5688C61.486 57.7267 61.6487 57.8623 61.8296 57.9707C62.0523 58.0958 62.306 58.1571 62.562 58.1476C63.1113 58.1335 63.5793 57.9265 63.9434 57.8341C64.1323 57.7685 64.3313 57.7359 64.5314 57.7376Z" fill="#EB996E"/>
<path d="M65.2721 56.7808C65.2822 56.7808 65.3209 56.8049 65.3494 56.8792C65.384 56.9761 65.384 57.0818 65.3494 57.1787C65.3162 57.2766 65.2492 57.3598 65.1602 57.4138C65.091 57.454 65.0422 57.454 65.0361 57.442C65.03 57.4299 65.1846 57.3354 65.2497 57.1445C65.3148 56.9536 65.2456 56.7928 65.2721 56.7808Z" fill="#EB996E"/>
<path d="M65.1903 59.1584C65.0237 59.206 64.8526 59.2363 64.6797 59.2488C64.3623 59.2931 63.9228 59.3453 63.4386 59.3955C63.2092 59.426 62.9782 59.4434 62.7468 59.4478C62.5545 59.4516 62.363 59.4216 62.1812 59.3594C62.0072 59.3131 61.8565 59.2051 61.7581 59.0559C61.8937 59.1566 62.0449 59.2353 62.2057 59.289C62.3814 59.339 62.5642 59.36 62.7468 59.3513C62.9503 59.3513 63.1843 59.3172 63.4264 59.2931C63.9126 59.2408 64.3521 59.2006 64.6715 59.1765C64.8434 59.1533 65.0172 59.1472 65.1903 59.1584Z" fill="#EB996E"/>
<path d="M66.1302 58.2983C66.1424 58.2983 66.1811 58.3385 66.2075 58.429C66.2422 58.5471 66.2422 58.6726 66.2075 58.7907C66.1735 58.9092 66.1074 59.0162 66.0163 59.1002C65.9451 59.1605 65.8881 59.1786 65.882 59.1685C65.8759 59.1585 66.0387 59.0078 66.1058 58.7666C66.1331 58.6121 66.1413 58.4548 66.1302 58.2983Z" fill="#EB996E"/>
<path d="M65.5472 60.2534C65.3898 60.2989 65.2269 60.3232 65.0629 60.3256C64.276 60.3875 63.4841 60.3388 62.711 60.1812C62.5483 60.1594 62.3895 60.1155 62.239 60.0508C62.4019 60.0558 62.5639 60.0753 62.7232 60.109C63.0203 60.1531 63.4312 60.2032 63.887 60.2313C64.3427 60.2594 64.7578 60.2594 65.0589 60.2534C65.2213 60.2382 65.3848 60.2382 65.5472 60.2534Z" fill="#EB996E"/>
<path d="M68.9893 54.9001C68.9893 54.9001 69.7013 55.4267 69.8336 55.7462C69.9658 56.0657 71.388 62.8807 71.388 62.8807H71.9983C71.9983 62.8807 70.5477 55.497 70.1937 55.2116C70.0665 55.11 69.9303 55.0199 69.7868 54.9423C69.6671 54.8798 69.5353 54.8434 69.4002 54.8354C69.2651 54.8274 69.1298 54.8481 69.0035 54.8961L68.9893 54.9001Z" fill="#263238"/>
<path d="M55.0954 56.2384C54.8928 56.2649 54.6876 56.2649 54.485 56.2384C53.5172 56.1487 52.5842 55.8362 51.7608 55.326C51.5857 55.2277 51.4237 55.1082 51.2786 54.9703C51.2887 54.9562 51.482 55.0848 51.7994 55.2617C52.2158 55.4953 52.6539 55.6891 53.1076 55.8405C53.5612 55.9907 54.0277 56.0997 54.5013 56.1661C54.8675 56.2103 55.0954 56.2223 55.0954 56.2384Z" fill="#263238"/>
<g opacity="0.3">
<path opacity="0.3" d="M58.662 56.1299C58.2887 56.0978 57.9128 56.1119 57.5431 56.1721C55.6408 56.373 53.6774 56.3731 51.9338 55.4104C52.1842 55.9271 52.6126 56.3389 53.1424 56.572C53.7455 56.7756 54.3788 56.8782 55.0162 56.8755C56.5464 56.9372 58.0792 56.87 59.5979 56.6745C59.4924 56.521 59.3538 56.3925 59.1919 56.2983C59.0301 56.2041 58.8491 56.1466 58.662 56.1299Z" fill="black"/>
</g>
<path d="M52.8532 36.8367C52.8532 36.1235 52.5664 35.4396 52.0559 34.9353C51.5454 34.431 50.853 34.1477 50.131 34.1477H33.5577C32.8489 34.1669 32.1756 34.4585 31.6811 34.9605C31.1866 35.4625 30.9099 36.1353 30.9099 36.8357C30.9099 37.5361 31.1866 38.2089 31.6811 38.7109C32.1756 39.2129 32.8489 39.5045 33.5577 39.5237H43.4639C44.3936 40.41 45.9826 41.6057 45.9826 41.6057V39.4252L50.3304 39.5116C51.8177 39.4674 52.8532 38.2435 52.8532 36.8367Z" fill="white"/>
<path d="M52.8531 36.8369C52.8531 36.8369 52.8531 36.8851 52.8531 36.9836C52.8493 37.1281 52.8329 37.2719 52.8042 37.4137C52.7594 37.6449 52.6856 37.8697 52.5845 38.0829C52.4415 38.3737 52.2472 38.6371 52.0108 38.8607C51.7113 39.1389 51.3473 39.3403 50.9508 39.4475C50.8402 39.4765 50.7281 39.5 50.6151 39.5178C50.4969 39.5313 50.378 39.5387 50.259 39.5399L49.5083 39.5279L45.9845 39.4656L46.0231 39.4274C46.0231 40.1147 46.0231 40.8442 46.0231 41.6039V41.6903L45.956 41.6381C45.1422 41.0171 44.2734 40.3418 43.4291 39.556L43.4617 39.5701H37.4598H34.1944C33.9136 39.5701 33.6389 39.5801 33.35 39.56C32.7955 39.5167 32.2668 39.3107 31.8318 38.9683C31.3967 38.626 31.0752 38.163 30.9086 37.6388C30.842 37.4191 30.8024 37.1924 30.7906 36.9635C30.7803 36.736 30.7967 36.508 30.8394 36.2842C30.8872 36.0625 30.9616 35.8473 31.0612 35.6431C31.2561 35.2414 31.5478 34.8931 31.9106 34.6286C32.2735 34.364 32.6965 34.1914 33.1425 34.1258C33.3589 34.0965 33.5773 34.0851 33.7956 34.0916H38.1454L46.6071 34.1037H49.8623C50.0942 34.0962 50.3263 34.1083 50.5561 34.1399C50.7695 34.1731 50.9784 34.2304 51.1787 34.3107C51.5276 34.4546 51.8427 34.6681 52.1044 34.9377C52.3141 35.1509 52.4848 35.3984 52.6089 35.6692C52.6594 35.7772 52.7035 35.8879 52.7412 36.0008C52.7697 36.1053 52.7941 36.2018 52.8124 36.2862C52.8377 36.4188 52.852 36.5533 52.8551 36.6882C52.8551 36.7786 52.8551 36.8248 52.8551 36.8248C52.8551 36.8248 52.8551 36.7786 52.8429 36.6882C52.8343 36.5532 52.8166 36.4189 52.79 36.2862C52.7697 36.2018 52.7432 36.1074 52.7127 36.0049C52.6755 35.8935 52.6306 35.7847 52.5784 35.6793C52.4532 35.4128 52.2817 35.17 52.0718 34.9618C51.812 34.7016 51.5011 34.4965 51.1583 34.3589C50.9618 34.2818 50.757 34.2271 50.5479 34.1961C50.3208 34.1658 50.0914 34.155 49.8623 34.164H46.6071H38.1454H33.7956C33.5828 34.1565 33.3697 34.1672 33.1588 34.1961C32.6198 34.2799 32.1193 34.5234 31.7236 34.8945C31.3279 35.2657 31.0557 35.7468 30.9432 36.2742C30.8588 36.7078 30.8812 37.1551 31.0083 37.5785C31.0771 37.7898 31.1714 37.9922 31.289 38.1814C31.5087 38.5365 31.8111 38.8347 32.171 39.0511C32.5309 39.2675 32.9379 39.3958 33.3582 39.4254C33.6308 39.4455 33.9177 39.4254 34.1944 39.4354H37.4618H43.4637H43.482L43.4963 39.4475C44.3324 40.2293 45.1992 40.9065 46.0089 41.5295L45.9397 41.5617C45.9397 40.802 45.9397 40.0725 45.9397 39.3852V39.347H45.9804L49.5022 39.4254C50.019 39.4254 50.5073 39.4877 50.9264 39.355C51.3155 39.2649 51.677 39.0836 51.9803 38.8265C52.215 38.6089 52.4086 38.3516 52.552 38.0668C52.7193 37.7272 52.8174 37.3585 52.8409 36.9816C52.847 36.8831 52.8531 36.8369 52.8531 36.8369Z" fill="#263238"/>
<path d="M49.2767 37.675C49.2333 37.678 49.1898 37.678 49.1465 37.675C48.9508 37.6492 48.7673 37.5667 48.6191 37.438C48.4709 37.3093 48.3646 37.14 48.3136 36.9517C48.2627 36.7633 48.2694 36.5643 48.3328 36.3797C48.3963 36.1951 48.5137 36.0332 48.6702 35.9144C48.8268 35.7957 49.0154 35.7254 49.2123 35.7124C49.4093 35.6994 49.6057 35.7444 49.7768 35.8416C49.9478 35.9388 50.086 36.0838 50.1737 36.2585C50.2614 36.4332 50.2947 36.6296 50.2695 36.8229C50.2357 37.0593 50.1166 37.2756 49.9342 37.4322C49.7518 37.5887 49.5183 37.675 49.2767 37.675ZM49.2767 35.9005C49.0835 35.9004 48.8969 35.97 48.7519 36.0962C48.607 36.2224 48.5136 36.3964 48.4893 36.5858C48.4627 36.7924 48.5198 37.0011 48.6483 37.1663C48.7767 37.3316 48.966 37.44 49.1749 37.4681C49.3846 37.4948 49.5964 37.4383 49.7638 37.311C49.9313 37.1836 50.0407 36.9958 50.0681 36.7888C50.0818 36.6864 50.075 36.5823 50.0479 36.4825C50.0209 36.3827 49.9742 36.2891 49.9105 36.2072C49.8468 36.1253 49.7674 36.0565 49.6768 36.0049C49.5862 35.9533 49.4862 35.9199 49.3825 35.9065C49.3467 35.9024 49.3107 35.9004 49.2746 35.9005H49.2767Z" fill="#263238"/>
<path d="M50.6358 37.9062C50.6119 37.9058 50.5889 37.8973 50.5707 37.8821L49.9176 37.3435C49.9073 37.3351 49.8988 37.3247 49.8926 37.313C49.8864 37.3013 49.8825 37.2885 49.8813 37.2754C49.8801 37.2622 49.8815 37.249 49.8854 37.2363C49.8894 37.2237 49.8958 37.212 49.9044 37.2018C49.9129 37.1917 49.9234 37.1833 49.9353 37.1771C49.9471 37.171 49.96 37.1672 49.9734 37.166C49.9867 37.1647 50.0001 37.1661 50.0129 37.17C50.0257 37.174 50.0375 37.1803 50.0478 37.1888L50.7009 37.7274C50.7217 37.7446 50.7348 37.7692 50.7375 37.7958C50.7401 37.8225 50.7321 37.8492 50.7151 37.8701C50.7055 37.8815 50.6933 37.8907 50.6796 37.897C50.6659 37.9032 50.6509 37.9064 50.6358 37.9062Z" fill="#263238"/>
</svg>
