<svg width="72" height="72" viewBox="0 0 72 72" fill="none" xmlns="http://www.w3.org/2000/svg">
<rect x="0.25" y="0.25" width="71.5" height="71.5" rx="9.75" fill="white" stroke="#DADADA" stroke-width="0.5"/>
<path opacity="0.4" d="M44.8719 45.0151V32.5024H31.5074C31.1133 34.1209 30.2353 35.5807 28.9904 36.6874C27.7455 37.7942 26.1928 38.4952 24.5394 38.697V45.0151H44.8719Z" fill="#FFCB08"/>
<path d="M54.2564 35.6303V32.5021C54.2562 31.6727 53.9265 30.8773 53.3398 30.2908C52.7532 29.7044 51.9577 29.375 51.1283 29.375H31.6518C31.7094 29.7701 31.7384 30.1688 31.7387 30.5681C31.7387 30.6923 31.7355 30.8158 31.7293 30.9386H51.1283C51.543 30.9386 51.9407 31.1033 52.2339 31.3965C52.5271 31.6897 52.6918 32.0874 52.6918 32.5021V37.1928V45.0127C52.6918 45.4274 52.5271 45.8251 52.2339 46.1183C51.9407 46.4115 51.543 46.5762 51.1283 46.5762H24.5394C24.1241 46.5762 23.7258 46.4117 23.4316 46.1187C23.1374 45.8256 22.9712 45.4279 22.9696 45.0127V38.7333C22.4411 38.6969 21.9175 38.6093 21.406 38.4717V45.0116C21.406 45.8413 21.7356 46.6369 22.3222 47.2236C22.9089 47.8102 23.7045 48.1398 24.5342 48.1398H51.1283C51.9579 48.1398 52.7536 47.8102 53.3402 47.2236C53.9269 46.6369 54.2564 45.8413 54.2564 45.0116V41.8866C54.6711 41.8866 55.0688 41.7219 55.362 41.4287C55.6553 41.1354 55.82 40.7377 55.82 40.3231V37.1928C55.8197 36.7783 55.6549 36.3809 55.3617 36.0879C55.0685 35.7949 54.6709 35.6303 54.2564 35.6303Z" fill="#FFCB08"/>
<path d="M23.834 37.6681C27.6084 37.6681 30.6681 34.6084 30.6681 30.834C30.6681 27.0597 27.6084 24 23.834 24C20.0597 24 17 27.0597 17 30.834C17 34.6084 20.0597 37.6681 23.834 37.6681Z" fill="#FFCB08"/>
<path d="M24 27.3271V34.6535" stroke="white" stroke-width="1.5" stroke-linecap="round" stroke-linejoin="round"/>
<path d="M27.6667 30.9904H20.3333" stroke="white" stroke-width="1.5" stroke-linecap="round" stroke-linejoin="round"/>
</svg>
